<?xml version="1.0" encoding="utf-8"?>
<!-- Generator: Adobe Illustrator 21.0.0, SVG Export Plug-In . SVG Version: 6.00 Build 0)  -->
<svg version="1.1" id="admin_xA0_Image_1_" xmlns="http://www.w3.org/2000/svg" xmlns:xlink="http://www.w3.org/1999/xlink" x="0px"
	 y="0px" viewBox="0 0 140.2 52.8" style="enable-background:new 0 0 140.2 52.8;" xml:space="preserve">
<style type="text/css">
	.st0{fill:#FAFAFB;}
	.st1{fill:#E7E8EC;}
</style>
<g>
	<path class="st0" d="M24.6,10.6c2,0,3.1,1.1,3.8,2.7c0.9,2.4,1.8,4.9,2.7,7.3c1.8,5,3.7,10,5.5,15c0.3,0.9,0.6,1.7,0.7,2.6
		c0.1,1.3-0.7,2.6-2,3c-1.3,0.4-2.4-0.2-3-1.6c-0.7-1.6-1.3-3.3-1.9-5c-0.2-0.6-0.5-0.8-1.1-0.8c-3.1,0-6.2,0-9.2,0
		c-0.7,0-1,0.2-1.2,0.8c-0.5,1.7-1.1,3.3-1.8,4.9c-0.6,1.5-1.6,2-2.9,1.6c-1.3-0.4-2.2-1.8-1.9-3.2c0.1-0.6,0.3-1.2,0.5-1.8
		c2.6-7.3,5.2-14.6,7.8-22c0.2-0.7,0.5-1.3,0.9-1.9C22.3,11.1,23.3,10.5,24.6,10.6z M24.7,16.9c-1.3,4.1-2.5,7.9-3.8,11.7
		c-0.2,0.6,0,0.7,0.6,0.7c2.1,0,4.1,0,6.2,0c0.8,0,1-0.1,0.7-1c-1-2.9-1.9-5.9-2.9-8.8C25.2,18.7,25,17.9,24.7,16.9z"/>
	<path class="st0" d="M67.1,25.8c0,4,0,8,0,12c0,0.6,0,1.3-0.2,1.9c-0.2,0.8-0.7,1.3-1.6,1.3c-0.9,0-1.4-0.5-1.7-1.3
		c-0.1-0.4-0.1-0.9-0.1-1.3c0-5.2,0-10.5,0-15.7c0-2,0.6-2.6,2.6-2.6c3.1,0,3.1,0,3.9,3c0.9,3.5,1.7,6.9,2.8,10.4
		c0.5-2.1,1.1-4.3,1.6-6.4c0.4-1.8,0.9-3.6,1.3-5.3c0.3-1.1,0.9-1.6,2-1.6c3.7-0.1,4.1,0.2,4.1,3.9c0,4.5,0,9,0,13.6
		c0,0.3,0,0.6,0,0.8c0,1.8-0.6,2.6-1.8,2.6c-1.2,0-1.8-0.9-1.8-2.6c0-4.3,0-8.6-0.2-12.9c-0.5,2.1-1,4.3-1.5,6.4
		c-0.5,2.3-1.1,4.7-1.7,7c-0.3,1.1-0.8,2-2.1,2.1c-1.2,0.1-1.9-0.5-2.3-2c-1-4-1.9-8-2.8-12c-0.1-0.4-0.2-0.8-0.3-1.2
		C67.3,25.8,67.2,25.8,67.1,25.8z"/>
	<path class="st0" d="M109.7,33.9c0-3.8,0-7.6,0-11.5c0-0.6,0-1.1,0.2-1.7c0.3-0.7,0.8-1.1,1.6-1.1c0.8,0,1.3,0.4,1.5,1.1
		c0.1,0.4,0.2,0.9,0.2,1.4c0,5.4,0,10.7,0,16.1c0,2.3-1.3,3.3-3,2.6c-0.8-0.3-1.3-1-1.7-1.8c-2.1-3.4-4.2-6.9-6.2-10.4
		c-0.3-0.5-0.7-1.1-1-1.6c-0.4,0.2-0.2,0.6-0.2,0.9c0,3.3,0,6.6,0,10c0,0.4,0,0.7,0,1.1c-0.1,1.4-0.8,2.1-1.9,2
		c-1-0.1-1.6-0.8-1.7-2.1c0-5.6,0-11.2,0-16.8c0-1.2,0.5-2,1.7-2.4c1.2-0.4,2,0.3,2.6,1.2c2.6,4.3,5.2,8.6,7.8,12.9
		C109.5,33.9,109.6,33.9,109.7,33.9z"/>
	<path id="Key" class="st0" d="M89.7,13c4.3,0.1,7,3.1,6.8,7.3c-0.1,1.9-1.2,3.3-2.7,4.3c-0.8,0.5-1,0.8-0.3,1.6
		c0.6,0.8,0.3,1.4-0.7,1.4c-0.8,0-0.9,0.4-0.9,1c-0.1,3.2-0.1,6.4-0.2,9.6c0,0.5,0,1-0.3,1.5c-0.9,1.6-1.6,1.7-2.8,0.3
		c-0.6-0.7-1.6-1.2-1.4-2.4c0-0.2,0-0.6,0.1-0.7c1.1-0.9,0.3-1.4-0.3-2.1c-0.6-0.7-0.5-1.4,0.2-2c0.7-0.6,0.9-1.1,0.1-1.7
		c-0.8-0.5-0.7-1.1,0-1.6c0.6-0.4,0.6-1,0.5-1.6c-0.1-0.7-0.8-0.3-1.2-0.4C85.6,27.3,85.4,27,86,26c0.5-0.7,0.5-1-0.3-1.6
		c-2.5-1.7-3.5-4.5-2.6-7.1C84,14.6,86.6,12.9,89.7,13z M89.8,14.4c-0.8,0.1-1.3,0.5-1.3,1.3c0,0.8,0.5,1.3,1.3,1.3
		c0.8,0,1.3-0.5,1.3-1.3C91,14.9,90.5,14.5,89.8,14.4z"/>
	<path class="st0" d="M42.7,30.5c0-2.5,0-5,0-7.5c0-2.2,0.6-2.8,2.8-2.8c1.8,0,3.5,0,5.3,0c3.7,0.1,6.3,1.9,7.4,5.5
		c1,3.2,1,6.5,0,9.7c-1.1,3.5-3.7,5.4-7.4,5.5c-1.9,0-3.8,0-5.8,0c-1.6,0-2.2-0.6-2.2-2.2C42.7,35.9,42.7,33.2,42.7,30.5
		C42.7,30.5,42.7,30.5,42.7,30.5z M46.5,30.5c0,1.2,0,2.3,0,3.5c0,1.1-0.5,2.7,0.2,3.3c0.7,0.6,2.2,0.2,3.4,0.2
		c2.2,0,3.5-0.9,4.2-3.1c0.8-2.4,0.8-4.8,0.2-7.2c-0.5-2-1.7-3.3-3.8-3.5c-1.1-0.1-2.2,0-3.3-0.1c-0.7,0-0.9,0.2-0.9,0.9
		C46.5,26.4,46.5,28.5,46.5,30.5z"/>
	<path class="st1" d="M109.3,20.1c-4.1-8.9-11.1-13.4-20.9-13C79.6,7.4,73.4,12,69.7,20.1c-0.6-0.5-0.4-1.1-0.1-1.8
		c3.2-6.4,8.3-10.4,15.3-11.7c8.5-1.5,15.9,0.6,21.7,7.3c1.2,1.4,2.2,3,2.9,4.7C109.8,19.2,110,19.7,109.3,20.1z"/>
	<path class="st1" d="M89.8,47.1c-5.7,0-10.6-1.6-14.7-5.1c-0.2-0.2-0.9-0.4-0.5-0.9c0.4-0.5,0.8,0,1.1,0.2
		c9.5,7.6,22.7,6.3,30.5-2.8c0.2-0.2,0.2-0.9,0.7-0.4c0.4,0.3,0.2,0.7-0.1,1c-1.1,1.3-2.3,2.5-3.6,3.5
		C99.1,45.7,94.5,47.1,89.8,47.1z"/>
</g>
</svg>
