<svg id="admin_Image" data-name="admin Image" xmlns="http://www.w3.org/2000/svg" viewBox="0 0 140.21 52.85">
  <defs>
    <style>
      .cls-1, .cls-4 {
        fill: #050936;
      }

      .cls-2 {
        fill: #fafafb;
      }

      .cls-2, .cls-3, .cls-4 {
        fill-rule: evenodd;
      }

      .cls-3 {
        fill: #e7e8ec;
      }
    </style>
  </defs>
  <title>admin</title>
  <g>
    <path class="cls-1" d="M70.33,53q-34.55,0-69.1,0c-0.76,0-1-.07-1-1q0.05-25.49,0-51c0-.79.23-0.9,0.94-0.9q69.16,0,138.32,0c0.89,0,.95.27,0.95,1q0,25.43,0,50.86c0,0.85-.21,1-1,1Q104.87,53,70.33,53ZM24.58,10.55a3.3,3.3,0,0,0-3,1.72,11.43,11.43,0,0,0-.91,1.94q-3.94,11-7.84,22A11.93,11.93,0,0,0,12.32,38a2.87,2.87,0,0,0,1.92,3.2c1.27,0.38,2.3-.14,2.9-1.61s1.25-3.28,1.8-4.94a1,1,0,0,1,1.19-.82q4.62,0.06,9.23,0a1,1,0,0,1,1.11.77c0.59,1.69,1.2,3.38,1.9,5a2.35,2.35,0,0,0,3,1.58,2.87,2.87,0,0,0,2-3,10.19,10.19,0,0,0-.71-2.65l-5.52-15c-0.89-2.43-1.76-4.87-2.7-7.28A3.76,3.76,0,0,0,24.58,10.55ZM67.13,25.81h0.23c0.11,0.41.22,0.83,0.31,1.24,0.94,4,1.85,8,2.83,12,0.37,1.49,1.12,2.07,2.29,2A2.24,2.24,0,0,0,74.91,39q0.83-3.49,1.65-7,0.76-3.22,1.5-6.43c0.2,4.32.19,8.59,0.2,12.87,0,1.75.61,2.63,1.77,2.63s1.77-.85,1.79-2.61c0-.28,0-0.56,0-0.84V24c0-3.68-.38-4-4.05-3.88a1.93,1.93,0,0,0-2,1.62c-0.43,1.78-.89,3.56-1.33,5.34l-1.6,6.44c-1.07-3.48-1.91-7-2.76-10.41-0.73-3-.81-3-3.88-3-2,0-2.56.57-2.56,2.57q0,7.86,0,15.71a4.75,4.75,0,0,0,.12,1.31A1.6,1.6,0,0,0,65.36,41,1.54,1.54,0,0,0,67,39.7a10,10,0,0,0,.17-1.91C67.14,33.8,67.13,29.8,67.13,25.81Zm42.55,8.07-0.22,0L101.65,21a2.14,2.14,0,0,0-2.57-1.25,2.25,2.25,0,0,0-1.66,2.37c0,5.6,0,11.2,0,16.8,0,1.31.66,2.06,1.65,2.11s1.76-.67,1.9-2a10.46,10.46,0,0,0,0-1.08c0-3.32,0-6.64,0-10,0-.27-0.19-0.64.22-0.85l1,1.64q3.12,5.18,6.25,10.36a3.77,3.77,0,0,0,1.73,1.76c1.75,0.7,3-.33,3-2.61,0-5.36,0-10.72,0-16.08a4.65,4.65,0,0,0-.23-1.41,1.51,1.51,0,0,0-1.54-1.1,1.55,1.55,0,0,0-1.56,1.07,4.23,4.23,0,0,0-.22,1.65V33.88ZM89.66,13a6.46,6.46,0,0,0-6.57,4.4,6.07,6.07,0,0,0,2.61,7.09c0.81,0.54.72,0.89,0.26,1.57-0.61.91-.39,1.27,0.66,1.41,0.42,0.06,1.06-.29,1.2.39a1.46,1.46,0,0,1-.52,1.62c-0.75.51-.79,1,0,1.57s0.69,1.14-.06,1.74a1.29,1.29,0,0,0-.17,2c0.57,0.66,1.36,1.2.28,2.08a1.42,1.42,0,0,0-.1.69c-0.17,1.16.81,1.67,1.39,2.38,1.2,1.45,1.81,1.36,2.75-.29a2.94,2.94,0,0,0,.32-1.5c0.06-3.2.14-6.39,0.19-9.59,0-.62,0-1,0.87-1,1,0,1.31-.64.66-1.4S93,25,93.75,24.56a5.42,5.42,0,0,0,2.69-4.31C96.7,16,93.95,13.11,89.66,13Zm-47,17.5h0c0,2.72,0,5.43,0,8.15,0,1.56.66,2.14,2.23,2.17q2.87,0,5.75,0a7.35,7.35,0,0,0,7.41-5.49,15.5,15.5,0,0,0,0-9.65,7.34,7.34,0,0,0-7.4-5.48c-1.76,0-3.51,0-5.27,0-2.18,0-2.74.55-2.75,2.77C42.65,25.45,42.66,28,42.66,30.48Zm66.65-10.41c0.72-.35.48-0.88,0.25-1.41a18.37,18.37,0,0,0-2.9-4.67c-5.81-6.71-13.23-8.86-21.75-7.33A20.43,20.43,0,0,0,69.61,18.37a1.28,1.28,0,0,0,.13,1.77c3.62-8.16,9.9-12.7,18.7-13.07C98.18,6.65,105.19,11.18,109.31,20.07Zm-19.47,27a21.45,21.45,0,0,0,13.32-4.41,22.37,22.37,0,0,0,3.62-3.49c0.28-.34.5-0.69,0.1-1s-0.57.23-.72,0.41a21.7,21.7,0,0,1-30.45,2.84c-0.33-.26-0.68-0.76-1.1-0.24s0.25,0.67.49,0.88A21.81,21.81,0,0,0,89.85,47.06Z" transform="translate(-0.21 -0.21)"/>
    <path class="cls-2" d="M24.58,10.55a3.76,3.76,0,0,1,3.78,2.72c0.94,2.41,1.81,4.85,2.7,7.28l5.52,15a10.19,10.19,0,0,1,.71,2.65,2.87,2.87,0,0,1-2,3,2.35,2.35,0,0,1-3-1.58c-0.7-1.65-1.31-3.34-1.9-5a1,1,0,0,0-1.11-.77q-4.62.05-9.23,0a1,1,0,0,0-1.19.82c-0.55,1.66-1.13,3.32-1.8,4.94s-1.64,2-2.9,1.61A2.87,2.87,0,0,1,12.32,38a11.93,11.93,0,0,1,.52-1.84q3.91-11,7.84-22a11.43,11.43,0,0,1,.91-1.94A3.3,3.3,0,0,1,24.58,10.55Zm0.07,6.32c-1.31,4.08-2.53,7.88-3.76,11.68-0.19.59,0,.75,0.57,0.74,2.07,0,4.15,0,6.22,0,0.81,0,1-.11.72-1-1-2.93-1.94-5.89-2.9-8.83Z" transform="translate(-0.21 -0.21)"/>
    <path class="cls-2" d="M67.13,25.81c0,4,0,8,0,12A10,10,0,0,1,67,39.7,1.54,1.54,0,0,1,65.36,41a1.6,1.6,0,0,1-1.66-1.29,4.75,4.75,0,0,1-.12-1.31q0-7.86,0-15.71c0-2,.56-2.55,2.56-2.57,3.07,0,3.15,0,3.88,3,0.85,3.46,1.69,6.93,2.76,10.41l1.6-6.44c0.44-1.78.91-3.56,1.33-5.34a1.93,1.93,0,0,1,2-1.62c3.68-.14,4.05.2,4.05,3.88V37.59c0,0.28,0,.56,0,0.84C81.8,40.19,81.22,41,80,41s-1.77-.87-1.77-2.63c0-4.28,0-8.55-.2-12.87q-0.75,3.22-1.5,6.43-0.82,3.49-1.65,7A2.24,2.24,0,0,1,72.79,41c-1.16.06-1.92-.52-2.29-2-1-4-1.89-8-2.83-12-0.1-.42-0.21-0.83-0.31-1.24H67.13Z" transform="translate(-0.21 -0.21)"/>
    <path class="cls-2" d="M109.68,33.88V22.41a4.23,4.23,0,0,1,.22-1.65,1.55,1.55,0,0,1,1.56-1.07,1.51,1.51,0,0,1,1.54,1.1,4.65,4.65,0,0,1,.23,1.41c0,5.36,0,10.72,0,16.08,0,2.28-1.26,3.31-3,2.61a3.77,3.77,0,0,1-1.73-1.76q-3.14-5.17-6.25-10.36l-1-1.64c-0.41.22-.22,0.58-0.22,0.85,0,3.32,0,6.64,0,10A10.46,10.46,0,0,1,101,39c-0.14,1.35-.83,2.08-1.9,2s-1.65-.8-1.65-2.11c0-5.6,0-11.2,0-16.8a2.25,2.25,0,0,1,1.66-2.37A2.14,2.14,0,0,1,101.65,21l7.8,12.91Z" transform="translate(-0.21 -0.21)"/>
    <path class="cls-2" d="M89.66,13c4.28,0.13,7,3.07,6.78,7.26a5.42,5.42,0,0,1-2.69,4.31c-0.76.49-1,.79-0.33,1.57s0.34,1.4-.66,1.4c-0.84,0-.86.4-0.87,1,0,3.2-.13,6.4-0.19,9.59a2.94,2.94,0,0,1-.32,1.5c-0.95,1.64-1.55,1.74-2.75.29-0.59-.71-1.56-1.22-1.39-2.38a1.42,1.42,0,0,1,.1-0.69c1.08-.88.28-1.42-0.28-2.08a1.29,1.29,0,0,1,.17-2c0.75-.61.91-1.13,0.06-1.74s-0.71-1.06,0-1.57a1.46,1.46,0,0,0,.52-1.62c-0.13-.68-0.78-0.34-1.2-0.39C85.57,27.32,85.35,27,86,26.05c0.46-.68.55-1-0.26-1.57a6.07,6.07,0,0,1-2.61-7.09A6.46,6.46,0,0,1,89.66,13Zm0.09,1.44a1.25,1.25,0,0,0-1.32,1.29A1.22,1.22,0,0,0,89.71,17,1.17,1.17,0,0,0,91,15.75,1.28,1.28,0,0,0,89.76,14.42Z" transform="translate(-0.21 -0.21)"/>
    <path class="cls-2" d="M42.66,30.48c0-2.52,0-5,0-7.55,0-2.22.57-2.77,2.75-2.77,1.76,0,3.51,0,5.27,0a7.34,7.34,0,0,1,7.4,5.48,15.5,15.5,0,0,1,0,9.65,7.35,7.35,0,0,1-7.41,5.49q-2.87.05-5.75,0c-1.57,0-2.21-.61-2.23-2.17,0-2.71,0-5.43,0-8.15h0Zm3.85,0c0,1.16,0,2.32,0,3.47s-0.52,2.7.23,3.3,2.21,0.19,3.36.17a4,4,0,0,0,4.2-3.06,12.62,12.62,0,0,0,.25-7.19,4.22,4.22,0,0,0-3.84-3.53c-1.12-.14-2.23,0-3.34-0.12-0.69,0-.88.19-0.86,0.86C46.54,26.41,46.51,28.45,46.51,30.48Z" transform="translate(-0.21 -0.21)"/>
    <path class="cls-3" d="M109.31,20.07c-4.12-8.89-11.14-13.42-20.87-13-8.8.37-15.08,4.91-18.7,13.07a1.28,1.28,0,0,1-.13-1.77A20.43,20.43,0,0,1,84.92,6.66c8.51-1.53,15.94.62,21.75,7.33a18.37,18.37,0,0,1,2.9,4.67C109.8,19.19,110,19.73,109.31,20.07Z" transform="translate(-0.21 -0.21)"/>
    <path class="cls-3" d="M89.85,47.06A21.81,21.81,0,0,1,75.1,42c-0.25-.21-0.9-0.37-0.49-0.88s0.77,0,1.1.24a21.7,21.7,0,0,0,30.45-2.84c0.15-.18.19-0.88,0.72-0.41s0.18,0.7-.1,1a22.37,22.37,0,0,1-3.62,3.49A21.45,21.45,0,0,1,89.85,47.06Z" transform="translate(-0.21 -0.21)"/>
    <path class="cls-4" d="M24.65,16.87l0.85,2.61c1,2.95,1.89,5.91,2.9,8.83,0.3,0.86.09,1-.72,1-2.07,0-4.15,0-6.22,0-0.61,0-.76-0.15-0.57-0.74C22.13,24.76,23.34,21,24.65,16.87Z" transform="translate(-0.21 -0.21)"/>
    <path class="cls-4" d="M89.76,14.42A1.28,1.28,0,0,1,91,15.75,1.17,1.17,0,0,1,89.71,17a1.22,1.22,0,0,1-1.28-1.31A1.25,1.25,0,0,1,89.76,14.42Z" transform="translate(-0.21 -0.21)"/>
    <path class="cls-4" d="M46.51,30.48c0-2,0-4.07,0-6.1,0-.68.18-0.91,0.86-0.86,1.11,0.08,2.23,0,3.34.12a4.22,4.22,0,0,1,3.84,3.53,12.62,12.62,0,0,1-.25,7.19,4,4,0,0,1-4.2,3.06c-1.15,0-2.65.4-3.36-.17s-0.18-2.16-.23-3.3S46.51,31.64,46.51,30.48Z" transform="translate(-0.21 -0.21)"/>
  </g>
</svg>
