<?xml version="1.0" encoding="utf-8"?>
<!-- Generator: Adobe Illustrator 16.0.0, SVG Export Plug-In . SVG Version: 6.00 Build 0)  -->
<!DOCTYPE svg PUBLIC "-//W3C//DTD SVG 1.1//EN" "http://www.w3.org/Graphics/SVG/1.1/DTD/svg11.dtd">
<svg version="1.1" id="admin_xA0_Image_1_" xmlns="http://www.w3.org/2000/svg" xmlns:xlink="http://www.w3.org/1999/xlink" x="0px"
	 y="0px" width="140.16px" height="52.8px" viewBox="0 0 140.16 52.8" enable-background="new 0 0 140.16 52.8"
	 xml:space="preserve">
<g>
	<path fill-rule="evenodd" clip-rule="evenodd" fill="#FAFAFB" d="M24.58,10.554c2.01-0.016,3.137,1.071,3.779,2.723
		c0.938,2.413,1.807,4.853,2.7,7.284c1.842,5.011,3.68,10.023,5.521,15.035c0.317,0.862,0.631,1.726,0.708,2.649
		c0.111,1.321-0.747,2.604-1.957,2.957c-1.251,0.364-2.36-0.164-2.959-1.575c-0.7-1.648-1.31-3.337-1.902-5.027
		c-0.205-0.585-0.489-0.772-1.108-0.766c-3.078,0.035-6.157,0.039-9.234-0.002c-0.671-0.009-0.973,0.18-1.185,0.823
		c-0.549,1.664-1.133,3.319-1.798,4.939c-0.605,1.474-1.638,1.988-2.903,1.61c-1.294-0.386-2.178-1.817-1.924-3.202
		c0.115-0.625,0.307-1.24,0.52-1.839c2.606-7.32,5.217-14.638,7.844-21.95c0.241-0.671,0.548-1.33,0.911-1.943
		C22.276,11.115,23.326,10.546,24.58,10.554z M24.652,16.874c-1.312,4.083-2.526,7.884-3.759,11.68
		c-0.19,0.587-0.042,0.747,0.572,0.736c2.073-0.033,4.146-0.042,6.219,0.003c0.813,0.019,1.023-0.112,0.725-0.972
		c-1.016-2.928-1.943-5.887-2.904-8.834C25.249,18.704,24.994,17.921,24.652,16.874z"/>
	<path fill-rule="evenodd" clip-rule="evenodd" fill="#FAFAFB" d="M67.131,25.806c0,3.996,0.007,7.991-0.007,11.986
		c-0.002,0.636-0.042,1.283-0.166,1.905c-0.167,0.836-0.718,1.32-1.599,1.34c-0.89,0.02-1.425-0.486-1.658-1.285
		c-0.12-0.412-0.115-0.869-0.115-1.307c-0.007-5.238-0.008-10.477-0.002-15.715c0.002-2.005,0.557-2.551,2.564-2.571
		c3.071-0.032,3.147,0.018,3.878,2.979c0.854,3.462,1.691,6.929,2.763,10.414c0.534-2.147,1.067-4.295,1.603-6.442
		c0.444-1.78,0.905-3.556,1.334-5.339c0.263-1.094,0.923-1.575,2.046-1.619c3.676-0.145,4.054,0.199,4.054,3.882
		c0,4.519,0,9.038,0,13.556c0,0.279,0.003,0.56,0,0.84c-0.022,1.762-0.606,2.612-1.792,2.61c-1.166-0.001-1.771-0.873-1.774-2.628
		c-0.009-4.277-0.003-8.555-0.199-12.87c-0.5,2.145-0.996,4.289-1.5,6.433c-0.547,2.329-1.101,4.657-1.651,6.986
		c-0.269,1.138-0.801,2.014-2.115,2.078c-1.165,0.056-1.923-0.521-2.29-2.01c-0.983-3.988-1.89-7.995-2.829-11.995
		c-0.098-0.416-0.209-0.828-0.314-1.242C67.284,25.797,67.208,25.801,67.131,25.806z"/>
	<path fill-rule="evenodd" clip-rule="evenodd" fill="#FAFAFB" d="M109.678,33.88c0-3.824,0-7.648,0-11.473
		c0-0.56-0.002-1.115,0.218-1.652c0.29-0.71,0.794-1.08,1.562-1.074c0.766,0.006,1.311,0.378,1.544,1.096
		c0.146,0.449,0.229,0.939,0.229,1.411c0.016,5.359,0.03,10.719,0,16.078c-0.014,2.278-1.265,3.31-3.016,2.606
		c-0.838-0.336-1.298-1.043-1.732-1.76c-2.091-3.447-4.165-6.903-6.247-10.355c-0.328-0.544-0.662-1.084-1-1.636
		c-0.414,0.219-0.222,0.58-0.223,0.854c-0.017,3.319-0.01,6.639-0.012,9.959c0,0.359,0.015,0.723-0.022,1.079
		c-0.145,1.354-0.834,2.077-1.901,2.022c-0.993-0.052-1.647-0.804-1.653-2.114c-0.023-5.599-0.01-11.198-0.003-16.797
		c0.002-1.165,0.525-2.029,1.657-2.366c1.189-0.354,1.984,0.273,2.573,1.249c2.601,4.305,5.201,8.61,7.803,12.914
		C109.529,33.909,109.604,33.895,109.678,33.88z"/>
	<path fill-rule="evenodd" clip-rule="evenodd" fill="#FAFAFB" d="M89.665,12.981c4.281,0.13,7.039,3.068,6.778,7.265
		c-0.118,1.903-1.151,3.315-2.691,4.31c-0.762,0.493-0.992,0.788-0.332,1.57c0.646,0.764,0.342,1.404-0.662,1.402
		c-0.845-0.001-0.863,0.401-0.873,1.022c-0.05,3.198-0.128,6.396-0.189,9.593c-0.01,0.523-0.047,1.015-0.323,1.495
		c-0.946,1.645-1.55,1.739-2.753,0.289c-0.586-0.707-1.561-1.216-1.394-2.377c0.034-0.235-0.036-0.585,0.096-0.692
		c1.079-0.879,0.284-1.42-0.281-2.082c-0.577-0.677-0.522-1.441,0.173-2.003c0.749-0.605,0.911-1.131,0.059-1.743
		c-0.751-0.539-0.712-1.057,0.036-1.565c0.588-0.4,0.631-1.037,0.517-1.615c-0.135-0.681-0.781-0.335-1.197-0.392
		c-1.053-0.143-1.277-0.495-0.663-1.408c0.459-0.682,0.546-1.031-0.264-1.57c-2.524-1.683-3.482-4.453-2.607-7.095
		C84.016,14.597,86.567,12.888,89.665,12.981z M89.756,14.419c-0.816,0.067-1.319,0.507-1.321,1.292
		c-0.002,0.774,0.479,1.293,1.279,1.309c0.802,0.015,1.285-0.463,1.293-1.267C91.015,14.949,90.513,14.535,89.756,14.419z"/>
	<path fill-rule="evenodd" clip-rule="evenodd" fill="#FAFAFB" d="M42.663,30.48c0-2.516-0.012-5.032,0.004-7.547
		c0.014-2.219,0.572-2.771,2.752-2.773c1.757-0.003,3.515-0.026,5.271,0.01c3.724,0.076,6.251,1.919,7.402,5.484
		c1.035,3.203,1.023,6.454,0.003,9.654c-1.131,3.55-3.706,5.419-7.409,5.485c-1.917,0.034-3.834,0.031-5.75,0.001
		c-1.573-0.024-2.207-0.611-2.233-2.169c-0.045-2.714-0.012-5.43-0.012-8.146C42.682,30.48,42.673,30.48,42.663,30.48z
		 M46.508,30.484c0,1.157-0.034,2.315,0.009,3.471c0.042,1.138-0.52,2.698,0.225,3.296c0.709,0.569,2.207,0.19,3.356,0.17
		c2.212-0.039,3.465-0.935,4.195-3.057c0.812-2.361,0.827-4.776,0.246-7.187c-0.486-2.014-1.693-3.268-3.842-3.534
		c-1.117-0.139-2.231-0.047-3.343-0.125c-0.686-0.048-0.875,0.188-0.862,0.864C46.535,26.415,46.508,28.45,46.508,30.484z"/>
	<path fill-rule="evenodd" clip-rule="evenodd" fill="#E7E8EC" d="M109.315,20.075c-4.122-8.894-11.136-13.423-20.872-13.012
		c-8.802,0.372-15.083,4.913-18.705,13.071c-0.637-0.548-0.438-1.144-0.131-1.767c3.175-6.425,8.289-10.446,15.31-11.706
		c8.512-1.528,15.94,0.617,21.746,7.331c1.211,1.401,2.155,2.977,2.899,4.672C109.795,19.194,110.038,19.725,109.315,20.075z"/>
	<path fill-rule="evenodd" clip-rule="evenodd" fill="#E7E8EC" d="M89.845,47.063c-5.747,0.024-10.58-1.564-14.74-5.051
		c-0.248-0.207-0.896-0.373-0.493-0.876c0.412-0.516,0.769-0.02,1.097,0.242c9.486,7.564,22.676,6.326,30.454-2.838
		c0.152-0.18,0.191-0.885,0.722-0.414c0.393,0.349,0.18,0.701-0.104,1.04c-1.086,1.289-2.272,2.475-3.619,3.49
		C99.117,45.705,94.542,47.11,89.845,47.063z"/>
</g>
</svg>
