<?xml version="1.0" encoding="utf-8"?>
<!-- Generator: Adobe Illustrator 19.2.1, SVG Export Plug-In . SVG Version: 6.00 Build 0)  -->
<svg version="1.1" xmlns="http://www.w3.org/2000/svg" xmlns:xlink="http://www.w3.org/1999/xlink" x="0px" y="0px"
	 viewBox="0 0 139.6 53" style="enable-background:new 0 0 139.6 53;" xml:space="preserve">
<style type="text/css">
	.st0{fill:#FFFFFF;}
	.st1{fill:#050936;}
</style>
<title>Administration</title>
<g id="Calque_3">
	<rect x="1.4" y="1.4" class="st0" width="133.5" height="49.6"/>
</g>
<g id="admin_Image">
	<g>
		<path class="st1" d="M139.6,53c-23,0-46.5-0.1-69.5-0.1c-23,0-46.1,0-69.1,0c-0.8,0-1-0.1-1-1c0-17,0-34,0-51C0,0.1,0.2,0,0.9,0
			C47,0,93.5,0,139.6,0c0.5,0,0,3.6,0,4.3 M24.3,12.6c-1.2,0-2.4,0.6-3,1.7c-0.4,0.6-0.7,1.3-0.9,1.9c-2.6,7.3-5.2,14.5-7.8,21.8
			c-0.2,0.6-0.4,1.2-0.5,1.8c-0.2,1.4,0.6,2.7,1.9,3.2c1.3,0.4,2.3-0.1,2.9-1.6c0.6-1.5,1.3-3.2,1.8-4.9c0.1-0.5,0.6-0.9,1.1-0.8
			c0,0,0,0,0,0c3.1,0,6.2,0,9.2,0c0.5-0.1,1,0.3,1.1,0.8c0.6,1.7,1.2,3.3,1.9,5c0.4,1.2,1.7,1.9,2.9,1.6c0,0,0.1,0,0.1,0
			c1.3-0.4,2.1-1.6,2-3c-0.1-0.9-0.4-1.8-0.7-2.6l-5.5-14.9c-0.9-2.4-1.8-4.8-2.7-7.2C27.7,13.6,26.1,12.5,24.3,12.6z M66.9,27.7
			h0.2c0.1,0.4,0.2,0.8,0.3,1.2c0.9,4,1.8,7.9,2.8,11.9c0.4,1.5,1.1,2.1,2.3,2c1.1-0.1,2-0.9,2.1-2c0.6-2.3,1.1-4.6,1.7-6.9
			c0.5-2.1,1-4.2,1.5-6.4C78,31.7,78,36,78,40.2c0,1.7,0.6,2.6,1.8,2.6s1.8-0.8,1.8-2.6c0-0.3,0-0.6,0-0.8V25.9c0-3.6-0.4-4-4.1-3.8
			c-1,0-1.8,0.6-2,1.6c-0.4,1.8-0.9,3.5-1.3,5.3l-1.6,6.4c-1.1-3.4-1.9-6.9-2.8-10.3c-0.7-3-0.8-3-3.9-3c-2,0-2.6,0.6-2.6,2.5
			c0,5.2,0,10.4,0,15.6c0,0.4,0,0.9,0.1,1.3c0.1,0.8,0.8,1.3,1.6,1.3c0.8,0.1,1.5-0.5,1.6-1.3c0.1-0.6,0.2-1.3,0.2-1.9
			C66.9,35.6,66.9,31.6,66.9,27.7z M109.4,35.7h-0.2l-7.8-12.8c-0.4-1-1.5-1.5-2.6-1.2C97.8,22,97.1,23,97.2,24c0,5.5,0,11.1,0,16.6
			c0,1.3,0.7,2,1.7,2.1c1,0,1.8-0.7,1.9-2c0-0.4,0-0.7,0-1.1c0-3.3,0-6.6,0-9.9c0-0.3-0.2-0.6,0.2-0.8l1,1.6
			c2.1,3.4,4.2,6.8,6.3,10.3c0.4,0.8,1,1.4,1.7,1.7c1.8,0.7,3-0.3,3-2.6c0-5.3,0-10.6,0-15.9c0-0.5-0.1-0.9-0.2-1.4
			c-0.2-0.7-0.8-1.1-1.5-1.1c-0.7,0-1.3,0.4-1.6,1.1c-0.2,0.5-0.3,1.1-0.2,1.6L109.4,35.7L109.4,35.7z M89.4,15
			c-2.9-0.2-5.6,1.6-6.6,4.4c-0.9,2.7,0.2,5.6,2.6,7c0.8,0.5,0.7,0.9,0.3,1.6c-0.6,0.9-0.4,1.3,0.7,1.4c0.4,0.1,1.1-0.3,1.2,0.4
			c0.2,0.6,0,1.2-0.5,1.6c-0.8,0.5-0.8,1,0,1.6s0.7,1.1-0.1,1.7c-0.6,0.4-0.7,1.2-0.3,1.8c0.1,0.1,0.1,0.1,0.2,0.2
			c0.6,0.7,1.4,1.2,0.3,2.1C87,38.9,87,39.1,87,39.3c-0.2,1.1,0.8,1.7,1.4,2.4c1.2,1.4,1.8,1.3,2.8-0.3c0.2-0.5,0.3-1,0.3-1.5
			c0.1-3.2,0.1-6.3,0.2-9.5c0-0.6,0-1,0.9-1c1,0,1.3-0.6,0.7-1.4c-0.6-0.8-0.4-1.1,0.3-1.6c1.6-0.9,2.6-2.5,2.7-4.3
			C96.5,18,93.7,15.1,89.4,15z M42.4,32.3L42.4,32.3c0,2.7,0,5.4,0,8.1c0,1.5,0.7,2.1,2.2,2.1c1.9,0,3.8,0,5.8,0
			c3.5,0.1,6.5-2.1,7.4-5.4c1-3.1,1-6.5,0-9.6c-0.9-3.3-4-5.6-7.4-5.4c-1.8,0-3.5,0-5.3,0c-2.2,0-2.7,0.5-2.8,2.7
			C42.4,27.3,42.4,29.9,42.4,32.3L42.4,32.3z M109.1,22c0.7-0.3,0.5-0.9,0.3-1.4c-0.7-1.7-1.7-3.2-2.9-4.6
			c-5.8-6.6-13.2-8.8-21.8-7.3c-6.7,1.1-12.5,5.4-15.3,11.6c-0.4,0.5-0.4,1.3,0.1,1.8C73.1,14,79.4,9.5,88.2,9.1
			C97.9,8.7,105,13.2,109.1,22L109.1,22z M89.6,48.8c4.8,0.1,9.5-1.5,13.3-4.4c1.3-1,2.5-2.2,3.6-3.5c0.3-0.3,0.5-0.7,0.1-1
			c-0.4-0.3-0.6,0.2-0.7,0.4c-7.6,9.1-21.2,10.3-30.4,2.8c-0.3-0.3-0.7-0.8-1.1-0.2s0.3,0.7,0.5,0.9C79,47.2,84.3,49,89.6,48.8
			L89.6,48.8z"/>
		<path class="st1" d="M24.4,18.8l0.9,2.6c1,2.9,1.9,5.9,2.9,8.7c0.3,0.9,0.1,1-0.7,1c-2.1,0-4.1,0-6.2,0c-0.6,0-0.8-0.1-0.6-0.7
			C21.9,26.7,23.1,22.9,24.4,18.8z"/>
		<path class="st1" d="M46.3,32.3c0-2,0-4,0-6c0-0.7,0.2-0.9,0.9-0.9c1.1,0.1,2.2,0,3.3,0.1c1.9,0.1,3.5,1.6,3.8,3.5
			c0.6,2.3,0.5,4.8-0.3,7.1c-0.5,1.9-2.2,3.2-4.2,3c-1.2,0-2.7,0.4-3.4-0.2s-0.2-2.1-0.2-3.3S46.3,33.5,46.3,32.3z"/>
	</g>
</g>
<g id="Calque_2">
	<path class="st0" d="M89.4,15c-2.9-0.2-5.6,1.6-6.6,4.4c-0.9,2.7,0.2,5.6,2.6,7c0.8,0.5,0.7,0.9,0.3,1.6c-0.6,0.9-0.4,1.3,0.7,1.4
		c0.4,0.1,1.1-0.3,1.2,0.4c0.2,0.6,0,1.2-0.5,1.6c-0.8,0.5-0.8,1,0,1.6s0.7,1.1-0.1,1.7c-0.6,0.4-0.7,1.2-0.3,1.8
		c0.1,0.1,0.1,0.1,0.2,0.2c0.6,0.7,1.4,1.2,0.3,2.1C87,38.9,87,39.1,87,39.3c-0.2,1.1,0.8,1.7,1.4,2.4c1.2,1.4,1.8,1.3,2.8-0.3
		c0.2-0.5,0.3-1,0.3-1.5c0.1-3.2,0.1-6.3,0.2-9.5c0-0.6,0-1,0.9-1c1,0,1.3-0.6,0.7-1.4c-0.6-0.8-0.4-1.1,0.3-1.6
		c1.6-0.9,2.6-2.5,2.7-4.3C96.5,18,93.7,15.1,89.4,15z"/>
	<path class="st1" d="M89.5,16.4c0.7,0,1.3,0.6,1.2,1.3c0,0,0,0,0,0c0,0.6-0.4,1.2-1.1,1.2c-0.1,0-0.1,0-0.2,0
		c-0.7,0-1.2-0.5-1.3-1.1c0-0.1,0-0.1,0-0.2c0-0.7,0.5-1.2,1.2-1.3C89.5,16.4,89.5,16.4,89.5,16.4z"/>
</g>
</svg>
