<?xml version="1.0" encoding="utf-8"?>
<!-- Generator: Adobe Illustrator 19.2.1, SVG Export Plug-In . SVG Version: 6.00 Build 0)  -->
<svg version="1.1" xmlns="http://www.w3.org/2000/svg" xmlns:xlink="http://www.w3.org/1999/xlink" x="0px" y="0px"
	 viewBox="0 0 665.2 221.4" style="enable-background:new 0 0 665.2 221.4;" xml:space="preserve">
<style type="text/css">
	.st0{fill:#FFFFFF;}
	.st1{fill:#050937;}
</style>
<title>A Propos</title>
<g id="Calque_3">
	<rect x="3.9" y="7.6" class="st0" width="659" height="216"/>
</g>
<g id="Calque_1">
	<g>
		<path class="st1" d="M665.3,4.6c0,72-0.2,145.3-0.1,217.3c0.6,7.2-0.7,4.1-4.1,4.1c-220-0.1-441.1,0-661.1,0
			c0-71.3,0.1-150,0-221.3 M61.7,155.8c-0.1,5.8,3,9.9,7.2,10.7c4.8,0.9,7.6-1.5,9.2-5.8c2-5.4,4-10.7,5.7-16.2c0.9-2.8,2-4,5.2-4
			c9.8,0.2,19.6,0.2,29.5,0c2.8,0,4.1,0.8,5,3.6c1.8,5.8,3.9,11.4,6.2,17c1.7,4.2,4.9,6.3,9.6,5.2c4.4-1.2,7.3-5.3,7-9.8
			c-0.1-1.5-0.4-3-0.9-4.4c-9.8-26.8-19.5-53.6-29.3-80.4c-0.4-1.1-1-2.2-1.6-3.1c-2.7-4.4-6.7-6.4-11.8-6.1
			c-7.3,0.5-10.1,5.7-12.3,11.6c-9.1,25.3-18.1,50.6-27,75.9C62.6,152,62.1,153.9,61.7,155.8z M190.9,115.1c0,13.3,0,26.6,0,39.9
			c0,0.3,0,0.7,0,1c0.4,6.6,3.8,10.6,9,10.8c5.2,0.1,8.8-3.9,9.4-10.4c0.1-1.5,0.1-3,0.1-4.5c0-7.6,0.1-15.1-0.1-22.7
			c-0.1-2.9,0.8-3.7,3.7-3.7c7.8,0,15.7,0.6,23.4-0.8c10.2-1.8,18.1-6.7,21.9-16.9c2.4-6.9,2.9-14.3,1.3-21.4
			c-2.4-12.4-10.3-19.7-22.8-21.3c-10.9-1.4-22-0.5-32.9-0.6c-9.8-0.1-13,3.1-13,12.9C190.9,89.9,190.9,102.5,190.9,115.1z
			 M308.9,132.9c1.1-0.5,1.8-0.8,2.5-1.1c9.7-3.7,13.9-10.5,12.7-20.7c-1.1-8.9-7-15-16.7-15.7c-9.4-0.7-19-0.5-28.4-0.4
			c-4.5,0.1-6.5,3.1-6.6,7.4c-0.1,18.7-0.1,37.3,0,56c-0.1,2.1,0.6,4.1,2,5.6c1.6,1.8,4.2,2.5,6.4,1.6c3-1.2,4.3-3.6,4.4-6.7
			c0.1-6.9,0.2-13.8,0.1-20.7c-0.1-2.9,0.9-3.6,3.7-3.7c6.4-0.4,10.4,2.9,13.3,8.1c3.6,6.3,6.9,12.7,10.5,18.9
			c2,3.5,4.8,5.8,9.1,3.9c4.4-2,4-5.6,2.5-9.4C320.9,147.1,316.3,139.3,308.9,132.9L308.9,132.9z M462.5,129
			c0.1,5.4,0.9,10.8,2.5,15.9c4,12.7,14.2,20.5,27.5,21c14.3,0.5,24.8-6.3,29.7-19.2c3.4-9.1,3.7-18.4,1.9-27.8
			c-3-16.2-14-25.6-29.8-25.7c-16.3-0.1-27.3,8.9-30.5,25.4C463.2,122,463,125.5,462.5,129L462.5,129z M559.4,93.1
			c-3.3-0.1-6.6,0.4-9.8,1.5c-9.6,3-14.6,10.8-13.5,20.8c0.8,7.5,5.4,12.2,12.1,14.7c5.9,2.2,12.1,3.8,18,5.9
			c3.9,1.4,6.5,4.3,6.4,8.7c-0.1,4.4-2.5,7.2-6.3,8.9c-7.8,3.6-15.6,0.7-19-7.3c-0.5-1.1-0.8-2.2-1.3-3.3c-1.4-2.9-3.2-5.4-6.9-4.3
			s-4.7,4-4.3,7.5c0.7,6.1,4,11.6,9.2,15c7.9,5.3,16.6,5.7,25.4,3.2c9.8-2.7,15.5-10.2,15.9-20.2c0.4-10.3-3.8-16.5-14.4-20.4
			c-4.2-1.5-8.6-2.6-12.9-4c-2.2-0.6-4.4-1.5-6.4-2.7c-5-3.3-4.9-9.1,0.1-12.3c5.9-3.9,13.7-2.2,17.6,3.7c0.2,0.3,0.3,0.5,0.5,0.8
			c0.7,1.2,1.2,2.4,1.8,3.6c1.5,2.9,3.9,4.4,7,3.2s4.2-3.8,3.9-6.9c-0.4-4.6-2.8-8.2-6.3-11.1C571.5,94.4,565.9,93.1,559.4,93.1
			L559.4,93.1z M406.9,130.3c0,9.1,0,18.2,0,27.3c0,4.3,1.4,7.8,6.2,8.3c3.8,0.4,6.5-2.9,6.8-8.3s0.3-10.8,0-16.2
			c-0.2-3.7,1.1-4.5,4.5-4.4c6.5,0.2,13,0.6,19.2-1.8c8.7-3.4,13-11.6,11.7-22.6c-1.1-9.9-6.7-15.9-16-17.2
			c-7.8-1.1-15.6-0.4-23.4-0.5c-6.8-0.1-8.9,2.2-9,9.1C406.9,112.8,406.9,121.5,406.9,130.3z M289.4,156.7c-0.7,4-0.8,4.1,1.4,8.4
			c13.8,27.1,35.4,43,65.7,45.2c32.9,2.4,58.3-10.9,75.8-39.2c5-8.4,8.3-17.7,9.7-27.4c0.2-1,1.1-2.6-0.5-3
			c-1.9-0.5-1.9,1.4-2.1,2.6c-0.2,0.8-0.3,1.7-0.4,2.5c-6.9,31.3-26.6,51.2-56.3,60.2c-13.8,4-28.5,3.6-42.1-1.1
			c-14.9-4.8-28-13.8-37.9-26C297,172.2,293.8,164.1,289.4,156.7z M293.8,90c3.7,1.3,4.2-1.9,5.4-3.6c29.9-43.7,92.4-45,124.4-4.6
			c1.8,2.2,3.3,4.6,4.9,7c0.8,1.2,2,2.4,3.2,1.3c1.2-1.1-0.4-2.1-0.9-2.9c-14.8-22.8-35.8-35-62.6-36.9c-6.7-0.5-13.4,0.3-20.2,1.4
			c-16.1,2.5-29.3,9.9-40.9,20.9C301.8,77.5,297.3,83.4,293.8,90z M93.4,38.4c-2.8,0-4.6-0.1-6.5,0c-1.8,0.1-2.8,1-1.4,2.5
			c5.3,5.9,9.6,12.9,17.2,16.3c2.2,1,5.2,2,7,0c1.8-2-0.7-3.9-1.4-5.9c-0.5-1.4-1.4-2.7-1.9-4C103.9,40.7,99.9,36.8,93.4,38.4z"/>
		<path class="st1" d="M103.9,85.9c4.1,12.3,8.1,24.6,12.3,36.8c0.7,2,0.4,2.8-1.8,2.7c-7.3-0.1-14.7,0-22,0c-1.8,0-2.3-0.6-1.7-2.5
			c4.1-12.4,8.1-24.8,12.2-37.2L103.9,85.9z"/>
		<path class="st1" d="M209.4,94.7c0-4,0.1-8.1,0-12.1c-0.1-2.1,0.6-3,2.9-3c6,0.2,12-0.4,17.9,0.7c7.5,1.4,11.2,5.8,11.5,13.6
			c0.3,8.1-3.1,13.1-10.4,15c-6.4,1.7-12.9,1-19.4,1.2c-2.1,0.1-2.5-1-2.4-2.8C209.5,103.1,209.4,99,209.4,94.7z"/>
		<path class="st1" d="M285.4,114.9c0-9.3,0-9.3,9.1-9.2c3.2-0.1,6.3,0.1,9.5,0.5c4.8,0.8,7.2,3.9,7.3,8.7c0.1,4.8-2.2,7.6-6.6,8.7
			c-5.6,1.4-11.3,0.6-16.9,0.8c-1.8,0.1-2.3-0.9-2.3-2.5C285.4,119.7,285.4,117.3,285.4,114.9z"/>
		<path class="st1" d="M512.1,129.1c0,5.9-0.7,11.7-3.7,17c-3.2,5.7-8,8.9-14.6,8.9c-6,0.2-11.6-3.2-14.1-8.8
			c-5.4-11.2-5.5-22.7,0.1-33.9c3-5.9,8.3-8.6,14.8-8.3c6.8,0.3,11.5,3.9,14.5,10C511.2,118.7,512.3,123.9,512.1,129.1z"/>
		<path class="st1" d="M420,115.7c0-10.6,0-10.6,10.8-10c7.5,0.4,10.8,2.8,11.6,8.5c0.8,6.4-1.9,10.3-8.2,11.6
			c-0.8,0.2-1.6,0.3-2.5,0.4C420,127.5,420,127.5,420,115.7z"/>
	</g>
</g>
<g id="Calque_2">
	<path class="st0" d="M401.6,136.4c1.4-11.8-1-21.3-7.4-29.7c-1.3-1.6-2.5-3-4.9-2.9c-10.2,0.8-18,5.9-25.6,13.4
		C378.7,119.6,391.9,123.5,401.6,136.4L401.6,136.4z"/>
	<path class="st0" d="M341,157.3c0,0.5,0.1,0.9,0.3,1.4c8,6.6,18.3,9.6,28.5,8.3c1.3-0.2,2.5-0.9,3.4-1.9c5.4-6.3,6.8-21.2,2.7-28.9
		C358.3,153.6,354.9,155.7,341,157.3z"/>
	<path class="st0" d="M375,122.4c6,14.7,9,28.3,1.8,42.9c11.2-4.5,18.4-11.4,22.7-21.5c1-2,0.7-4.4-0.7-6.1
		C393.3,129.7,385.2,125.6,375,122.4L375,122.4z"/>
	<path class="st0" d="M353,94.3c-11,4.5-18,11.3-22.4,20.9c-0.9,1.8-0.8,4,0.3,5.7c5.1,9.2,13.4,13.4,23.9,16.4
		C349.1,123.1,345.5,109.5,353,94.3L353,94.3z"/>
	<path class="st0" d="M388.3,100.9c-8.1-6.6-18.6-9.5-28.9-8c-2.1,0.3-3,1.9-3.9,3.5c-5.1,8.8-4.5,18.1-2,28.5
		C362.8,112.9,372.4,103.3,388.3,100.9L388.3,100.9z"/>
	<path class="st0" d="M328.5,122.8c-1.6,11.3,0.4,20.3,6.1,28.5c0.7,1.2,1.7,2,3,2.5c7.6,2.3,23.5-4.4,27.3-11.8
		C350.8,140.3,337.7,136.5,328.5,122.8z"/>
</g>
</svg>
