<svg id="Calque_1" data-name="Calque 1" xmlns="http://www.w3.org/2000/svg" viewBox="0 0 665.19 221.35">
  <defs>
    <style>
      .cls-1, .cls-4 {
        fill: #050937;
      }

      .cls-2 {
        fill: #f9f9fa;
      }

      .cls-2, .cls-3, .cls-4 {
        fill-rule: evenodd;
      }

      .cls-3 {
        fill: #f6f6f7;
      }
    </style>
  </defs>
  <title>àpropos</title>
  <g>
    <path class="cls-1" d="M665.5,1.5q0,108,.1,216c0,3.42-.67,4.1-4.1,4.09q-330-.16-660-0.09,0-107-.12-214c0-5,1.18-6.13,6.16-6.13Q336.52,1.59,665.5,1.5ZM62.13,142.33c-0.1,5.72,3,9.84,7.22,10.64,4.78,0.9,7.59-1.53,9.15-5.77,2-5.31,4-10.58,5.67-16,0.86-2.79,2-4,5.16-3.92,9.81,0.23,19.64.19,29.46,0,2.81,0,4.1.81,5,3.53,1.83,5.7,3.94,11.31,6.22,16.84,1.71,4.16,4.94,6.24,9.58,5.18a9.43,9.43,0,0,0,7-9.74,16,16,0,0,0-.88-4.39Q131.06,98.9,116.38,59.11A17.45,17.45,0,0,0,114.73,56c-2.71-4.37-6.67-6.29-11.8-6-7.25.47-10.13,5.63-12.25,11.48q-13.58,37.54-27,75.13A57.52,57.52,0,0,0,62.13,142.33ZM191.39,102q0,19.73,0,39.46c0,0.33,0,.67,0,1,0.45,6.53,3.84,10.54,9,10.65s8.77-3.85,9.37-10.29c0.14-1.49.12-3,.12-4.49,0-7.49.13-15-.06-22.48-0.07-2.86.82-3.68,3.66-3.67,7.81,0,15.66.57,23.43-.81,10.17-1.8,18.11-6.59,21.87-16.71a38.67,38.67,0,0,0,1.31-21.18c-2.4-12.25-10.32-19.51-22.76-21.07-10.95-1.37-22-.51-32.94-0.64-9.76-.11-13,3.1-13,12.76C191.34,77,191.39,89.53,191.39,102Zm118,17.63c1.08-.47,1.8-0.84,2.55-1.12,9.74-3.63,13.91-10.37,12.68-20.51-1.07-8.77-7-14.85-16.7-15.58-9.44-.7-19-0.47-28.43-0.36-4.47.05-6.54,3.1-6.56,7.29q-0.13,27.72,0,55.44a7.47,7.47,0,0,0,2,5.52,5.73,5.73,0,0,0,6.4,1.56c3-1.16,4.33-3.57,4.37-6.65,0.1-6.83.23-13.66,0.07-20.48-0.07-2.86.91-3.52,3.66-3.69,6.4-.38,10.37,2.89,13.3,8,3.57,6.2,6.93,12.53,10.53,18.71,2,3.43,4.83,5.79,9.06,3.86,4.39-2,4-5.57,2.49-9.33C321.42,133.72,316.8,126,309.43,119.64Zm153.6-3.9a55.67,55.67,0,0,0,2.52,15.78c4,12.62,14.24,20.31,27.54,20.75,14.27,0.47,24.83-6.21,29.7-19,3.41-9,3.67-18.22,1.9-27.54-3-16-14-25.33-29.81-25.45-16.27-.13-27.27,8.86-30.52,25.12C463.67,108.78,463.46,112.28,463,115.74Zm96.84-35.51a30.47,30.47,0,0,0-9.8,1.46c-9.59,3-14.63,10.65-13.49,20.62,0.85,7.45,5.43,12.06,12.09,14.56,5.91,2.22,12.08,3.73,18,5.86,3.89,1.39,6.46,4.23,6.39,8.63s-2.5,7.12-6.27,8.86c-7.8,3.59-15.57.65-19-7.19-0.47-1.06-.8-2.2-1.3-3.25-1.38-2.87-3.18-5.35-6.86-4.3s-4.68,4-4.26,7.46a20.13,20.13,0,0,0,9.18,14.81c7.87,5.29,16.58,5.62,25.41,3.17,9.75-2.71,15.47-10.14,15.91-20,0.44-10.19-3.84-16.33-14.4-20.17-4.22-1.53-8.62-2.54-12.89-3.93a27.8,27.8,0,0,1-6.42-2.68c-5-3.22-4.89-9,.14-12.22a12.7,12.7,0,0,1,18.06,4.51c0.65,1.16,1.23,2.36,1.85,3.54,1.51,2.89,3.91,4.32,7,3.15s4.16-3.77,3.9-6.88c-0.39-4.59-2.77-8.14-6.28-11C572,81.45,566.4,80.2,559.87,80.23ZM407.42,117c0,9,0,18,0,27,0,4.22,1.37,7.69,6.17,8.23,3.82,0.43,6.55-2.84,6.75-8.19s0.32-10.67,0-16c-0.21-3.66,1.15-4.45,4.52-4.35,6.46,0.18,13,.62,19.24-1.8,8.7-3.37,13-11.5,11.71-22.42-1.13-9.77-6.71-15.7-16-17C432,81.41,424.2,82.07,416.39,82c-6.76-.06-8.89,2.15-9,9C407.33,99.7,407.4,108.35,407.42,117ZM289.87,143.2c-0.71,4-.83,4.07,1.38,8.36,13.77,26.81,35.37,42.58,65.67,44.78,32.85,2.39,58.26-10.8,75.75-38.8a71.24,71.24,0,0,0,9.7-27.11c0.16-1,1.13-2.61-.48-3-1.89-.48-1.87,1.37-2.14,2.62-0.17.81-.25,1.65-0.43,2.46-6.94,31-26.61,50.73-56.33,59.56a69.8,69.8,0,0,1-42.1-1.08A80.87,80.87,0,0,1,303,165.22C297.5,158.52,294.23,150.55,289.87,143.2Zm4.39-66.09c3.74,1.24,4.2-1.86,5.35-3.53C329.49,30.3,392,29,424,69c1.76,2.21,3.33,4.57,4.94,6.9,0.83,1.2,2,2.33,3.21,1.28s-0.39-2.05-.94-2.9c-14.75-22.61-35.78-34.66-62.56-36.54-6.7-.47-13.38.34-20.16,1.36-16.1,2.44-29.32,9.76-40.87,20.7A67.12,67.12,0,0,0,294.26,77.11Zm108,46c1.41-11.73-1-21.09-7.44-29.39-1.25-1.6-2.51-3-4.89-2.84-10.17.75-18,5.84-25.64,13.31C379.27,106.42,392.49,110.32,402.28,123.1ZM341.6,143.78a2.78,2.78,0,0,0,.32,1.35,37.59,37.59,0,0,0,28.47,8.24,5,5,0,0,0,3.35-1.92c5.38-6.25,6.82-21,2.74-28.66C358.9,140.15,355.52,142.18,341.6,143.78Zm34.05-34.52c6,14.52,9,28,1.82,42.5,11.17-4.45,18.36-11.3,22.66-21.27a5.58,5.58,0,0,0-.7-6C393.9,116.4,385.8,112.43,375.66,109.26Zm-22-27.82c-11,4.5-18,11.16-22.36,20.73a5.66,5.66,0,0,0,.34,5.63c5.11,9.06,13.44,13.27,23.94,16.27C349.69,109.89,346.16,96.42,353.66,81.43Zm35.29,6.45a37.4,37.4,0,0,0-28.86-7.95c-2.08.25-3,1.92-3.93,3.5-5.07,8.76-4.55,17.88-2,28.23C363.37,99.86,373,90.27,388.94,87.88ZM329.1,109.66c-1.57,11.16.41,20.11,6.08,28.22a5.65,5.65,0,0,0,3,2.44c7.57,2.29,23.46-4.39,27.3-11.66C351.42,126.94,338.34,123.22,329.1,109.66ZM93.85,26c-2.82,0-4.64-.05-6.46,0S84.57,27,86,28.52c5.34,5.8,9.6,12.82,17.19,16.17,2.24,1,5.15,2,7,0s-0.66-3.91-1.4-5.82c-0.54-1.39-1.37-2.66-1.89-4C104.42,28.33,100.38,24.42,93.85,26Z" transform="translate(-0.4 -0.24)"/>
    <path class="cls-2" d="M665.5,1.5q-329,0-658-.12c-5,0-6.17,1.09-6.16,6.13q0.28,107,.12,214c-1.6.34-1-.89-1-1.5Q0.49,111.5.44,3C0.44,0.85.85,0.05,3,.48a10.47,10.47,0,0,0,2,0q328,0,656,.06C662.46,0.56,664.39-.59,665.5,1.5Z" transform="translate(-0.4 -0.24)"/>
    <path class="cls-2" d="M62.13,142.33a57.52,57.52,0,0,1,1.52-5.64q13.47-37.58,27-75.13c2.12-5.85,5-11,12.25-11.48,5.12-.33,9.08,1.59,11.8,6a17.45,17.45,0,0,1,1.65,3.07q14.67,39.8,29.27,79.62a16,16,0,0,1,.88,4.39,9.43,9.43,0,0,1-7,9.74c-4.64,1.06-7.87-1-9.58-5.18-2.28-5.53-4.39-11.15-6.22-16.84-0.87-2.72-2.17-3.58-5-3.53-9.82.17-19.64,0.21-29.46,0-3.15-.07-4.3,1.13-5.16,3.92-1.67,5.4-3.72,10.67-5.67,16-1.56,4.24-4.37,6.67-9.15,5.77C65.11,152.16,62,148,62.13,142.33Zm42.25-69.21-1-.18c-4.05,12.3-8.08,24.6-12.19,36.88-0.62,1.86-.08,2.43,1.71,2.43,7.33,0,14.66,0,22,0,2.21,0,2.44-.75,1.77-2.71C112.49,97.43,108.45,85.26,104.37,73.12Z" transform="translate(-0.4 -0.24)"/>
    <path class="cls-2" d="M191.39,102c0-12.49-.06-25,0-37.47,0.05-9.66,3.27-12.87,13-12.76,11,0.13,22-.74,32.94.64,12.44,1.56,20.36,8.81,22.76,21.07a38.67,38.67,0,0,1-1.31,21.18c-3.76,10.12-11.7,14.9-21.87,16.71-7.77,1.38-15.61.86-23.43,0.81-2.84,0-3.73.81-3.66,3.67,0.19,7.49.07,15,.06,22.48,0,1.5,0,3-.12,4.49-0.6,6.44-4.23,10.39-9.37,10.29s-8.55-4.12-9-10.65c0-.33,0-0.66,0-1Q191.39,121.75,191.39,102Zm18.53-20.19c0,4.16,0,8.32,0,12.49,0,1.78.39,2.87,2.45,2.82,6.48-.16,13,0.52,19.38-1.15,7.32-1.92,10.75-6.89,10.43-14.89-0.3-7.69-4-12-11.5-13.45-5.94-1.12-12-.54-17.93-0.74-2.22-.08-2.91.85-2.85,3C210,73.84,209.92,77.83,209.92,81.83Z" transform="translate(-0.4 -0.24)"/>
    <path class="cls-3" d="M309.43,119.64c7.37,6.31,12,14.08,15.4,22.65,1.49,3.76,1.9,7.32-2.49,9.33-4.23,1.94-7.06-.42-9.06-3.86-3.6-6.18-7-12.51-10.53-18.71-2.92-5.08-6.9-8.35-13.3-8-2.75.16-3.73,0.83-3.66,3.69,0.16,6.82,0,13.65-.07,20.48,0,3.08-1.36,5.49-4.37,6.65a5.73,5.73,0,0,1-6.4-1.56,7.47,7.47,0,0,1-2-5.52q-0.08-27.72,0-55.44c0-4.19,2.09-7.24,6.56-7.29,9.48-.11,19-0.34,28.43.36,9.69,0.72,15.63,6.8,16.7,15.58,1.23,10.14-2.93,16.87-12.68,20.51C311.23,118.81,310.51,119.17,309.43,119.64Zm-23.59-17.8c0,2.33,0,4.67,0,7,0,1.62.49,2.55,2.26,2.49,5.64-.18,11.34.59,16.92-0.83,4.48-1.13,6.75-4,6.64-8.66s-2.5-7.89-7.29-8.63a64.25,64.25,0,0,0-9.45-.52C285.85,92.63,285.85,92.67,285.84,101.84Z" transform="translate(-0.4 -0.24)"/>
    <path class="cls-3" d="M463,115.74c0.43-3.46.64-7,1.33-10.37,3.26-16.26,14.26-25.25,30.52-25.12,15.8,0.12,26.77,9.43,29.81,25.45,1.77,9.32,1.5,18.59-1.9,27.54-4.87,12.81-15.42,19.5-29.7,19-13.3-.44-23.54-8.13-27.54-20.75A55.67,55.67,0,0,1,463,115.74Zm49.53,0.13a33.66,33.66,0,0,0-3-15c-2.92-6-7.7-9.56-14.46-9.88-6.55-.31-11.86,2.4-14.82,8.25-5.61,11.08-5.53,22.5-.12,33.6a14.88,14.88,0,0,0,14.09,8.7c6.6,0,11.4-3.12,14.61-8.77C511.85,127.51,512.55,121.76,512.56,115.87Z" transform="translate(-0.4 -0.24)"/>
    <path class="cls-3" d="M559.87,80.23c6.54,0,12.14,1.22,16.92,5.05,3.51,2.82,5.89,6.37,6.28,11,0.26,3.11-1,5.77-3.9,6.88s-5.49-.27-7-3.15c-0.62-1.18-1.2-2.38-1.85-3.54a12.7,12.7,0,0,0-18.06-4.51c-5,3.26-5.17,9-.14,12.22a27.8,27.8,0,0,0,6.42,2.68c4.27,1.39,8.68,2.4,12.89,3.93,10.56,3.84,14.85,10,14.4,20.17-0.43,9.87-6.15,17.3-15.91,20-8.83,2.45-17.54,2.12-25.41-3.17A20.13,20.13,0,0,1,535.34,133c-0.41-3.51.58-6.41,4.26-7.46s5.49,1.44,6.86,4.3c0.5,1,.83,2.18,1.3,3.25,3.48,7.84,11.24,10.78,19,7.19,3.77-1.74,6.2-4.58,6.27-8.86s-2.5-7.25-6.39-8.63c-5.95-2.12-12.12-3.63-18-5.86-6.66-2.51-11.23-7.12-12.09-14.56-1.14-10,3.89-17.64,13.49-20.62A30.47,30.47,0,0,1,559.87,80.23Z" transform="translate(-0.4 -0.24)"/>
    <path class="cls-3" d="M407.41,117c0-8.66-.08-17.31,0-26,0.07-6.88,2.2-9.09,9-9,7.81,0.07,15.64-.6,23.43.48,9.31,1.28,14.89,7.22,16,17,1.27,10.92-3,19.05-11.71,22.42-6.25,2.42-12.78,2-19.24,1.8-3.37-.09-4.73.69-4.52,4.35,0.31,5.31.2,10.65,0,16s-2.93,8.62-6.75,8.19c-4.8-.54-6.15-4-6.17-8.23C407.38,135,407.42,126,407.41,117Zm13-14.42c0,11.71,0,11.71,11.67,10.42,0.82-.09,1.64-0.26,2.46-0.42,6.29-1.28,9.06-5.16,8.22-11.47-0.75-5.64-4.06-8.05-11.58-8.44C420.45,92.12,420.45,92.12,420.45,102.59Z" transform="translate(-0.4 -0.24)"/>
    <path class="cls-3" d="M289.87,143.2c4.36,7.35,7.63,15.32,13.14,22A80.87,80.87,0,0,0,340.89,191a69.8,69.8,0,0,0,42.1,1.08c29.72-8.83,49.39-28.51,56.33-59.56,0.18-.81.26-1.65,0.43-2.46,0.27-1.25.25-3.1,2.14-2.62,1.61,0.41.64,2,.48,3a71.24,71.24,0,0,1-9.7,27.11c-17.49,28-42.9,41.18-75.75,38.8-30.3-2.2-51.9-18-65.67-44.78C289,147.27,289.17,147.2,289.87,143.2Z" transform="translate(-0.4 -0.24)"/>
    <path class="cls-3" d="M294.26,77.11a67.12,67.12,0,0,1,13.41-17.27c11.55-10.94,24.76-18.26,40.87-20.7,6.77-1,13.46-1.84,20.16-1.36,26.78,1.89,47.81,13.93,62.56,36.54,0.55,0.84,2.18,1.86.94,2.9s-2.39-.08-3.21-1.28c-1.6-2.33-3.17-4.69-4.94-6.9C392,29,329.49,30.3,299.61,73.58,298.46,75.25,298,78.35,294.26,77.11Z" transform="translate(-0.4 -0.24)"/>
    <path class="cls-3" d="M402.28,123.1c-9.79-12.78-23-16.68-38-18.92C372,96.71,379.78,91.62,390,90.87c2.38-.18,3.64,1.24,4.89,2.84C401.3,102,403.69,111.38,402.28,123.1Z" transform="translate(-0.4 -0.24)"/>
    <path class="cls-3" d="M341.6,143.78c13.92-1.6,17.29-3.63,34.87-21,4.08,7.65,2.64,22.41-2.74,28.66a5,5,0,0,1-3.35,1.92,37.59,37.59,0,0,1-28.47-8.24A2.78,2.78,0,0,1,341.6,143.78Z" transform="translate(-0.4 -0.24)"/>
    <path class="cls-3" d="M375.66,109.26c10.14,3.17,18.25,7.15,23.79,15.25a5.58,5.58,0,0,1,.7,6c-4.31,10-11.49,16.82-22.66,21.27C384.66,137.21,381.66,123.78,375.66,109.26Z" transform="translate(-0.4 -0.24)"/>
    <path class="cls-3" d="M353.66,81.43c-7.49,15-4,28.46,1.93,42.63-10.5-3-18.83-7.21-23.94-16.27a5.66,5.66,0,0,1-.34-5.63C335.62,92.59,342.61,85.93,353.66,81.43Z" transform="translate(-0.4 -0.24)"/>
    <path class="cls-3" d="M388.94,87.88c-15.91,2.39-25.57,12-34.78,23.78-2.57-10.35-3.08-19.47,2-28.23,0.92-1.58,1.86-3.25,3.93-3.5A37.4,37.4,0,0,1,388.94,87.88Z" transform="translate(-0.4 -0.24)"/>
    <path class="cls-3" d="M329.1,109.66c9.24,13.56,22.32,17.28,36.4,19-3.84,7.27-19.73,14-27.3,11.66a5.65,5.65,0,0,1-3-2.44C329.51,129.77,327.52,120.82,329.1,109.66Z" transform="translate(-0.4 -0.24)"/>
    <path class="cls-3" d="M93.85,26c6.53-1.63,10.57,2.28,13,8.79,0.52,1.39,1.36,2.66,1.89,4,0.74,1.91,3.15,3.94,1.4,5.82s-4.78,1-7,0C95.55,41.33,91.29,34.32,86,28.52c-1.38-1.5-.24-2.39,1.44-2.45S91,26,93.85,26Z" transform="translate(-0.4 -0.24)"/>
    <path class="cls-4" d="M104.37,73.12c4.08,12.15,8.12,24.31,12.27,36.43,0.67,2,.44,2.73-1.77,2.71-7.33-.06-14.66,0-22,0-1.78,0-2.33-.57-1.71-2.43,4.11-12.27,8.14-24.58,12.19-36.88Z" transform="translate(-0.4 -0.24)"/>
    <path class="cls-4" d="M209.92,81.83c0-4,.07-8,0-12-0.05-2.1.63-3,2.85-3,6,0.21,12-.38,17.93.74,7.48,1.41,11.2,5.77,11.5,13.45,0.31,8-3.11,13-10.43,14.89-6.37,1.67-12.91,1-19.38,1.15-2.07.05-2.48-1-2.45-2.82C210,90.15,209.92,86,209.92,81.83Z" transform="translate(-0.4 -0.24)"/>
    <path class="cls-4" d="M285.85,101.84c0-9.17,0-9.21,9.06-9.15a64.25,64.25,0,0,1,9.45.52c4.79,0.75,7.17,3.85,7.29,8.63s-2.16,7.52-6.64,8.66c-5.58,1.41-11.27.64-16.92,0.83-1.77.06-2.3-.87-2.26-2.49C285.89,106.51,285.84,104.18,285.85,101.84Z" transform="translate(-0.4 -0.24)"/>
    <path class="cls-4" d="M512.56,115.88c0,5.88-.72,11.63-3.68,16.86-3.21,5.66-8,8.78-14.61,8.77a14.88,14.88,0,0,1-14.09-8.7c-5.4-11.1-5.49-22.52.12-33.6,3-5.85,8.27-8.56,14.82-8.25,6.76,0.32,11.54,3.87,14.46,9.88A33.72,33.72,0,0,1,512.56,115.88Z" transform="translate(-0.4 -0.24)"/>
    <path class="cls-4" d="M420.45,102.59c0-10.47,0-10.47,10.77-9.91,7.52,0.39,10.84,2.8,11.58,8.44,0.84,6.31-1.94,10.19-8.22,11.47-0.81.17-1.63,0.33-2.46,0.42C420.45,114.3,420.45,114.3,420.45,102.59Z" transform="translate(-0.4 -0.24)"/>
  </g>
</svg>
