<?xml version="1.0" encoding="utf-8"?>
<!-- Generator: Adobe Illustrator 16.0.0, SVG Export Plug-In . SVG Version: 6.00 Build 0)  -->
<!DOCTYPE svg PUBLIC "-//W3C//DTD SVG 1.1//EN" "http://www.w3.org/Graphics/SVG/1.1/DTD/svg11.dtd">
<svg version="1.1" id="Calque_1" xmlns="http://www.w3.org/2000/svg" xmlns:xlink="http://www.w3.org/1999/xlink" x="0px" y="0px"
	 width="664px" height="220px" viewBox="0 0 664 220" enable-background="new 0 0 664 220" xml:space="preserve">
<g>
	<path fill-rule="evenodd" clip-rule="evenodd" fill="#F9F9FA" d="M62.129,142.325c0.309-1.171,0.737-3.47,1.516-5.643
		c8.977-25.056,17.985-50.101,27.041-75.128c2.117-5.852,5-11.012,12.249-11.48c5.124-0.332,9.081,1.588,11.796,5.963
		c0.612,0.987,1.249,1.992,1.647,3.073c9.783,26.531,19.545,53.07,29.266,79.624c0.508,1.387,0.786,2.909,0.883,4.387
		c0.295,4.486-2.758,8.78-6.957,9.737c-4.643,1.059-7.867-1.021-9.579-5.183c-2.276-5.533-4.391-11.148-6.217-16.844
		c-0.872-2.72-2.166-3.575-4.977-3.525c-9.817,0.172-19.642,0.213-29.456-0.019c-3.152-0.074-4.298,1.134-5.162,3.924
		c-1.67,5.396-3.723,10.675-5.674,15.98c-1.56,4.242-4.37,6.672-9.154,5.77C65.113,152.162,62.034,148.042,62.129,142.325z
		 M104.374,73.116c-0.338-0.06-0.677-0.118-1.016-0.178c-4.053,12.296-8.076,24.602-12.189,36.876
		c-0.623,1.858-0.075,2.433,1.707,2.429c7.332-0.016,14.665-0.044,21.996,0.017c2.212,0.018,2.441-0.745,1.769-2.71
		C112.49,97.427,108.451,85.265,104.374,73.116z"/>
	<path fill-rule="evenodd" clip-rule="evenodd" fill="#F9F9FA" d="M191.392,102.017c-0.003-12.488-0.055-24.978,0.014-37.466
		c0.054-9.657,3.27-12.869,13.028-12.756c10.98,0.127,21.988-0.735,32.936,0.639c12.437,1.562,20.361,8.814,22.761,21.069
		c1.394,7.119,1.248,14.287-1.311,21.185c-3.757,10.123-11.699,14.904-21.868,16.709c-7.77,1.378-15.614,0.855-23.428,0.812
		c-2.84-0.016-3.73,0.806-3.66,3.666c0.185,7.489,0.069,14.985,0.058,22.479c-0.002,1.498,0.015,3.003-0.123,4.491
		c-0.599,6.438-4.233,10.395-9.373,10.287c-5.155-0.107-8.55-4.125-8.997-10.651c-0.023-0.332-0.033-0.665-0.033-0.998
		C191.394,128.326,191.395,115.172,191.392,102.017z M209.925,81.828c0,4.162,0.048,8.324-0.023,12.485
		c-0.03,1.781,0.385,2.867,2.451,2.816c6.477-0.157,13.013,0.518,19.384-1.152c7.32-1.92,10.746-6.895,10.434-14.888
		c-0.3-7.686-4.019-12.044-11.496-13.454c-5.942-1.121-11.955-0.536-17.935-0.742c-2.221-0.077-2.908,0.847-2.853,2.95
		C209.99,73.836,209.917,77.833,209.925,81.828z"/>
	<path fill-rule="evenodd" clip-rule="evenodd" fill="#F6F6F7" d="M309.432,119.643c7.37,6.311,11.991,14.075,15.397,22.652
		c1.494,3.761,1.903,7.321-2.491,9.331c-4.233,1.937-7.064-0.425-9.064-3.858c-3.602-6.184-6.96-12.508-10.529-18.711
		c-2.925-5.083-6.897-8.354-13.298-7.973c-2.75,0.164-3.729,0.826-3.663,3.688c0.16,6.822,0.034,13.652-0.066,20.479
		c-0.045,3.078-1.359,5.49-4.373,6.646c-2.453,0.94-4.604,0.196-6.399-1.56c-1.523-1.49-1.977-3.521-1.982-5.519
		c-0.053-18.481-0.077-36.963,0.006-55.444c0.019-4.189,2.087-7.241,6.558-7.292c9.479-0.108,18.998-0.341,28.435,0.362
		c9.693,0.721,15.632,6.803,16.699,15.575c1.232,10.142-2.935,16.874-12.678,20.508
		C311.232,118.807,310.511,119.168,309.432,119.643z M285.845,101.843c0,2.333,0.047,4.667-0.017,6.999
		c-0.044,1.62,0.49,2.549,2.257,2.492c5.645-0.184,11.337,0.588,16.918-0.825c4.479-1.135,6.754-3.955,6.642-8.657
		c-0.113-4.786-2.497-7.886-7.287-8.635c-3.102-0.484-6.294-0.499-9.447-0.521C285.846,92.634,285.846,92.674,285.845,101.843z"/>
	<path fill-rule="evenodd" clip-rule="evenodd" fill="#F6F6F7" d="M463.028,115.742c0.43-3.46,0.643-6.963,1.325-10.373
		c3.258-16.258,14.257-25.251,30.524-25.122c15.802,0.124,26.774,9.426,29.812,25.452c1.767,9.32,1.502,18.586-1.903,27.544
		c-4.871,12.813-15.424,19.5-29.698,19.028c-13.304-0.439-23.542-8.128-27.544-20.745
		C463.922,126.409,463.14,121.157,463.028,115.742z M512.559,115.873c0.01-5.209-0.679-10.305-2.977-15.033
		c-2.92-6.008-7.701-9.562-14.459-9.881c-6.554-0.31-11.858,2.398-14.822,8.249c-5.614,11.083-5.528,22.498-0.124,33.603
		c2.722,5.595,7.648,8.687,14.094,8.696c6.597,0.01,11.402-3.118,14.61-8.773C511.846,127.506,512.549,121.761,512.559,115.873z"/>
	<path fill-rule="evenodd" clip-rule="evenodd" fill="#F6F6F7" d="M559.865,80.231c6.536-0.033,12.141,1.219,16.92,5.052
		c3.513,2.817,5.895,6.366,6.283,10.958c0.264,3.111-0.955,5.767-3.897,6.882c-3.083,1.169-5.488-0.266-6.998-3.152
		c-0.617-1.181-1.201-2.379-1.851-3.541c-3.625-6.489-11.856-8.537-18.063-4.508c-5.024,3.262-5.174,8.996-0.137,12.218
		c1.927,1.231,4.214,1.968,6.417,2.684c4.272,1.389,8.677,2.396,12.893,3.931c10.562,3.842,14.846,9.983,14.401,20.17
		c-0.431,9.87-6.15,17.305-15.905,20.011c-8.833,2.451-17.543,2.12-25.412-3.171c-5.201-3.497-8.426-8.458-9.178-14.813
		c-0.415-3.512,0.576-6.415,4.265-7.465s5.486,1.438,6.864,4.304c0.504,1.048,0.828,2.181,1.3,3.245
		c3.479,7.843,11.24,10.783,19.044,7.192c3.774-1.737,6.195-4.581,6.27-8.857c0.076-4.4-2.501-7.246-6.389-8.634
		c-5.947-2.124-12.119-3.634-18.024-5.858c-6.656-2.508-11.233-7.115-12.087-14.564c-1.142-9.97,3.895-17.636,13.489-20.621
		C553.431,80.646,556.881,80.131,559.865,80.231z"/>
	<path fill-rule="evenodd" clip-rule="evenodd" fill="#F6F6F7" d="M407.408,117.01c-0.007-8.656-0.075-17.314,0.015-25.97
		c0.072-6.882,2.202-9.094,8.966-9.035c7.81,0.066,15.641-0.596,23.428,0.479c9.309,1.284,14.89,7.22,16.023,16.986
		c1.268,10.922-3.012,19.055-11.713,22.423c-6.254,2.421-12.783,1.981-19.244,1.801c-3.369-0.095-4.733,0.693-4.521,4.352
		c0.309,5.308,0.195,10.654-0.012,15.975c-0.207,5.346-2.931,8.619-6.753,8.19c-4.8-0.538-6.146-4.013-6.168-8.231
		C407.384,134.99,407.415,126,407.408,117.01z M420.446,102.592c0,11.708,0.001,11.712,11.675,10.418
		c0.824-0.091,1.642-0.258,2.455-0.424c6.285-1.282,9.059-5.155,8.224-11.47c-0.746-5.637-4.062-8.053-11.584-8.439
		C420.446,92.123,420.446,92.123,420.446,102.592z"/>
	<path fill-rule="evenodd" clip-rule="evenodd" fill="#F6F6F7" d="M289.871,143.197c4.363,7.35,7.633,15.319,13.144,22.024
		c10.126,12.321,22.753,20.701,37.872,25.746c14.01,4.676,28.59,5.094,42.1,1.083c29.722-8.825,49.391-28.514,56.334-59.557
		c0.182-0.812,0.259-1.646,0.433-2.46c0.268-1.253,0.249-3.101,2.14-2.622c1.605,0.406,0.638,2.004,0.48,3.019
		c-1.502,9.65-4.527,18.826-9.703,27.109c-17.488,27.993-42.901,41.183-75.753,38.797c-30.296-2.199-51.897-17.976-65.671-44.784
		C289.044,147.267,289.165,147.204,289.871,143.197z"/>
	<path fill-rule="evenodd" clip-rule="evenodd" fill="#F6F6F7" d="M294.259,77.11c3.524-6.629,8.107-12.244,13.41-17.268
		c11.551-10.944,24.764-18.262,40.866-20.701c6.771-1.026,13.457-1.836,20.155-1.364c26.78,1.889,47.812,13.933,62.562,36.545
		c0.549,0.841,2.177,1.863,0.938,2.896c-1.258,1.048-2.386-0.078-3.213-1.28c-1.603-2.329-3.175-4.691-4.937-6.897
		c-32.011-40.077-94.551-38.738-124.43,4.543C298.455,75.254,298,78.346,294.259,77.11z"/>
	<path fill-rule="evenodd" clip-rule="evenodd" fill="#F6F6F7" d="M402.282,123.101c-9.791-12.78-23.014-16.678-37.969-18.916
		c7.649-7.473,15.466-12.562,25.638-13.312c2.383-0.176,3.644,1.236,4.893,2.841C401.297,102.006,403.69,111.375,402.282,123.101z"
		/>
	<path fill-rule="evenodd" clip-rule="evenodd" fill="#F6F6F7" d="M341.605,143.778c13.919-1.598,17.292-3.633,34.875-20.986
		c4.082,7.646,2.645,22.408-2.735,28.662c-0.922,1.071-1.933,1.771-3.348,1.92c-10.613,1.119-20.13-1.563-28.475-8.242
		C341.64,144.905,341.704,144.246,341.605,143.778z"/>
	<path fill-rule="evenodd" clip-rule="evenodd" fill="#F6F6F7" d="M375.659,109.258c10.139,3.171,18.245,7.146,23.786,15.253
		c1.339,1.959,1.688,3.691,0.699,5.979c-4.307,9.963-11.488,16.819-22.663,21.266C384.656,137.209,381.659,123.78,375.659,109.258z"
		/>
	<path fill-rule="evenodd" clip-rule="evenodd" fill="#F6F6F7" d="M353.657,81.434c-7.494,14.986-3.971,28.457,1.927,42.626
		c-10.505-2.996-18.831-7.205-23.941-16.269c-1.062-1.883-1.278-3.557-0.343-5.628C335.618,92.593,342.614,85.931,353.657,81.434z"
		/>
	<path fill-rule="evenodd" clip-rule="evenodd" fill="#F6F6F7" d="M388.945,87.882c-15.905,2.387-25.574,11.981-34.776,23.784
		c-2.565-10.347-3.08-19.467,1.987-28.228c0.916-1.584,1.855-3.254,3.932-3.504C370.345,78.699,379.713,80.766,388.945,87.882z"/>
	<path fill-rule="evenodd" clip-rule="evenodd" fill="#F6F6F7" d="M329.097,109.661c9.242,13.56,22.318,17.28,36.399,19.005
		c-3.842,7.271-19.73,13.953-27.298,11.661c-1.39-0.421-2.255-1.342-3.023-2.442C329.507,129.77,327.525,120.823,329.097,109.661z"
		/>
	<path fill-rule="evenodd" clip-rule="evenodd" fill="#F6F6F7" d="M93.851,26.05c6.531-1.63,10.567,2.284,13.014,8.788
		c0.523,1.39,1.355,2.662,1.893,4.048c0.74,1.908,3.154,3.939,1.396,5.821c-1.866,1.997-4.775,0.974-7.013-0.017
		c-7.588-3.357-11.849-10.372-17.189-16.173c-1.378-1.497-0.238-2.387,1.438-2.452C89.208,25.995,91.033,26.05,93.851,26.05z"/>
</g>
</svg>
