<?xml version="1.0" encoding="utf-8"?>
<!-- Generator: Adobe Illustrator 21.0.0, SVG Export Plug-In . SVG Version: 6.00 Build 0)  -->
<svg version="1.1" id="Calque_1" xmlns="http://www.w3.org/2000/svg" xmlns:xlink="http://www.w3.org/1999/xlink" x="0px" y="0px"
	 viewBox="0 0 664 220" style="enable-background:new 0 0 664 220;" xml:space="preserve">
<style type="text/css">
	.st0{fill:#333;}
	.st1{fill:#888;}
</style>
<g>
	<path class="st0" d="M43.3,157.5c0.3-1.2,0.7-3.5,1.5-5.6c9-25.1,18-50.1,27-75.1c2.1-5.9,5-11,12.2-11.5c5.1-0.3,9.1,1.6,11.8,6
		c0.6,1,1.2,2,1.6,3.1c9.8,26.5,19.5,53.1,29.3,79.6c0.5,1.4,0.8,2.9,0.9,4.4c0.3,4.5-2.8,8.8-7,9.7c-4.6,1.1-7.9-1-9.6-5.2
		c-2.3-5.5-4.4-11.1-6.2-16.8c-0.9-2.7-2.2-3.6-5-3.5c-9.8,0.2-19.6,0.2-29.5,0c-3.2-0.1-4.3,1.1-5.2,3.9c-1.7,5.4-3.7,10.7-5.7,16
		c-1.6,4.2-4.4,6.7-9.2,5.8C46.3,167.3,43.2,163.2,43.3,157.5z M85.6,88.3c-0.3-0.1-0.7-0.1-1-0.2c-4.1,12.3-8.1,24.6-12.2,36.9
		c-0.6,1.9-0.1,2.4,1.7,2.4c7.3,0,14.7,0,22,0c2.2,0,2.4-0.7,1.8-2.7C93.7,112.6,89.7,100.4,85.6,88.3z"/>
	<path class="st0" d="M172.6,117.2c0-12.5-0.1-25,0-37.5c0.1-9.7,3.3-12.9,13-12.8c11,0.1,22-0.7,32.9,0.6
		c12.4,1.6,20.4,8.8,22.8,21.1c1.4,7.1,1.2,14.3-1.3,21.2c-3.8,10.1-11.7,14.9-21.9,16.7c-7.8,1.4-15.6,0.9-23.4,0.8
		c-2.8,0-3.7,0.8-3.7,3.7c0.2,7.5,0.1,15,0.1,22.5c0,1.5,0,3-0.1,4.5c-0.6,6.4-4.2,10.4-9.4,10.3c-5.2-0.1-8.6-4.1-9-10.7
		c0-0.3,0-0.7,0-1C172.6,143.5,172.6,130.3,172.6,117.2z M191.1,97c0,4.2,0,8.3,0,12.5c0,1.8,0.4,2.9,2.5,2.8
		c6.5-0.2,13,0.5,19.4-1.2c7.3-1.9,10.7-6.9,10.4-14.9c-0.3-7.7-4-12-11.5-13.5c-5.9-1.1-12-0.5-17.9-0.7c-2.2-0.1-2.9,0.8-2.9,2.9
		C191.2,89,191.1,93,191.1,97z"/>
	<path class="st0" d="M290.6,134.8c7.4,6.3,12,14.1,15.4,22.7c1.5,3.8,1.9,7.3-2.5,9.3c-4.2,1.9-7.1-0.4-9.1-3.9
		c-3.6-6.2-7-12.5-10.5-18.7c-2.9-5.1-6.9-8.4-13.3-8c-2.8,0.2-3.7,0.8-3.7,3.7c0.2,6.8,0,13.7-0.1,20.5c0,3.1-1.4,5.5-4.4,6.6
		c-2.5,0.9-4.6,0.2-6.4-1.6c-1.5-1.5-2-3.5-2-5.5c-0.1-18.5-0.1-37,0-55.4c0-4.2,2.1-7.2,6.6-7.3c9.5-0.1,19-0.3,28.4,0.4
		c9.7,0.7,15.6,6.8,16.7,15.6c1.2,10.1-2.9,16.9-12.7,20.5C292.4,133.9,291.7,134.3,290.6,134.8z M267,117c0,2.3,0,4.7,0,7
		c0,1.6,0.5,2.5,2.3,2.5c5.6-0.2,11.3,0.6,16.9-0.8c4.5-1.1,6.8-4,6.6-8.7c-0.1-4.8-2.5-7.9-7.3-8.6c-3.1-0.5-6.3-0.5-9.4-0.5
		C267,107.8,267,107.8,267,117z"/>
	<path class="st0" d="M444.2,130.9c0.4-3.5,0.6-7,1.3-10.4c3.3-16.3,14.3-25.3,30.5-25.1c15.8,0.1,26.8,9.4,29.8,25.5
		c1.8,9.3,1.5,18.6-1.9,27.5c-4.9,12.8-15.4,19.5-29.7,19c-13.3-0.4-23.5-8.1-27.5-20.7C445.1,141.6,444.3,136.3,444.2,130.9z
		 M493.8,131c0-5.2-0.7-10.3-3-15c-2.9-6-7.7-9.6-14.5-9.9c-6.6-0.3-11.9,2.4-14.8,8.2c-5.6,11.1-5.5,22.5-0.1,33.6
		c2.7,5.6,7.6,8.7,14.1,8.7c6.6,0,11.4-3.1,14.6-8.8C493,142.6,493.8,136.9,493.8,131z"/>
	<path class="st0" d="M541.1,95.4c6.5,0,12.1,1.2,16.9,5.1c3.5,2.8,5.9,6.4,6.3,11c0.3,3.1-1,5.8-3.9,6.9c-3.1,1.2-5.5-0.3-7-3.2
		c-0.6-1.2-1.2-2.4-1.9-3.5c-3.6-6.5-11.9-8.5-18.1-4.5c-5,3.3-5.2,9-0.1,12.2c1.9,1.2,4.2,2,6.4,2.7c4.3,1.4,8.7,2.4,12.9,3.9
		c10.6,3.8,14.8,10,14.4,20.2c-0.4,9.9-6.2,17.3-15.9,20c-8.8,2.5-17.5,2.1-25.4-3.2c-5.2-3.5-8.4-8.5-9.2-14.8
		c-0.4-3.5,0.6-6.4,4.3-7.5c3.7-1.1,5.5,1.4,6.9,4.3c0.5,1,0.8,2.2,1.3,3.2c3.5,7.8,11.2,10.8,19,7.2c3.8-1.7,6.2-4.6,6.3-8.9
		c0.1-4.4-2.5-7.2-6.4-8.6c-5.9-2.1-12.1-3.6-18-5.9c-6.7-2.5-11.2-7.1-12.1-14.6c-1.1-10,3.9-17.6,13.5-20.6
		C534.6,95.8,538.1,95.3,541.1,95.4z"/>
	<path class="st0" d="M388.6,132.2c0-8.7-0.1-17.3,0-26c0.1-6.9,2.2-9.1,9-9c7.8,0.1,15.6-0.6,23.4,0.5c9.3,1.3,14.9,7.2,16,17
		c1.3,10.9-3,19.1-11.7,22.4c-6.3,2.4-12.8,2-19.2,1.8c-3.4-0.1-4.7,0.7-4.5,4.4c0.3,5.3,0.2,10.7,0,16c-0.2,5.3-2.9,8.6-6.8,8.2
		c-4.8-0.5-6.1-4-6.2-8.2C388.6,150.1,388.6,141.1,388.6,132.2z M401.6,117.7c0,11.7,0,11.7,11.7,10.4c0.8-0.1,1.6-0.3,2.5-0.4
		c6.3-1.3,9.1-5.2,8.2-11.5c-0.7-5.6-4.1-8.1-11.6-8.4C401.6,107.3,401.6,107.3,401.6,117.7z"/>
	<path class="st1" d="M271.1,158.3c4.4,7.4,7.6,15.3,13.1,22c10.1,12.3,22.8,20.7,37.9,25.7c14,4.7,28.6,5.1,42.1,1.1
		c29.7-8.8,49.4-28.5,56.3-59.6c0.2-0.8,0.3-1.6,0.4-2.5c0.3-1.3,0.2-3.1,2.1-2.6c1.6,0.4,0.6,2,0.5,3c-1.5,9.6-4.5,18.8-9.7,27.1
		c-17.5,28-42.9,41.2-75.8,38.8c-30.3-2.2-51.9-18-65.7-44.8C270.2,162.4,270.4,162.3,271.1,158.3z"/>
	<path class="st1" d="M275.5,92.3c3.5-6.6,8.1-12.2,13.4-17.3c11.6-10.9,24.8-18.3,40.9-20.7c6.8-1,13.5-1.8,20.2-1.4
		c26.8,1.9,47.8,13.9,62.6,36.5c0.5,0.8,2.2,1.9,0.9,2.9c-1.3,1-2.4-0.1-3.2-1.3c-1.6-2.3-3.2-4.7-4.9-6.9
		c-32-40.1-94.6-38.7-124.4,4.5C279.7,90.4,279.2,93.5,275.5,92.3z"/>
	<g id="Aperture">
		<path class="st1" d="M383.5,138.2c-9.8-12.8-23-16.7-38-18.9c7.6-7.5,15.5-12.6,25.6-13.3c2.4-0.2,3.6,1.2,4.9,2.8
			C382.5,117.1,384.9,126.5,383.5,138.2z"/>
		<path class="st1" d="M322.8,158.9c13.9-1.6,17.3-3.6,34.9-21c4.1,7.6,2.6,22.4-2.7,28.7c-0.9,1.1-1.9,1.8-3.3,1.9
			c-10.6,1.1-20.1-1.6-28.5-8.2C322.8,160,322.9,159.4,322.8,158.9z"/>
		<path class="st1" d="M356.9,124.4c10.1,3.2,18.2,7.1,23.8,15.3c1.3,2,1.7,3.7,0.7,6c-4.3,10-11.5,16.8-22.7,21.3
			C365.9,152.4,362.9,138.9,356.9,124.4z"/>
		<path class="st1" d="M334.9,96.6c-7.5,15-4,28.5,1.9,42.6c-10.5-3-18.8-7.2-23.9-16.3c-1.1-1.9-1.3-3.6-0.3-5.6
			C316.8,107.7,323.8,101.1,334.9,96.6z"/>
		<path class="st1" d="M370.1,103c-15.9,2.4-25.6,12-34.8,23.8c-2.6-10.3-3.1-19.5,2-28.2c0.9-1.6,1.9-3.3,3.9-3.5
			C351.5,93.8,360.9,95.9,370.1,103z"/>
		<path class="st1" d="M310.3,124.8c9.2,13.6,22.3,17.3,36.4,19c-3.8,7.3-19.7,14-27.3,11.7c-1.4-0.4-2.3-1.3-3-2.4
			C310.7,144.9,308.7,136,310.3,124.8z"/>
	</g>
	<path class="st0" d="M75.1,41.2c6.5-1.6,10.6,2.3,13,8.8c0.5,1.4,1.4,2.7,1.9,4c0.7,1.9,3.2,3.9,1.4,5.8c-1.9,2-4.8,1-7,0
		c-7.6-3.4-11.8-10.4-17.2-16.2c-1.4-1.5-0.2-2.4,1.4-2.5C70.4,41.1,72.2,41.2,75.1,41.2z"/>
</g>
</svg>
