<svg id="Calque_2_Image" data-name="Calque 2 Image" xmlns="http://www.w3.org/2000/svg" viewBox="0 0 192.24 47.76">
  <defs>
    <style>
      .cls-1 {
        fill: #040836;
      }

      .cls-2 {
        fill: #fcfcfc;
      }

      .cls-10, .cls-11, .cls-12, .cls-13, .cls-14, .cls-2, .cls-3, .cls-4, .cls-5, .cls-6, .cls-7, .cls-8, .cls-9 {
        fill-rule: evenodd;
      }

      .cls-3 {
        fill: #f6f6f8;
      }

      .cls-4 {
        fill: #fefefe;
      }

      .cls-5 {
        fill: #f9f9fa;
      }

      .cls-6 {
        fill: #f8f8f9;
      }

      .cls-7 {
        fill: #f5f5f7;
      }

      .cls-8 {
        fill: #000027;
      }

      .cls-9 {
        fill: #c3c4ce;
      }

      .cls-10 {
        fill: #dfdfe4;
      }

      .cls-11 {
        fill: #696a85;
      }

      .cls-12 {
        fill: #cdced7;
      }

      .cls-13 {
        fill: #060936;
      }

      .cls-14 {
        fill: #10133e;
      }

      .cls-15 {
        fill: #fbfbfb;
      }
    </style>
  </defs>
  <title>ctn</title>
  <g>
    <path class="cls-1" d="M0,47.76C0,15.76.24,32,.24,0h192V47.76H0ZM74.16,43c0,0.18-.12.46,0.24,0.48a0.46,0.46,0,0,0,.08.19c1,0.1,2.05.22,3.08,0.28a24.58,24.58,0,0,0,2.49,0c0.84,0,1.67-.15,2.51-0.23l0.24-.24V7.27c0-.36,0-0.72,0-1.08A0.57,0.57,0,0,0,82.56,6c0-.33-0.25-0.24-0.43-0.24H75l-0.32.48V27.36c0,1.08.07,2.16,0,3.23s0.38,2.15.26,3.25H74.53a17.78,17.78,0,0,0-.79-2.06c-0.28-.86-0.76-1.6-1.07-2.42s-0.74-1.68-1.15-2.51A2,2,0,0,0,71,26.4,1.73,1.73,0,0,0,71,26q-4.63-9.32-9.28-18.63C61.44,6.86,61.15,6.42,60.9,6H56.58c-0.17,0-.42-0.08-0.42.24H55.72c-0.17,4.55-.1,36.35.08,37.44h0.36c0,0.33.26,0.24,0.43,0.24h3.53a3.81,3.81,0,0,0,.71-0.72c2.17-4.06,4.69-7.93,6.85-12h0.39a1.69,1.69,0,0,0,.09.31q2.68,5.35,5.38,10.7A0.94,0.94,0,0,0,74.16,43Zm-34-32.13V43.44c0.67,0,1.3,0,1.94,0a15.7,15.7,0,0,0,1.89,0V10.3H53V6.57L52.7,6.26H45ZM27.55,6.53a9.53,9.53,0,0,0-3.66-.77c-1.08,0-2.16,0-3.24,0a8.1,8.1,0,0,0-1.9.33,16,16,0,0,0-5.6,3,14.38,14.38,0,0,0-3.3,4.14,22.38,22.38,0,0,0-2,5.05,48.26,48.26,0,0,0-.87,5,23,23,0,0,0,0,3.11c0,1,.43,2,0.25,3a0.17,0.17,0,0,0,0,.12c0.46,0.48.12,1.12,0.33,1.66s0.21,1.11.4,1.63A22.45,22.45,0,0,0,9.3,36.1l3.26-2.89a2.1,2.1,0,0,1-.31-0.53,13.52,13.52,0,0,1-.73-3.18,2.5,2.5,0,0,1-.24-1.58,9.81,9.81,0,0,1-.25-1.7c0.13-1.36-.21-2.75.25-4.1a6.32,6.32,0,0,1,.3-2.53,13,13,0,0,1,.61-2,17.86,17.86,0,0,1,.92-2A10,10,0,0,1,22,9.84c0.36,0,.72,0,1.08,0a8.9,8.9,0,0,1,3.16.49c0.42,0.13.81,0.32,1.28,0.51V6.53ZM10.8,38.76c0.58,0.58,1.07,1.1,1.6,1.59a11.55,11.55,0,0,0,2,1.63,12.85,12.85,0,0,0,6.85,1.93,10.28,10.28,0,0,0,3.14-.21,15.55,15.55,0,0,1,1.92-.28A9.78,9.78,0,0,0,27.6,43c0-.78,0-1.46,0-2.13a14.66,14.66,0,0,0-.05-2,9,9,0,0,1-2.09.75,27.8,27.8,0,0,1-3.25.3,11.29,11.29,0,0,1-5.29-1.43,11,11,0,0,1-2.72-2.33,1.23,1.23,0,0,0-.57-0.59l-2.83,2.6v0.65ZM37.19,10.29l3.56-3.4c0.08-.08.2-0.1,0.28-0.18a5.3,5.3,0,0,0,.36-0.44H31.28L31,6.56v3.73h6.19Z"/>
    <path class="cls-2" d="M67.68,31.2c-2.17,4.07-4.68,7.93-6.85,12a3.81,3.81,0,0,1-.71.72H56.59c-0.17,0-.43.09-0.43-0.24V6.24L56.4,6.48v37c0.63,0,1.19,0,1.74,0a8.32,8.32,0,0,0,1.62-.05V6H60.9c0.25,0.42.54,0.86,0.78,1.32Q66.32,16.64,71,26a1.73,1.73,0,0,1,.09.44l-0.24.24-0.28-.35c-0.58,1-1,2-1.65,2.84a2.39,2.39,0,0,0-.47,1.59H67.68V31.2Z"/>
    <path class="cls-3" d="M40.12,10.83L45,6.26H52.7L53,6.57V10.3H44V43.4a15.7,15.7,0,0,1-1.89,0c-0.63,0-1.27,0-1.94,0V10.83Z"/>
    <path class="cls-4" d="M82.56,43.68c-0.84.08-1.67,0.19-2.51,0.23a24.58,24.58,0,0,1-2.49,0c-1-.06-2.06-0.17-3.08-0.28a0.46,0.46,0,0,1-.08-0.19h4.08v-37a1.7,1.7,0,0,1,.84-0.25c0.94,0,1.88,0,2.82,0,0.17,0,.42.08,0.42-0.24a0.57,0.57,0,0,1,.23.19c0,0.36,0,.72,0,1.08V43.44Z"/>
    <path class="cls-5" d="M27.55,6.53v4.31c-0.47-.19-0.86-0.39-1.28-0.51a8.9,8.9,0,0,0-3.16-.49c-0.36,0-.72,0-1.08,0a10,10,0,0,0-8.92,5.74,17.86,17.86,0,0,0-.92,2,13,13,0,0,0-.61,2,6.32,6.32,0,0,0-.3,2.53c-0.46,1.34-.12,2.73-0.25,4.1a9.81,9.81,0,0,0,.25,1.7,2.5,2.5,0,0,0,.24,1.58,13.52,13.52,0,0,0,.73,3.18,2.1,2.1,0,0,0,.31.53L9.3,36.1a22.45,22.45,0,0,1-1.37-3.28c-0.19-.52-0.2-1.11-0.4-1.63S7.66,30,7.2,29.53a0.17,0.17,0,0,1,0-.12c0.18-1-.28-2-0.25-3a23,23,0,0,1,0-3.11,48.26,48.26,0,0,1,.87-5,22.38,22.38,0,0,1,2-5.05,14.38,14.38,0,0,1,3.3-4.14,16,16,0,0,1,5.6-3,8.1,8.1,0,0,1,1.9-.33c1.08-.05,2.16,0,3.24,0A9.53,9.53,0,0,1,27.55,6.53Z"/>
    <path class="cls-6" d="M10.8,38.76V38.11l2.83-2.6a1.23,1.23,0,0,1,.57.59,11,11,0,0,0,2.72,2.33,11.29,11.29,0,0,0,5.29,1.43,27.8,27.8,0,0,0,3.25-.3,9,9,0,0,0,2.09-.75,14.66,14.66,0,0,1,.05,2c0,0.68,0,1.35,0,2.13a9.78,9.78,0,0,1-1.33.47,15.55,15.55,0,0,0-1.92.28,10.28,10.28,0,0,1-3.14.21A12.85,12.85,0,0,1,14.35,42a11.55,11.55,0,0,1-2-1.63C11.87,39.86,11.38,39.34,10.8,38.76Z"/>
    <path class="cls-7" d="M37.19,10.29H31V6.56l0.29-.29H41.39a5.3,5.3,0,0,1-.36.44c-0.08.08-.2,0.1-0.28,0.18Z"/>
    <path class="cls-8" d="M56.16,6.24V43.68H55.8c-0.18-1.09-.26-32.89-0.08-37.44h0.44Z"/>
    <path class="cls-9" d="M70.8,26.64L71,26.4a2,2,0,0,1,.47.45c0.41,0.82.82,1.65,1.15,2.51s0.79,1.57,1.07,2.42a17.78,17.78,0,0,1,.79,2.06h0.11l0.08,0.46,0.16,0V33.84c0.12-1.1-.35-2.14-0.26-3.25s0-2.15,0-3.23h0.48c-0.12,2.72.43,5.43,0.24,8.15a1,1,0,0,0,0,.24,0.42,0.42,0,0,0,.08.2c0.35,0.39.06,0.81,0.18,1.24l-0.39,0-0.35-.86c-0.24-.58-0.52-1.14-0.71-1.74-0.68-2.07-1.72-4-2.52-6A8.32,8.32,0,0,1,70.8,26.64Z"/>
    <path class="cls-4" d="M75.12,27.36H74.64V6.24l0.48,0.24V27.36Z"/>
    <path class="cls-10" d="M67.68,31.2V30.72H68.4a0.42,0.42,0,0,1,.2.09c1.14,2.35,2.26,4.71,3.4,7.06,0.79,1.62,1.6,3.24,2.4,4.85L74.16,43a0.94,0.94,0,0,1-.62-0.75q-2.7-5.34-5.38-10.7a1.69,1.69,0,0,1-.09-0.31H67.68Z"/>
    <path class="cls-9" d="M75.12,6.48l-0.48-.24L75,5.76h7.17c0.17,0,.42-0.09.43,0.24s-0.25.24-.42,0.24c-0.94,0-1.88,0-2.82,0a1.7,1.7,0,0,0-.84.25H75.12Z"/>
    <path class="cls-4" d="M74.16,43l0.24-.24v0.72C74,43.42,74.2,43.14,74.16,43Z"/>
    <path class="cls-11" d="M74.88,33.84v0.44l-0.16,0-0.08-.46h0.24Z"/>
    <path class="cls-12" d="M82.56,43.68l0.24-.24Z"/>
    <path class="cls-13" d="M74.4,43.44V42.72c-0.8-1.62-1.61-3.23-2.4-4.85-1.14-2.35-2.27-4.71-3.4-7.06a0.42,0.42,0,0,0-.2-0.09,2.39,2.39,0,0,1,.47-1.59c0.6-.87,1.07-1.83,1.65-2.84l0.28,0.35a8.32,8.32,0,0,0,.84,1.92c0.81,2,1.85,3.94,2.52,6,0.19,0.59.47,1.16,0.71,1.74l0.35,0.86,0.39,0c-0.12-.43.17-0.85-0.18-1.24a0.42,0.42,0,0,1-.08-0.2,1,1,0,0,1,0-.24c0.18-2.73-.36-5.43-0.24-8.15V6.48h3.36v37H74.4Z"/>
    <path class="cls-14" d="M56.4,6.48h3.36v36.9a8.32,8.32,0,0,1-1.62.05c-0.55,0-1.11,0-1.74,0v-37Z"/>
  </g>
  <g>
    <path class="cls-15" d="M92.28,42.72a3.08,3.08,0,0,1-1.39.33,2.11,2.11,0,0,1-1.8-.84,4.13,4.13,0,0,1-.63-2.49,5.56,5.56,0,0,1,.17-1.44,3.36,3.36,0,0,1,.49-1.1,2.26,2.26,0,0,1,.78-0.69,2.13,2.13,0,0,1,1-.24,3.05,3.05,0,0,1,.71.08,2.66,2.66,0,0,1,.63.24v0.89a2.57,2.57,0,0,0-.62-0.3A2.26,2.26,0,0,0,91,37a1.42,1.42,0,0,0-.7.18,1.54,1.54,0,0,0-.53.51,2.59,2.59,0,0,0-.34.81,4.62,4.62,0,0,0-.12,1.1,3.55,3.55,0,0,0,.44,1.95,1.43,1.43,0,0,0,1.28.66,2.32,2.32,0,0,0,.68-0.1,2.85,2.85,0,0,0,.63-0.28v0.85Z"/>
    <path class="cls-15" d="M95.63,43h-2.2V38.31h2.2v0.53H94v1.44h1.61v0.53H94v1.6h1.67V43Z"/>
    <path class="cls-15" d="M99.15,43H98.46l-1.13-2.9L97,39.13V43H96.52V38.31h0.68l1.07,2.75,0.39,1.06V38.31h0.49V43Z"/>
    <path class="cls-15" d="M102.57,38.85h-1.14V43h-0.53V38.85H99.75V38.31h2.82v0.54Z"/>
    <path class="cls-15" d="M105.93,43h-0.59l-0.58-1.49a1.76,1.76,0,0,0-.13-0.28,0.72,0.72,0,0,0-.15-0.18,0.48,0.48,0,0,0-.17-0.09,0.7,0.7,0,0,0-.21,0h-0.25V43h-0.53V38.31h1a1.69,1.69,0,0,1,.58.09,1,1,0,0,1,.4.25,1,1,0,0,1,.23.39,1.62,1.62,0,0,1,.07.5,1.56,1.56,0,0,1-.05.41,1.2,1.2,0,0,1-.16.35,1.11,1.11,0,0,1-.26.27,1.09,1.09,0,0,1-.36.17,0.62,0.62,0,0,1,.28.24,2.67,2.67,0,0,1,.23.45Zm-0.84-3.37A0.74,0.74,0,0,0,104.9,39a0.76,0.76,0,0,0-.55-0.19h-0.5v1.54h0.43a1,1,0,0,0,.33-0.05,0.66,0.66,0,0,0,.42-0.4A0.92,0.92,0,0,0,105.09,39.59Z"/>
    <path class="cls-15" d="M109.45,43h-0.57l-0.27-1H107l-0.27,1h-0.55l1.28-4.65h0.72Zm-1-1.58-0.65-2.49-0.65,2.49h1.31Z"/>
    <path class="cls-15" d="M112.39,43h-2.22V38.31h0.54v4.11h1.69V43Z"/>
    <path class="cls-15" d="M115.6,43h-2.2V38.31h2.2v0.53h-1.67v1.44h1.61v0.53h-1.61v1.6h1.67V43Z"/>
    <path class="cls-15" d="M122.91,37.09h-1.63V43h-0.76V37.09h-1.63V36.32h4v0.77Z"/>
    <path class="cls-15" d="M126.07,43h-2.2V38.31h2.2v0.53H124.4v1.44H126v0.53H124.4v1.6h1.67V43Z"/>
    <path class="cls-15" d="M129.52,43h-2.22V38.31h0.54v4.11h1.69V43Z"/>
    <path class="cls-15" d="M132.73,43h-2.2V38.31h2.2v0.53h-1.67v1.44h1.61v0.53h-1.61v1.6h1.67V43Z"/>
    <path class="cls-15" d="M136.58,38.31L135.27,43h-0.71l-1.28-4.65h0.59l0.83,3.14,0.24,0.92,0.24-.92L136,38.31h0.56Z"/>
    <path class="cls-15" d="M138,38.85H137.1V38.31h2.31v0.53h-0.89v3.58h0.89V43H137.1V42.42H138V38.85Z"/>
    <path class="cls-15" d="M142.87,41.7a1.41,1.41,0,0,1-.11.58,1.14,1.14,0,0,1-.31.41,1.35,1.35,0,0,1-.48.25,2.25,2.25,0,0,1-.62.08H141l-0.29,0-0.26,0-0.22-.06V42.26a2.35,2.35,0,0,0,.5.16,3.12,3.12,0,0,0,.63.06,1.68,1.68,0,0,0,.43,0,0.76,0.76,0,0,0,.29-0.14,0.56,0.56,0,0,0,.17-0.23,0.87,0.87,0,0,0,.05-0.31,0.57,0.57,0,0,0-.09-0.32,0.93,0.93,0,0,0-.23-0.24,2,2,0,0,0-.32-0.19l-0.37-.18-0.37-.2a1.51,1.51,0,0,1-.32-0.26,1.12,1.12,0,0,1-.32-0.82,1.4,1.4,0,0,1,.08-0.47,1.14,1.14,0,0,1,.26-0.41,1.29,1.29,0,0,1,.45-0.29,1.74,1.74,0,0,1,.65-0.11h0.21l0.23,0,0.23,0,0.21,0.05V39a3.13,3.13,0,0,0-.46-0.12,2.48,2.48,0,0,0-.44,0,1,1,0,0,0-.67.18,0.61,0.61,0,0,0-.21.49,0.58,0.58,0,0,0,.09.32,1,1,0,0,0,.23.24,1.91,1.91,0,0,0,.32.19l0.37,0.18,0.37,0.2a1.53,1.53,0,0,1,.32.26A1.17,1.17,0,0,1,142.87,41.7Z"/>
    <path class="cls-15" d="M144.65,38.85h-0.89V38.31h2.31v0.53h-0.89v3.58h0.89V43h-2.31V42.42h0.89V38.85Z"/>
    <path class="cls-15" d="M149.75,40.61a4.19,4.19,0,0,1-.12,1.08,2.4,2.4,0,0,1-.33.75,1.36,1.36,0,0,1-.49.44,1.33,1.33,0,0,1-1.24,0,1.3,1.3,0,0,1-.46-0.47,2.39,2.39,0,0,1-.27-0.75,5.08,5.08,0,0,1-.09-1,4.2,4.2,0,0,1,.12-1.07,2.35,2.35,0,0,1,.33-0.75,1.38,1.38,0,0,1,.49-0.44,1.32,1.32,0,0,1,1.24,0,1.33,1.33,0,0,1,.46.47,2.34,2.34,0,0,1,.27.74A4.87,4.87,0,0,1,149.75,40.61Zm-0.55,0a5,5,0,0,0-.05-0.75,2.18,2.18,0,0,0-.17-0.59,1,1,0,0,0-.3-0.38,0.71,0.71,0,0,0-.44-0.14,0.66,0.66,0,0,0-.43.14,1.08,1.08,0,0,0-.29.39,2.28,2.28,0,0,0-.17.58,4.29,4.29,0,0,0-.06.71,4.93,4.93,0,0,0,.05.75,2.23,2.23,0,0,0,.17.58,1,1,0,0,0,.29.38,0.7,0.7,0,0,0,.43.14,0.67,0.67,0,0,0,.43-0.14,1.08,1.08,0,0,0,.3-0.39,2.2,2.2,0,0,0,.17-0.58A4.27,4.27,0,0,0,149.2,40.65Z"/>
    <path class="cls-15" d="M152.89,43H152.2l-1.13-2.9-0.33-.93V43h-0.49V38.31h0.68L152,41.06l0.39,1.06V38.31h0.49V43Z"/>
    <path class="cls-15" d="M159.88,43h-1l-1.61-4.14-0.46-1.33V43h-0.7V36.32h1l1.53,3.93,0.55,1.52V36.32h0.7V43Z"/>
    <path class="cls-15" d="M163.17,43H161V38.31h2.2v0.53H161.5v1.44h1.61v0.53H161.5v1.6h1.67V43Z"/>
    <path class="cls-15" d="M166.78,38.85h-1.14V43H165.1V38.85H164V38.31h2.82v0.54Z"/>
    <path class="cls-15" d="M170.23,38.31L170,43h-0.68l-0.48-1.65-0.13-.53-0.14.57L168.09,43h-0.66l-0.27-4.65h0.5l0.15,3.16,0,0.87,0.19-.74,0.47-1.73h0.36l0.54,1.85,0.18,0.61V41.7l0.15-3.39h0.47Z"/>
    <path class="cls-15" d="M173.53,40.61a4.19,4.19,0,0,1-.12,1.08,2.4,2.4,0,0,1-.33.75,1.36,1.36,0,0,1-.49.44,1.33,1.33,0,0,1-1.24,0,1.3,1.3,0,0,1-.46-0.47,2.39,2.39,0,0,1-.27-0.75,5.08,5.08,0,0,1-.09-1,4.2,4.2,0,0,1,.12-1.07,2.35,2.35,0,0,1,.33-0.75,1.38,1.38,0,0,1,.49-0.44,1.32,1.32,0,0,1,1.24,0,1.33,1.33,0,0,1,.46.47,2.34,2.34,0,0,1,.27.74A4.87,4.87,0,0,1,173.53,40.61Zm-0.55,0a5,5,0,0,0-.05-0.75,2.18,2.18,0,0,0-.17-0.59,1,1,0,0,0-.3-0.38A0.71,0.71,0,0,0,172,38.8a0.66,0.66,0,0,0-.43.14,1.08,1.08,0,0,0-.29.39,2.28,2.28,0,0,0-.17.58,4.29,4.29,0,0,0-.06.71,4.93,4.93,0,0,0,.05.75,2.23,2.23,0,0,0,.17.58,1,1,0,0,0,.29.38,0.7,0.7,0,0,0,.43.14,0.67,0.67,0,0,0,.43-0.14,1.08,1.08,0,0,0,.3-0.39,2.2,2.2,0,0,0,.17-0.58A4.27,4.27,0,0,0,173,40.65Z"/>
    <path class="cls-15" d="M176.8,43h-0.59l-0.58-1.49a1.76,1.76,0,0,0-.13-0.28,0.72,0.72,0,0,0-.15-0.18,0.48,0.48,0,0,0-.17-0.09,0.7,0.7,0,0,0-.21,0h-0.25V43h-0.53V38.31h1a1.69,1.69,0,0,1,.58.09,1,1,0,0,1,.4.25,1,1,0,0,1,.23.39,1.62,1.62,0,0,1,.07.5,1.56,1.56,0,0,1-.05.41,1.2,1.2,0,0,1-.16.35,1.11,1.11,0,0,1-.26.27,1.09,1.09,0,0,1-.36.17A0.62,0.62,0,0,1,176,41a2.67,2.67,0,0,1,.23.45ZM176,39.59a0.74,0.74,0,0,0-.19-0.56,0.76,0.76,0,0,0-.55-0.19h-0.5v1.54h0.43a1,1,0,0,0,.33-0.05,0.66,0.66,0,0,0,.42-0.4A0.92,0.92,0,0,0,176,39.59Z"/>
    <path class="cls-15" d="M180.12,43h-0.66L178,40.68V43h-0.53V38.31H178v2.16l1.42-2.16H180l-1.53,2.21Z"/>
  </g>
</svg>
