<?xml version="1.0" encoding="utf-8"?>
<!-- Generator: Adobe Illustrator 16.0.0, SVG Export Plug-In . SVG Version: 6.00 Build 0)  -->
<!DOCTYPE svg PUBLIC "-//W3C//DTD SVG 1.1//EN" "http://www.w3.org/Graphics/SVG/1.1/DTD/svg11.dtd">
<svg version="1.1" id="Calque_1" xmlns="http://www.w3.org/2000/svg" xmlns:xlink="http://www.w3.org/1999/xlink" x="0px" y="0px"
	 width="595.28px" height="841.89px" viewBox="0 0 595.28 841.89" enable-background="new 0 0 595.28 841.89" xml:space="preserve">
<g>
	<path fill-rule="evenodd" clip-rule="evenodd" fill="#F8F8F8" d="M333.971,299.211c-6.92,0-13.84,0-20.76,0
		c-1.949,0-1.988,0.039-1.988,2.049c0,18.559-0.014,37.119,0.012,55.678c0.006,4.234,0.127,8.47,0.232,12.703
		c0.109,4.386,0.266,8.77,0.4,13.154c-0.07,0.025-0.139,0.051-0.209,0.076c-0.139-0.26-0.295-0.513-0.418-0.781
		c-4.043-8.87-7.891-17.835-12.166-26.591c-5.908-12.097-12.138-24.036-18.225-36.044c-3.171-6.254-6.339-12.51-9.488-18.774
		c-0.455-0.904-1.026-1.399-2.123-1.381c-3.595,0.059-7.191,0.031-10.788,0.035c-2.057,0.002-2.071,0.015-2.071,2.086
		c0,35.759,0,71.518,0,107.276c0,0.24,0.013,0.48-0.002,0.72c-0.056,0.909,0.357,1.299,1.275,1.293
		c3.479-0.021,6.96,0.034,10.438-0.053c0.545-0.014,1.298-0.484,1.579-0.964c6.685-11.406,13.317-22.843,19.963-34.271
		c0.565-0.972,1.158-1.926,1.827-3.034c0.315,0.611,0.519,0.996,0.714,1.386c5.91,11.812,11.828,23.619,17.712,35.445
		c0.518,1.042,1.113,1.526,2.363,1.516c7.24-0.065,14.479-0.032,21.719-0.032c0.467,0,0.932,0,1.408,0c0-37.242,0-74.332,0-111.492
		C334.844,299.211,334.406,299.211,333.971,299.211z M267.012,409.382c-3.136,0-6.199,0-9.345,0c0-36.222,0-72.468,0-108.778
		c3.133,0,6.196,0,9.345,0C267.012,336.828,267.012,373,267.012,409.382z M322.711,409.372c-0.613,0-1.232,0-1.854,0
		c-2.799,0-5.6-0.023-8.398,0.016c-0.699,0.009-1.08-0.227-1.387-0.846c-6.117-12.277-12.254-24.544-18.358-36.827
		c-0.195-0.394-0.268-1.054-0.068-1.405c2.113-3.74,4.293-7.443,6.596-11.4c5.285,10.496,9.855,21.076,14.18,31.836
		c-1.752-30.013-0.697-60.017-1.043-90.148c3.57,0,6.912,0,10.332,0C322.711,336.823,322.711,372.999,322.711,409.372z"/>
	<path fill-rule="evenodd" clip-rule="evenodd" fill="#F8F8F8" d="M246.844,300.268c0,3.941,0,7.803,0,11.786
		c-8.844,0-17.624,0-26.523,0c0,32.419,0,64.718,0,97.113c-3.77,0-7.42,0-11.223,0c0-0.438,0-0.863,0-1.29
		c0-30.959,0.003-61.918-0.016-92.877c-0.001-0.866,0.226-1.461,0.886-2.062c4.405-4.013,8.757-8.084,13.15-12.11
		c0.348-0.319,0.875-0.625,1.321-0.628c7.319-0.036,14.639-0.022,21.959-0.016C246.512,300.183,246.627,300.225,246.844,300.268z"/>
	<path fill-rule="evenodd" clip-rule="evenodd" fill="#F8F8F8" d="M171.788,312.944c-2.349-0.678-4.521-1.48-6.765-1.924
		c-9.679-1.917-18.84-0.826-26.932,5.275c-6.4,4.826-10.11,11.497-12.367,19.037c-2.524,8.436-3.041,17.073-2.437,25.82
		c0.414,5.998,1.543,11.823,3.727,17.435c0.118,0.302,0.121,0.857-0.068,1.037c-2.922,2.776-5.884,5.51-9.135,8.53
		c-1.229-3.395-2.524-6.504-3.482-9.715c-2.534-8.488-3.223-17.205-2.93-26.028c0.282-8.465,1.709-16.708,4.849-24.591
		c4.22-10.595,10.782-19.256,21.068-24.669c7.4-3.895,15.341-5.269,23.62-4.438c3.31,0.332,6.577,1.111,9.851,1.756
		c0.379,0.075,0.952,0.592,0.958,0.912C171.812,305.216,171.788,309.052,171.788,312.944z"/>
	<path fill-rule="evenodd" clip-rule="evenodd" fill="#F8F8F8" d="M121.965,394.46c3.007-2.788,5.962-5.528,8.975-8.322
		c0.811,0.992,1.562,1.962,2.366,2.887c5.405,6.224,12.28,9.435,20.458,10.038c6.138,0.453,12.054-0.479,17.897-2.696
		c0.051,0.329,0.122,0.579,0.123,0.83c0.008,3.358-0.014,6.716,0.022,10.073c0.007,0.67-0.187,1.021-0.834,1.2
		c-11.308,3.126-22.527,3.703-33.568-1.126C131.514,404.768,124.949,399.317,121.965,394.46z"/>
	<path fill-rule="evenodd" clip-rule="evenodd" fill="#F8F8F8" d="M212.734,300.249c-3.6,3.332-7.145,6.437-10.467,9.763
		c-1.602,1.604-3.235,2.194-5.471,2.102c-4.228-0.175-8.467-0.05-12.701-0.05c-0.434,0-0.868,0-1.406,0c0-3.972,0-7.854,0-11.814
		C192.635,300.249,202.566,300.249,212.734,300.249z"/>
	<path fill="none" stroke="#F8F8F8" stroke-width="0" stroke-linecap="round" stroke-linejoin="round" d="M292.714,371.714
		c6.104,12.283,12.241,24.55,18.358,36.827c0.307,0.619,0.688,0.854,1.387,0.846c2.799-0.039,5.6-0.016,8.398-0.016
		c0.621,0,1.24,0,1.854,0c0-36.373,0-72.548,0-108.774c-3.42,0-6.762,0-10.332,0c0.346,30.131-0.709,60.135,1.043,90.148
		c-4.324-10.761-8.895-21.341-14.18-31.836c-2.303,3.957-4.483,7.66-6.596,11.4C292.447,370.661,292.519,371.321,292.714,371.714z"
		/>
</g>
<g>
	<path fill-rule="evenodd" clip-rule="evenodd" fill="#F8F8F8" d="M514.504,410.33c-0.729,0-1.281,0-1.943,0
		c0-4.742,0-9.468,0-14.356c0.433,0,0.864,0.042,1.284-0.009c0.836-0.103,1.281,0.191,1.583,1.026c0.924,2.553,1.945,5.07,2.932,7.6
		c0.107,0.275,0.241,0.539,0.592,0.765c0-3.087,0-6.174,0-9.319c0.693,0,1.242,0,1.896,0c0,4.711,0,9.44,0,14.338
		c-0.516,0-1.062-0.045-1.597,0.011c-0.72,0.076-1.058-0.219-1.309-0.889c-1.058-2.829-2.173-5.637-3.438-8.429
		C514.504,404.11,514.504,407.152,514.504,410.33z"/>
	<path fill-rule="evenodd" clip-rule="evenodd" fill="#F8F8F8" d="M359.738,398.781c-0.711-0.286-1.207-0.508-1.719-0.686
		c-1.637-0.567-3.065-0.066-3.834,1.487c-1.123,2.271-1.115,4.649-0.186,6.968c0.721,1.796,2.292,2.371,4.146,1.703
		c0.476-0.171,0.943-0.365,1.427-0.552c0.503,2.01,0.299,2.357-1.527,2.743c-3.543,0.749-6.016-0.82-6.663-4.383
		c-0.425-2.336-0.436-4.704,0.482-6.962c1.375-3.386,4.407-3.838,7.26-2.853C360.368,396.676,359.593,397.759,359.738,398.781z"/>
	<path fill-rule="evenodd" clip-rule="evenodd" fill="#F8F8F8" d="M427.759,410.306c0-4.165,0-8.221,0-12.385
		c-1.174,0-2.237,0-3.391,0c0-0.677,0-1.243,0-1.879c2.985,0,5.918,0,8.918,0c0,0.591,0,1.132,0,1.813c-1.046,0-2.101,0-3.312,0
		c0,4.218,0,8.303,0,12.451C429.195,410.306,428.574,410.306,427.759,410.306z"/>
	<path fill-rule="evenodd" clip-rule="evenodd" fill="#F8F8F8" d="M494.14,400.325c1.287-0.404,1.94,0.032,2.333,1.267
		c0.55,1.728,1.289,3.396,2.142,5.053c0-2.09,0-4.181,0-6.364c0.464-0.027,0.84-0.049,1.317-0.077c0,3.367,0,6.651,0,9.944
		c-1.172,0.405-1.842,0.096-2.236-1.137c-0.555-1.739-1.294-3.419-2.134-5.11c0,2.072,0,4.143,0,6.298c-0.536,0-0.944,0-1.422,0
		C494.14,406.912,494.14,403.651,494.14,400.325z"/>
	<path fill-rule="evenodd" clip-rule="evenodd" fill="#F8F8F8" d="M374.905,410.142c-1.222,0.418-1.871,0.049-2.26-1.159
		c-0.558-1.732-1.292-3.407-2.148-5.081c0,2.079,0,4.158,0,6.314c-0.502,0.03-0.884,0.052-1.367,0.081c0-3.35,0-6.641,0-9.977
		c1.143-0.358,1.862-0.1,2.27,1.188c0.552,1.747,1.3,3.431,2.138,5.14c0-2.101,0-4.201,0-6.368c0.526,0,0.905,0,1.368,0
		C374.905,403.585,374.905,406.875,374.905,410.142z"/>
	<path fill-rule="evenodd" clip-rule="evenodd" fill="#F8F8F8" d="M542.26,406.807c0.111-2.166,0.223-4.332,0.337-6.544
		c0.441,0,0.822,0,1.329,0c-0.185,3.341-0.365,6.621-0.544,9.852c-1.289,0.444-2.003,0.14-2.219-1.167
		c-0.121-0.739-0.401-1.451-0.687-2.443c-0.295,0.997-0.622,1.736-0.717,2.505c-0.155,1.249-0.825,1.487-2.106,1.146
		c-0.189-3.202-0.384-6.477-0.584-9.852c0.482,0,0.892,0,1.399,0c0.112,2.146,0.225,4.287,0.337,6.427
		c0.067,0.02,0.136,0.04,0.204,0.06c0.229-0.805,0.409-1.629,0.713-2.406c0.127-0.325,0.517-0.547,0.787-0.816
		c0.267,0.274,0.647,0.502,0.778,0.831c0.314,0.791,0.514,1.628,0.759,2.447C542.118,406.833,542.188,406.82,542.26,406.807z"/>
	<path fill-rule="evenodd" clip-rule="evenodd" fill="#F8F8F8" d="M486.173,405c0.203-0.872,0.354-2.026,0.75-3.09
		c0.477-1.28,1.532-1.895,2.921-1.852c1.309,0.041,2.3,0.762,2.721,2.134c0.598,1.951,0.617,3.942-0.002,5.892
		c-0.52,1.637-1.583,2.338-3.218,2.29c-1.46-0.043-2.347-0.79-2.768-2.485C486.367,407.044,486.328,406.159,486.173,405z
		 M491.604,405.337c-0.212-0.969-0.303-1.944-0.663-2.806c-0.191-0.459-0.828-0.957-1.305-1.001
		c-0.397-0.037-1.051,0.471-1.248,0.896c-0.845,1.822-0.854,3.731-0.058,5.571c0.188,0.432,0.818,0.96,1.217,0.938
		c0.479-0.026,1.135-0.498,1.347-0.948C491.273,407.18,491.379,406.243,491.604,405.337z"/>
	<path fill-rule="evenodd" clip-rule="evenodd" fill="#F8F8F8" d="M544.496,404.989c0.191-0.84,0.331-1.957,0.71-2.986
		c0.51-1.387,1.595-2.007,2.977-1.947c1.304,0.057,2.29,0.778,2.707,2.153c0.592,1.953,0.612,3.944-0.013,5.892
		c-0.523,1.631-1.59,2.325-3.231,2.271c-1.45-0.047-2.337-0.803-2.755-2.502C544.684,407.026,544.647,406.14,544.496,404.989z
		 M549.932,405.254c-0.225-0.979-0.313-1.917-0.675-2.734c-0.202-0.458-0.838-0.95-1.313-0.989
		c-0.398-0.033-1.045,0.481-1.241,0.909c-0.838,1.824-0.849,3.733-0.045,5.571c0.188,0.43,0.801,0.917,1.231,0.93
		c0.433,0.012,1.098-0.441,1.277-0.856C549.554,407.189,549.695,406.188,549.932,405.254z"/>
	<g>
		<path fill="#F8F8F8" stroke="#F8F8F8" stroke-width="0" stroke-linecap="round" stroke-linejoin="round" d="M395.408,400.769
			c-0.078-0.27-0.718-0.531-1.087-0.519c-0.363,0.012-0.931,0.303-1.034,0.602c-0.47,1.353-0.813,2.75-1.191,4.135
			c-0.469,1.714-0.926,3.431-1.419,5.263c0.776-0.043,1.592,0.417,1.708-0.688c0.135-1.292,0.856-1.63,2.027-1.446
			c0.425,0.067,0.869,0.011,1.392,0.011c0.248,0.794,0.458,1.465,0.648,2.074c0.545,0,0.962,0,1.358,0
			c0.039-0.161,0.088-0.246,0.07-0.312C397.073,406.844,396.283,403.794,395.408,400.769z M393.187,406.68
			c0.353-1.35,0.688-2.63,1.022-3.91c0.079,0.013,0.157,0.027,0.236,0.041c0.331,1.268,0.661,2.535,1.009,3.87
			C394.7,406.68,394.031,406.68,393.187,406.68z"/>
		<path fill="none" d="M394.445,402.811c-0.079-0.014-0.157-0.027-0.236-0.041c-0.335,1.28-0.67,2.561-1.022,3.91
			c0.845,0,1.514,0,2.268,0C395.106,405.345,394.776,404.078,394.445,402.811z"/>
	</g>
	<g>
		<path fill="#F8F8F8" d="M388.226,405.473c1.262-1.18,1.736-2.847,0.977-4.048c-1.203-1.9-3.118-1.015-4.808-1.209
			c0,3.421,0,6.704,0,10.075c0.483-0.031,0.854-0.055,1.362-0.088c0-1.495,0-2.87,0-4.245c0.107-0.063,0.214-0.127,0.32-0.19
			c0.359,0.348,0.825,0.637,1.055,1.057c0.38,0.693,0.668,1.454,0.885,2.217c0.307,1.077,0.893,1.539,2.167,1.105
			C389.512,408.542,388.87,407.01,388.226,405.473z M387.71,403.812c-0.356,0.48-1.104,0.67-1.918,1.112c0-1.362,0-2.33,0-3.648
			c0.759,0.335,1.525,0.46,1.904,0.912C387.979,402.524,387.98,403.446,387.71,403.812z"/>
		<path fill="none" d="M387.696,402.188c-0.379-0.451-1.146-0.577-1.904-0.912c0,1.318,0,2.286,0,3.648
			c0.814-0.442,1.562-0.632,1.918-1.112C387.98,403.446,387.979,402.524,387.696,402.188z"/>
	</g>
	<path fill-rule="evenodd" clip-rule="evenodd" fill="#F8F8F8" d="M552.851,400.194c1.757,0.228,3.702-0.68,4.859,1.287
		c0.703,1.194,0.241,2.764-0.983,4.026c0.646,1.553,1.284,3.085,1.924,4.623c-1.2,0.447-1.817,0.055-2.133-1.037
		c-0.221-0.763-0.504-1.523-0.877-2.222c-0.232-0.433-0.686-0.747-1.039-1.114c-0.121,0.054-0.241,0.107-0.361,0.161
		c0,1.404,0,2.809,0,4.287c-0.561,0-0.934,0-1.39,0C552.851,406.903,552.851,403.646,552.851,400.194z M554.241,404.966
		c0.861-0.485,1.606-0.686,1.958-1.172c0.268-0.369,0.254-1.291-0.032-1.624c-0.382-0.444-1.149-0.557-1.926-0.886
		C554.241,402.588,554.241,403.532,554.241,404.966z"/>
	<path fill-rule="evenodd" clip-rule="evenodd" fill="#F8F8F8" d="M561.529,406.536c0,1.194,0,2.387,0,3.663
		c-0.48,0-0.894,0-1.382,0c0-3.271,0-6.534,0-9.926c0.393-0.022,0.808-0.045,1.363-0.076c0,1.235,0,2.407,0,3.579
		c0.096,0.035,0.191,0.069,0.288,0.104c0.574-0.874,1.212-1.713,1.706-2.629c0.521-0.968,1.217-1.285,2.404-0.887
		c-0.9,1.304-1.751,2.591-2.664,3.833c-0.409,0.557-0.462,0.977-0.043,1.575c0.976,1.394,1.866,2.847,2.836,4.347
		c-1.223,0.404-1.931,0.092-2.463-0.919c-0.511-0.968-1.171-1.858-1.765-2.783C561.717,406.456,561.623,406.496,561.529,406.536z"/>
	<path fill-rule="evenodd" clip-rule="evenodd" fill="#F8F8F8" d="M460.136,408.06c0.649-2.427,1.283-4.523,1.753-6.656
		c0.254-1.154,0.784-1.434,1.896-1.04c-0.868,3.104-1.715,6.212-2.643,9.296c-0.087,0.288-0.671,0.51-1.062,0.604
		c-0.528,0.126-0.958,0.017-1.142-0.684c-0.808-3.081-1.678-6.146-2.55-9.303c0.581,0,1.08,0,1.654,0
		C458.714,402.77,459.382,405.254,460.136,408.06z"/>
	<path fill-rule="evenodd" clip-rule="evenodd" fill="#F8F8F8" d="M524.712,405.691c0,1.159,0,2.106,0,3.199
		c1.132,0,2.227,0,3.398,0c0,0.518,0,0.891,0,1.331c-1.614,0-3.196,0-4.865,0c0-3.296,0-6.552,0-9.911c1.597,0,3.203,0,4.879,0
		c0,0.349,0,0.687,0,1.162c-1.11,0-2.208,0-3.384,0c0,0.995,0,1.855,0,2.853c1.029,0,2.046,0,3.178,0
		c0.034,0.496,0.06,0.865,0.095,1.367C526.883,405.691,525.861,405.691,524.712,405.691z"/>
	<path fill-rule="evenodd" clip-rule="evenodd" fill="#F8F8F8" d="M362.427,410.213c0-3.358,0-6.616,0-9.939
		c1.648,0,3.228,0,4.894,0c0.025,0.363,0.05,0.701,0.084,1.178c-1.171,0-2.27,0-3.456,0c0,1.027,0,1.921,0,2.935
		c1.084,0,2.109,0,3.195,0c0,0.464,0,0.809,0,1.287c-1.044,0-2.061,0-3.182,0c0,1.137,0,2.143,0,3.249c1.109,0,2.177,0,3.352,0
		c0.03,0.465,0.054,0.838,0.082,1.291C365.718,410.213,364.136,410.213,362.427,410.213z"/>
	<path fill-rule="evenodd" clip-rule="evenodd" fill="#F8F8F8" d="M451.839,408.943c1.106,0,2.175,0,3.316,0
		c0,0.473,0,0.846,0,1.281c-1.631,0-3.211,0-4.875,0c0-3.31,0-6.565,0-9.919c1.611,0,3.218,0,4.889,0c0,0.363,0,0.701,0,1.177
		c-1.124,0-2.222,0-3.393,0c0,0.997,0,1.857,0,2.852c1.042,0,2.061,0,3.19,0c0.029,0.497,0.051,0.867,0.078,1.344
		c-1.093,0-2.079,0-3.206,0C451.839,406.765,451.839,407.758,451.839,408.943z"/>
	<path fill-rule="evenodd" clip-rule="evenodd" fill="#F8F8F8" d="M440.292,408.925c0,0.483,0,0.829,0,1.269
		c-1.623,0-3.229,0-4.905,0c0-3.308,0-6.564,0-9.904c1.619,0,3.197,0,4.871,0c0,0.351,0,0.714,0,1.176c-1.094,0-2.162,0-3.334,0
		c0,0.985,0,1.875,0,2.894c1.041,0,2.062,0,3.162,0c0,0.498,0,0.87,0,1.364c-1.08,0-2.104,0-3.196,0c0,1.102,0,2.083,0,3.202
		C438.04,408.925,439.139,408.925,440.292,408.925z"/>
	<path fill-rule="evenodd" clip-rule="evenodd" fill="#F8F8F8" d="M406.837,400.253c1.642,0,3.193,0,4.884,0
		c0.021,0.362,0.043,0.727,0.07,1.199c-1.164,0-2.229,0-3.414,0c0,0.983,0,1.868,0,2.888c1.009,0,2.028,0,3.157,0
		c0.024,0.498,0.043,0.869,0.067,1.365c-1.133,0-2.158,0-3.263,0c0,1.098,0,2.077,0,3.2c1.121,0,2.218,0,3.381,0
		c0,0.516,0,0.888,0,1.318c-1.644,0-3.224,0-4.883,0C406.837,406.907,406.837,403.651,406.837,400.253z"/>
	<path fill-rule="evenodd" clip-rule="evenodd" fill="#F8F8F8" d="M476.938,401.673c-0.727-0.074-1.458-0.289-2.132-0.172
		c-0.496,0.086-1.137,0.521-1.303,0.957c-0.134,0.351,0.223,1.088,0.583,1.383c0.637,0.521,1.46,0.806,2.172,1.244
		c1.218,0.748,1.631,1.873,1.274,3.312c-0.282,1.137-1.211,1.868-2.569,1.956c-0.636,0.041-1.278,0.014-1.915-0.03
		c-0.394-0.027-0.781-0.145-1.229-0.233c0-0.488,0-0.949,0-1.429c0.832,0.126,1.609,0.296,2.395,0.349
		c0.791,0.053,1.568-0.115,1.822-1.012c0.259-0.908-0.333-1.41-1.042-1.795c-0.562-0.305-1.147-0.566-1.695-0.892
		c-1.24-0.737-1.688-1.722-1.41-3.009c0.282-1.308,1.055-2.016,2.494-2.192c0.508-0.062,1.031,0.017,1.548,0.023
		C477.028,400.147,477.322,400.676,476.938,401.673z"/>
	<path fill-rule="evenodd" clip-rule="evenodd" fill="#F8F8F8" d="M466.678,401.548c-0.564-0.036-1.068-0.067-1.654-0.104
		c-0.032-0.376-0.062-0.715-0.098-1.149c1.733,0,3.391,0,5.146,0c0,0.355,0,0.717,0,1.131c-0.579,0.047-1.121,0.091-1.735,0.141
		c0,2.428,0,4.808,0,7.292c0.552,0.043,1.09,0.085,1.751,0.137c0.025,0.382,0.051,0.751,0.082,1.209c-1.763,0-3.418,0-5.151,0
		c0-0.406,0-0.777,0-1.2c0.569-0.047,1.076-0.088,1.66-0.135C466.678,406.439,466.678,404.031,466.678,401.548z"/>
	<path fill-rule="evenodd" clip-rule="evenodd" fill="#F8F8F8" d="M484.829,401.444c-0.679,0.034-1.188,0.06-1.813,0.091
		c0,2.425,0,4.83,0,7.331c0.523,0.04,1.063,0.081,1.721,0.13c0.021,0.395,0.041,0.766,0.065,1.217c-1.766,0-3.423,0-5.143,0
		c0-0.422,0-0.794,0-1.215c0.582-0.042,1.088-0.078,1.663-0.12c0-2.422,0-4.803,0-7.332c-0.523-0.031-1.057-0.062-1.669-0.099
		c-0.026-0.393-0.049-0.731-0.076-1.158c1.735,0,3.393,0,5.146,0C484.753,400.625,484.784,400.959,484.829,401.444z"/>
	<path fill-rule="evenodd" clip-rule="evenodd" fill="#F8F8F8" d="M533.805,410.22c-0.617,0-1,0-1.511,0c0-2.879,0-5.7,0-8.593
		c-0.83-0.047-1.538-0.087-2.327-0.132c0-0.408,0-0.778,0-1.219c2.062,0,4.085,0,6.203,0c0,0.372,0,0.738,0,1.208
		c-0.747,0.045-1.486,0.09-2.365,0.144C533.805,404.493,533.805,407.31,533.805,410.22z"/>
	<path fill-rule="evenodd" clip-rule="evenodd" fill="#F8F8F8" d="M380.205,410.223c-0.572,0-0.957,0-1.477,0
		c0-2.833,0-5.652,0-8.577c-0.855-0.062-1.587-0.114-2.38-0.171c0-0.404,0-0.745,0-1.178c2.063,0,4.115,0,6.251,0
		c0.021,0.359,0.041,0.698,0.068,1.178c-0.802,0.047-1.539,0.089-2.463,0.143C380.205,404.475,380.205,407.322,380.205,410.223z"/>
	<path fill-rule="evenodd" clip-rule="evenodd" fill="#F8F8F8" d="M444.406,408.944c1.295,0,2.397,0,3.552,0
		c0,0.486,0,0.858,0,1.286c-1.655,0-3.237,0-4.912,0c0-3.305,0-6.587,0-9.946c0.41,0,0.823,0,1.36,0
		C444.406,403.113,444.406,405.926,444.406,408.944z"/>
	<path fill-rule="evenodd" clip-rule="evenodd" fill="#F8F8F8" d="M399.575,410.213c0-3.381,0-6.639,0-9.95c0.449,0,0.836,0,1.384,0
		c0,2.834,0,5.677,0,8.638c1.253,0,2.353,0,3.555,0c0.03,0.487,0.054,0.859,0.081,1.312
		C402.886,410.213,401.271,410.213,399.575,410.213z"/>
	<path fill="none" d="M490.941,402.583c-0.191-0.459-0.828-0.957-1.305-1.001c-0.397-0.037-1.051,0.471-1.248,0.896
		c-0.845,1.822-0.854,3.731-0.058,5.571c0.188,0.432,0.818,0.96,1.217,0.938c0.479-0.026,1.135-0.498,1.347-0.948
		c0.379-0.808,0.484-1.745,0.71-2.651C491.393,404.42,491.302,403.445,490.941,402.583z"/>
	<path fill="none" d="M549.257,402.52c-0.202-0.458-0.838-0.95-1.313-0.989c-0.398-0.033-1.045,0.481-1.241,0.909
		c-0.838,1.824-0.849,3.733-0.045,5.571c0.188,0.43,0.801,0.917,1.231,0.93c0.433,0.012,1.098-0.441,1.277-0.856
		c0.388-0.895,0.529-1.896,0.766-2.83C549.707,404.275,549.618,403.337,549.257,402.52z"/>
	<path fill="none" d="M556.167,402.169c-0.382-0.444-1.149-0.557-1.926-0.886c0,1.305,0,2.249,0,3.683
		c0.861-0.485,1.606-0.686,1.958-1.172C556.467,403.424,556.453,402.503,556.167,402.169z"/>
</g>
</svg>
