<?xml version="1.0" encoding="utf-8"?>
<!-- Generator: Adobe Illustrator 19.2.1, SVG Export Plug-In . SVG Version: 6.00 Build 0)  -->
<svg version="1.1" xmlns="http://www.w3.org/2000/svg" xmlns:xlink="http://www.w3.org/1999/xlink" x="0px" y="0px"
	 viewBox="0 0 801.2 221.4" style="enable-background:new 0 0 801.2 221.4;" xml:space="preserve">
<style type="text/css">
	.st0{fill:#FFFFFF;}
	.st1{fill:#050936;}
</style>
<title>Médiapiston</title>
<g id="Calque_3">
	<rect x="4" y="4" class="st0" width="792" height="212"/>
</g>
<g id="Calque_1">
	<g>
		<path class="st1" d="M801.2,0c0,72.2-0.1,144.4,0,216.7c0,3.8,1.9,4.8-1.8,4.8c-265.2-0.1-534.1-0.1-799.3-0.1
			c0-71.7,0-149.5-0.1-221.3 M439.1,130.6c0,10.2,0,20.4,0,30.6c0,7.5,2.3,10.8,7.4,10.9c5.1,0.1,7.6-3.4,7.6-10.7
			c0-6.4,0.1-12.7,0-19.1c-0.1-2.6,0.6-3.5,3.3-3.4c5.1,0.2,10.3,0.2,15.5-0.2c14.7-0.9,23-10.4,22.6-25.6
			c-0.4-14.9-8.6-23.2-23.4-23.5c-7.6-0.2-15.3-0.1-23,0c-7.5,0-10,2.4-10,9.8C439.1,109.8,439.1,120.2,439.1,130.6z M687.9,132.9
			c1.3,2.1,1.9,2.8,2.3,3.6c6.1,10.4,12.1,20.7,18.3,31.1c1.9,3.2,4.6,5.6,8.6,4.4c3.8-1.1,4-4.5,4-7.8c0-14.8,0-29.5,0-44.3
			c0-3.6-0.4-7.1-5-7c-4.4,0.1-4.7,3.6-4.8,6.9c-0.1,7,0,14.1-0.1,21.1c0,3.3,0.5,6.8-0.6,10.5c-1-1.6-1.8-2.8-2.5-3.9
			c-6.2-10.3-12.4-20.6-18.5-30.9c-1.6-2.7-3.7-4.4-7-3.6s-4.6,3.1-4.8,6.3c0,0.7-0.1,1.3-0.1,2c0,14.6,0,29.2,0,43.7
			c0,1.2,0.1,2.3,0.4,3.5c0.6,2.3,2,3.8,4.6,3.8c2.3,0,3.7-1.3,4.4-3.3c0.6-2.1,0.8-4.3,0.7-6.5C687.9,153,687.9,143.7,687.9,132.9
			L687.9,132.9z M256.7,141.9L256.7,141.9c0.1,7.5,0.1,15.1,0.1,22.6c0,4.5,2.1,6.7,6.8,6.6c5.3-0.2,10.7,0,16-0.1
			c8.7-0.2,15-4.3,18.3-12.3c3.9-9.3,4.1-18.9,1.5-28.5c-3.1-11.4-10-16.4-21.9-16.5c-4.5,0-9,0.2-13.5-0.1
			c-4.8-0.3-7.2,1.9-7.3,6.7C256.6,127.6,256.7,134.8,256.7,141.9L256.7,141.9z M618.2,142c-0.1,4.5,0.5,9,2,13.3
			c3.1,9.9,11,16.2,20.8,16.7c12,0.7,20.3-3.7,24.8-13.8c4-8.9,4.3-18.2,1.6-27.4c-3.5-12.4-12-18.4-25.2-18.1
			c-11.2,0.2-19.8,7.3-22.7,18.9C618.5,135,618.1,138.5,618.2,142L618.2,142z M164.5,170.6l2.5,1.4c0.9-1.6,1.9-3.1,3.1-4.6
			c21.4-23.9,27.9-52,20.3-82.7c-7.5-30.3-27.1-50.5-56.2-61.1c-6.8-2.5-14-3-21.2-3.7c-9.4-1.2-19-0.6-28.3,1.5
			C37.5,33.1,8.8,81,20.4,128.3c10.6,43.2,51.5,71.7,95.4,66.6c13.5-1.5,26.4-6.1,37.7-13.5c1.4-0.9,3.8-1.4,2.3-4
			c-41.5,28.1-88.8,16.8-115-13.9C14.1,132.1,12.6,87.5,38,54.5C62.8,22.2,106.9,11.9,143.4,30c18.2,8.9,32,22.6,39.9,41.3
			C198.8,108.1,191.3,141.2,164.5,170.6z M546.6,172.1c3.5,0.2,7-0.5,10.2-2c6.8-3,10-8.4,10.2-15.8c0.2-7.4-3.1-12.6-9.8-15.3
			c-4.8-1.9-9.8-3.2-14.6-4.9c-3.3-1.2-6.2-2.8-5.7-7s3.7-5.3,7-6c4.9-1.1,8.2,1.2,11.4,7.4c1.3,2.5,2.8,4.9,6.1,3.6
			c3.1-1.3,3.8-4,3.1-7c-1.3-5.6-5-9-10.1-10.8c-4.9-1.7-10.2-1.8-15.2-0.4c-9.1,2.4-13.5,9.2-12,18.5c1,6.4,5.2,9.9,10.8,11.9
			c4.4,1.6,9,2.6,13.3,4.3c5.8,2.3,7,8.9,2.7,13c-4.4,4.1-11.3,3.8-15.4-0.6c-0.6-0.7-1.2-1.5-1.6-2.3c-0.9-1.8-1.6-3.7-2.5-5.5
			c-0.8-2-2.9-3-4.9-2.4c-2,0.4-3.5,2.2-3.5,4.3c-0.1,1.8,0.1,3.7,0.8,5.4C529.6,168,536.1,172.1,546.6,172.1z M208.5,142.3
			c0,7.2-0.1,14.4,0,21.6c0.1,5.6,1.8,7.2,7.3,7.2c9,0,18-0.1,27,0c3.3,0,5.8-1,5.8-4.6s-2.6-4.6-5.9-4.5c-6.7,0.1-13.3-0.1-20,0.1
			c-2.5,0-3.7-0.5-3.5-3.3c0.2-3.5,0.2-7,0-10.6c-0.2-2.7,0.8-3.4,3.4-3.4c6,0.2,12,0,18,0.1c3,0.1,5.1-1.1,5.1-4.1
			c0-3-2.2-4.1-5.2-4c-3.7,0.1-7.3,0-11,0c-10.5,0-10.4,0-10.3-10.5c0-2.8,0.7-3.8,3.6-3.7c6.2,0.2,12.3,0,18.5,0.1
			c3.3,0.1,6.3-0.4,6.4-4.4c0.1-4.4-3.1-4.8-6.6-4.7c-8.3,0.1-16.6,0-25,0c-5.7,0-7.4,1.6-7.5,7.4
			C208.4,128.2,208.5,135.3,208.5,142.3z M377,166.6c0-0.7-0.2-1.4-0.3-2c-5.7-15.7-11.3-31.4-17.1-47.1c-1-3-3.8-5-6.9-4.8
			c-3.1-0.1-5.9,1.9-6.8,4.9c-5.6,15.4-11.1,30.8-16.5,46.3c-1.1,3.2-0.8,6.6,3,8c4.1,1.5,5.5-1.7,6.7-4.8c3.8-10,3.8-10,14.6-10
			h0.5c8.7,0,8.7,0,11.6,8c0.5,1.3,0.9,2.5,1.4,3.7c1,2.5,2.8,3.8,5.5,3.3S376.7,169.3,377,166.6z M587.2,145.9L587.2,145.9
			c0,6.7-0.1,13.4,0.1,20.1c0.1,3.2,1.4,6,5.3,6s5-2.8,5.3-6c0.1-1.3,0.1-2.7,0.1-4c0-9.4,0-18.8,0-28.2c0-9.9,0-9.9,10-10.1h1.6
			c3.3,0,5-2,5-5c0-3.1-1.6-5-5-5c-11.3,0-22.7,0-34,0c-3.3,0-5,2-5,5s1.7,5,5,5c2.5,0.1,5,0.1,7.5,0c3.1-0.3,4.4,0.6,4.2,4
			C587,133.8,587.2,139.9,587.2,145.9z M310.1,142.4c0,7.5,0,15.1,0,22.6c0,3.6,0.8,7,5.2,7c4.5,0.1,5.3-3.6,5.4-7
			c0.1-15.1,0.1-30.2,0-45.3c0-3.5-0.9-7-5.4-7s-5.2,3.4-5.3,7C310.1,127.3,310.1,134.9,310.1,142.4z M506.1,141.9
			c0,7.7,0,15.4,0,23.1c0,3.6,0.8,7,5.3,7c4.5,0.1,5.3-3.6,5.4-7c0.1-15.1,0.1-30.2,0-45.3c0-3.5-0.9-7-5.4-7s-5.2,3.4-5.2,7
			C506.1,127.2,506.1,134.6,506.1,141.9z M236.5,99.3c-9.2-1.5-9.8-1.2-13.3,6.3c-0.5,1.2-1.9,2.6-0.9,3.6c1.2,1.2,3.2,0.8,4.6-0.1
			C230.9,106.7,233.7,103.1,236.5,99.3L236.5,99.3z"/>
		<path class="st1" d="M463.1,101.5c2.6,0.3,5.3,0.4,7.9,0.8c7.1,1.2,10.1,4.8,10.1,11.9c0,6.6-3.2,10.3-9.9,11.8
			c-4.5,1-8.9,0.6-13.4,0.8c-2.3,0.1-2.8-0.8-2.8-2.9c0.1-5.7,0.3-11.4,0-17.1c-0.3-4,0.8-6,5-5.2c1,0.1,2,0.1,3,0L463.1,101.5z"/>
		<path class="st1" d="M268.3,141.8c0-5.2,0.2-10.4-0.1-15.6c-0.1-2.9,0.9-3.8,3.7-3.6c3,0.3,5.9,0.1,8.9,0.7c4.4,0.6,8,3.9,9.1,8.3
			c2.1,6.9,2,14.4-0.2,21.3c-2,6.3-5.7,8.9-12.2,9c-1.7-0.1-3.3-0.1-5,0c-3.1,0.4-4.4-0.6-4.2-4
			C268.5,152.6,268.3,147.2,268.3,141.8z"/>
		<path class="st1" d="M630,142c-0.1-4,0.6-8,2.2-11.7c2.3-5.2,6.2-8.3,11.9-8.5c5.5-0.3,10.6,2.9,12.6,8.1c3.5,7.9,3.5,17-0.1,24.9
			c-2.3,5.1-6.5,8.1-12.1,8.1s-9.7-3.1-12-8.2C630.7,150.7,629.8,146.3,630,142z"/>
		<path class="st1" d="M346.3,148.6l7.3-23.4l7.6,23.4L346.3,148.6L346.3,148.6z"/>
	</g>
</g>
<g id="Calque_2">
	<g>
		<path class="st0" d="M103.1,70.3c-0.1,4-0.3,8-0.2,12.1c0.1,5.1,2.7,7.8,7.7,7.8c13.8,0.1,27.7,0.1,41.5,0c5,0,7.6-2.7,7.7-7.9
			c0.1-4.2,0.1-8.4,0-12.6c-0.2-5.3-2.8-8-8.1-8c-13.7-0.1-27.3-0.1-41,0c-4.1,0-7,1.8-7.6,6.3c-2.1-0.3-1.1-2-1.3-3
			c-0.6-2.9-2.9-2.3-4.7-2.3c-1.5,0-3.3-0.8-4.1,1.6c-1.6,5.3,1.1,8.4,6.4,7.3C100.7,71.2,101.9,70.8,103.1,70.3z"/>
		<path class="st0" d="M166.3,187.4c-0.1-0.7-0.2-1.3-0.3-2c-4.8-28.3-9.5-56.7-14.3-85c-0.3-1.8-0.6-3.6-1-5.4
			c-0.1-1-1.1-1.8-2.1-1.6c0,0-0.1,0-0.1,0c-1,0.2-1.7,1.3-1.4,2.3c0.1,1,0.3,2,0.4,3c2.9,17.3,5.8,34.6,8.7,51.9
			c2,12.2,4.1,24.4,6.2,36.5c0.2,1.4,0.2,3.3,2.3,3.3C166.5,190.4,166.4,188.8,166.3,187.4L166.3,187.4z"/>
		<path class="st0" d="M98.5,186.7c-0.3,1.4-0.3,3,1.4,3.1c2.4,0.1,2.2-2,2.4-3.6c5-29.6,10-59.1,14.9-88.7c0.3-1.6,1.6-4.1-1.2-4.5
			c-2.8-0.4-2.2,2.5-2.5,4c-2.1,11.9-4.1,23.8-6,35.7C104.5,150.6,101.5,168.6,98.5,186.7L98.5,186.7z"/>

			<ellipse transform="matrix(2.294583e-002 -0.9997 0.9997 2.294583e-002 90.3617 191.8377)" class="st0" cx="143.3" cy="49.7" rx="10.9" ry="10.8"/>
		<path class="st0" d="M130.1,49.8c0-5.9-4.8-10.8-10.7-10.8c-5.9,0-10.7,4.8-10.7,10.7c0,5.9,4.7,10.7,10.5,10.8
			C125.1,60.6,130,55.8,130.1,49.8L130.1,49.8z"/>
		<path class="st0" d="M172.8,65.7c-11.2,3.3-11.2,3.3-10.9,14.6c0.2,7.4,7.4,4.2,10.9,8.4V65.7z"/>
		<path class="st0" d="M130.9,128.6c0,11.2,0,22.4,0,33.6c0,1.4-0.5,3.5,1.6,3.6c2.5,0.1,2-2.2,2-3.7c0-21.9,0-43.8,0-65.7
			c0-1.5,0.6-3.9-1.8-3.9s-1.7,2.4-1.7,4C130.9,107.2,130.9,117.9,130.9,128.6z"/>
	</g>
</g>
</svg>
