<?xml version="1.0" encoding="utf-8"?>
<!-- Generator: Adobe Illustrator 21.0.0, SVG Export Plug-In . SVG Version: 6.00 Build 0)  -->
<svg version="1.1" id="Calque_1" xmlns="http://www.w3.org/2000/svg" xmlns:xlink="http://www.w3.org/1999/xlink" x="0px" y="0px"
	 viewBox="0 0 800 220" style="enable-background:new 0 0 800 220;" xml:space="preserve">
<style type="text/css">
	.st0{fill:#F8F8F8;}
	.st1{fill:#DDDEE4;}
</style>
<g>
	<path class="st0" d="M440.5,131.2c0-10.3-0.1-20.6,0-31c0.1-7.3,2.6-9.8,10-9.8c7.7,0,15.3-0.1,23,0c14.8,0.3,23,8.6,23.4,23.4
		c0.4,15.1-7.9,24.5-22.6,25.5c-5.1,0.3-10.3,0.3-15.5,0.1c-2.7-0.1-3.4,0.9-3.3,3.4c0.2,6.3,0.1,12.6,0,19c0,7.2-2.5,10.7-7.6,10.6
		c-5.1-0.1-7.4-3.3-7.4-10.8C440.5,151.5,440.5,141.4,440.5,131.2z M463.5,102.4c0,0.1,0,0.1,0,0.2c-1,0-2,0.2-3,0
		c-4.3-0.8-5.3,1.1-5.1,5.1c0.4,5.6,0.2,11.3,0,17c0,2.1,0.5,3,2.7,2.9c4.5-0.2,9,0.2,13.4-0.8c6.7-1.4,9.8-5.1,9.9-11.7
		c0-7.1-3-10.7-10.1-11.9C468.8,102.7,466.1,102.6,463.5,102.4z"/>
	<path class="st0" d="M689.3,133.5c0,10.8,0,20,0,29.3c0,2.2,0.1,4.3-0.7,6.4c-0.8,2.1-2.1,3.3-4.4,3.3c-2.6,0-4-1.4-4.6-3.7
		c-0.3-1.1-0.4-2.3-0.4-3.5c0-14.5,0-29,0-43.5c0-0.7,0.1-1.3,0.1-2c0.2-3.1,1.6-5.5,4.8-6.2c3.2-0.8,5.4,0.9,7,3.6
		c6.2,10.3,12.3,20.5,18.5,30.8c0.7,1.1,1.4,2.2,2.5,3.9c1.1-3.7,0.5-7.1,0.6-10.5c0.1-7,0-14,0.1-21c0-3.3,0.4-6.8,4.8-6.8
		c4.6-0.1,5,3.4,5,7c0,14.7,0,29.3,0,44c0,3.3-0.2,6.6-4,7.8c-4,1.2-6.7-1.1-8.6-4.3c-6.1-10.3-12.2-20.6-18.3-30.9
		C691.2,136.3,690.7,135.6,689.3,133.5z"/>
	<path class="st0" d="M258.1,142.5c0-7.2-0.1-14.3,0-21.5c0-4.7,2.4-6.9,7.3-6.6c4.5,0.2,9,0,13.5,0.1c11.9,0,18.8,5,21.9,16.4
		c2.6,9.5,2.5,19.2-1.5,28.4c-3.4,7.9-9.6,12.1-18.3,12.3c-5.3,0.1-10.7-0.1-16,0.1c-4.7,0.2-6.8-2.1-6.8-6.5
		C258.1,157.5,258.2,150,258.1,142.5C258.1,142.5,258.1,142.5,258.1,142.5z M268.7,142.5c0,5.3,0.2,10.7-0.1,16
		c-0.2,3.5,1.1,4.4,4.2,4c1.6-0.2,3.3,0,5,0c6.5-0.1,10.2-2.7,12.2-8.9c2.2-7,2.2-14.2,0.2-21.2c-1.3-4.4-4.1-7.4-9.1-8.3
		c-3-0.5-5.9-0.4-8.9-0.7c-2.8-0.2-3.8,0.7-3.7,3.6C268.8,132.2,268.7,137.4,268.7,142.5z"/>
	<path class="st0" d="M619.6,142.6c-0.3-3.5,0.4-7,1.2-10.4c2.9-11.5,11.5-18.6,22.7-18.8c13.2-0.2,21.7,5.7,25.2,18
		c2.6,9.2,2.3,18.5-1.6,27.3c-4.5,10-12.8,14.4-24.8,13.7c-9.8-0.6-17.7-6.8-20.8-16.6C620.2,151.6,619.4,147.2,619.6,142.6z
		 M630.4,142.6c-0.1,4.4,0.6,8.6,2.4,12.6c2.4,5.1,6.3,8.2,12.1,8.2c5.7,0,9.9-3,12.1-8.1c3.6-8.2,3.6-16.6,0.1-24.7
		c-2.3-5.3-6.7-8.2-12.6-8.1c-5.7,0.1-9.6,3.3-11.9,8.4C631,134.7,630.3,138.6,630.4,142.6z"/>
	<path class="st1" d="M165.9,171c26.9-29.2,34.3-62.1,18.8-98.7c-7.9-18.6-21.7-32.2-39.9-41.1c-36.6-17.8-80.4-8-105.4,24.4
		C14,88.4,15.5,132.7,42.2,163.9c26.2,30.5,73.4,41.8,115,13.9c1.5,2.6-0.9,3.1-2.3,4c-11.5,7.5-24.1,11.8-37.7,13.4
		c-40.9,4.9-79.7-19.4-93.1-58.3C7.1,87.7,35.5,35.2,86,22.7c9.3-2.3,18.6-2.5,28.3-1.5c7.2,0.8,14.4,1.2,21.2,3.7
		c29.1,10.6,48.8,30.6,56.2,60.8c7.6,30.6,1.1,58.4-20.3,82.2c-1.2,1.3-2.1,3-3.1,4.5C167.5,171.9,166.7,171.5,165.9,171z"/>
	<path class="st0" d="M548,172.5c-10.5,0-17-4.1-19.8-11.9c-0.6-1.8-0.9-3.5-0.8-5.4c0.2-2.2,1.3-3.8,3.5-4.3
		c2.2-0.5,3.9,0.4,4.9,2.4c0.9,1.8,1.6,3.7,2.5,5.4c3.3,6.3,11.8,7.7,17,2.9c4.3-4,3.1-10.6-2.7-12.9c-4.3-1.7-8.9-2.7-13.2-4.3
		c-5.6-2-9.9-5.5-10.9-11.9c-1.4-9.2,3-15.9,12-18.4c5.1-1.4,10.2-1.4,15.2,0.4c5.1,1.8,8.9,5.2,10.1,10.8c0.7,3.1,0,5.8-3.1,7
		c-3.3,1.3-4.8-1.1-6.1-3.5c-3.2-6.2-6.5-8.4-11.4-7.3c-3.3,0.7-6.5,1.9-7,6c-0.5,4.2,2.4,5.9,5.7,7c4.8,1.7,9.8,3,14.6,4.9
		c6.7,2.7,10,7.9,9.8,15.2c-0.2,7.3-3.4,12.7-10.2,15.7C554.8,172.1,551.3,172.8,548,172.5z"/>
	<path class="st0" d="M209.9,142.9c0-7-0.1-14,0-21c0.1-5.8,1.8-7.4,7.5-7.4c8.3,0,16.7,0.1,25,0c3.5,0,6.7,0.3,6.6,4.7
		c-0.1,4-3,4.5-6.4,4.4c-6.2-0.1-12.3,0.1-18.5-0.1c-2.9-0.1-3.6,0.8-3.6,3.6c-0.1,10.4-0.2,10.4,10.3,10.4c3.7,0,7.3,0.1,11,0
		c2.9-0.1,5.1,0.9,5.2,4c0,3-2.1,4.2-5.1,4.1c-6-0.1-12,0.1-18-0.1c-2.6-0.1-3.6,0.7-3.4,3.3c0.2,3.5,0.2,7,0,10.5
		c-0.2,2.8,1,3.3,3.5,3.3c6.7-0.1,13.3,0,20-0.1c3.3-0.1,5.8,0.9,5.9,4.5c0.1,3.6-2.4,4.6-5.8,4.6c-9-0.1-18,0-27,0
		c-5.4,0-7.1-1.6-7.3-7.1C209.8,157.2,209.9,150,209.9,142.9z"/>
	<path class="st0" d="M378.4,167c-0.3,2.7-1.5,4.8-4.3,5.4c-2.7,0.6-4.5-0.8-5.5-3.2c-0.5-1.2-1-2.5-1.4-3.7
		c-2.9-7.9-2.9-7.9-11.6-7.9c-0.2,0-0.3,0-0.5,0c-10.8,0-10.8,0-14.6,9.9c-1.2,3.1-2.5,6.3-6.7,4.8c-3.7-1.3-4.1-4.8-3-7.9
		c5.4-15.4,10.9-30.7,16.5-46c1.1-3,3.2-4.9,6.8-4.9c3.5,0,5.8,1.8,6.9,4.8c5.8,15.6,11.4,31.2,17.1,46.8
		C378.3,165.6,378.3,166.3,378.4,167z M346.7,149.2c5.1,0,9.8,0,14.9,0c-2.5-7.7-4.9-15-7.6-23.2C351.3,134.5,349,141.8,346.7,149.2
		z"/>
	<path class="st0" d="M588.6,146.4c0-6-0.2-12,0.1-18c0.2-3.4-1.1-4.3-4.2-4c-2.5,0.2-5,0.1-7.5,0c-3.3,0-5-2-5-5c0-3,1.7-5,5-5
		c11.3,0,22.7,0,34,0c3.3,0,5,2,5,5c0,3-1.7,5-5,5c-0.5,0-1,0-1.5,0c-10.1,0.2-10.1,0.2-10.1,10c0,9.3,0,18.7,0,28
		c0,1.3,0.1,2.7-0.1,4c-0.4,3.2-1.5,6-5.3,6c-3.9,0-5.2-2.8-5.3-6C588.5,159.8,588.6,153.1,588.6,146.4
		C588.6,146.4,588.6,146.4,588.6,146.4z"/>
	<path class="st0" d="M311.5,143c0-7.5,0-15,0-22.5c0-3.6,0.8-6.9,5.3-7c4.5,0,5.3,3.5,5.4,7c0.1,15,0.1,30,0,45c0,3.4-0.9,7-5.4,7
		c-4.5,0-5.2-3.4-5.2-7C311.5,158,311.5,150.5,311.5,143z"/>
	<path class="st0" d="M507.5,142.5c0-7.3,0-14.7,0-22c0-3.6,0.8-6.9,5.2-7c4.5,0,5.4,3.5,5.4,6.9c0.1,15,0.1,30,0,45
		c0,3.4-0.9,7-5.4,7c-4.5,0-5.2-3.4-5.3-7C507.5,157.8,507.5,150.2,507.5,142.5z"/>
	<path class="st0" d="M237.9,100.1c-2.8,3.9-5.6,7.4-9.6,9.8c-1.4,0.9-3.4,1.3-4.6,0.1c-1-1,0.4-2.4,0.9-3.6
		C228.1,98.9,228.7,98.6,237.9,100.1z"/>
	<g id="Camera">
		<path class="st0" d="M104.6,68.7c0.5-4.5,3.4-6.3,7.6-6.3c13.7-0.1,27.3-0.1,41,0c5.3,0,8,2.7,8.1,8c0.1,4.2,0.1,8.3,0,12.5
			c-0.2,5.1-2.7,7.8-7.7,7.8c-13.8,0.1-27.7,0.1-41.5,0c-5.1,0-7.6-2.7-7.7-7.7c-0.1-4,0.1-8,0.2-12
			C104.5,70.2,104.5,69.5,104.6,68.7z"/>
		<path class="st0" d="M167.7,187.5c0.1,1.4,0.2,3-1.7,3c-2.1,0-2-1.9-2.3-3.3c-2.1-12.1-4.1-24.2-6.2-36.3
			c-2.9-17.2-5.8-34.4-8.7-51.6c-0.2-1-0.3-2-0.4-3c-0.1-1.1,0.4-2.1,1.5-2.3c1.1-0.2,1.9,0.5,2.2,1.6c0.4,1.8,0.7,3.6,1,5.4
			c4.8,28.2,9.6,56.4,14.3,84.6C167.5,186.2,167.6,186.8,167.7,187.5z"/>
		<path class="st0" d="M99.8,186.7c3-17.9,6-35.8,9.1-53.7c2-11.8,4-23.7,6-35.5c0.3-1.6-0.2-4.4,2.5-4c2.8,0.4,1.5,2.9,1.2,4.5
			c-4.9,29.4-9.9,58.8-14.9,88.2c-0.3,1.6,0,3.8-2.4,3.6C99.5,189.7,99.5,188.1,99.8,186.7z"/>
		<path class="st0" d="M144.5,61.4c-5.8-0.2-10.6-5.2-10.5-11.1c0.1-5.9,5.1-10.7,11-10.6c5.8,0.2,10.6,5.2,10.5,11.1
			C155.3,56.6,150.2,61.5,144.5,61.4z"/>
		<path class="st0" d="M131.5,50.7c-0.1,5.8-5.1,10.8-10.9,10.7c-5.8-0.1-10.6-5.2-10.5-11c0.1-5.9,5-10.7,10.9-10.6
			C126.8,39.8,131.6,44.8,131.5,50.7z"/>
		<path id="CameraLens" class="st0" d="M174.2,66.5c0,7.4,0,14.5,0,22.9c-3.4-4.2-10.7-1-10.9-8.4C163,69.8,163,69.8,174.2,66.5z"/>
		<path class="st0" d="M132.3,129c0-10.6,0-21.3,0-31.9c0-1.5-0.7-3.9,1.7-4c2.4-0.1,1.8,2.3,1.8,3.9c0,21.8,0,43.5,0,65.3
			c0,1.5,0.6,3.8-2,3.7c-2.1-0.1-1.6-2.2-1.6-3.6C132.3,151.2,132.3,140.1,132.3,129z"/>
		<path class="st0" d="M104.6,68.7c0,0.8,0,1.6-0.1,2.3c-1.2,0.4-2.4,1-3.6,1.3c-5.3,1.1-8-2-6.4-7.2c0.7-2.4,2.6-1.6,4.1-1.6
			c1.9-0.1,4.1-0.6,4.7,2.2C103.5,66.7,102.5,68.4,104.6,68.7z"/>
	</g>
</g>
</svg>
