<?xml version="1.0" encoding="utf-8"?>
<!-- Generator: Adobe Illustrator 16.0.0, SVG Export Plug-In . SVG Version: 6.00 Build 0)  -->
<!DOCTYPE svg PUBLIC "-//W3C//DTD SVG 1.1//EN" "http://www.w3.org/Graphics/SVG/1.1/DTD/svg11.dtd">
<svg version="1.1" id="Calque_1" xmlns="http://www.w3.org/2000/svg" xmlns:xlink="http://www.w3.org/1999/xlink" x="0px" y="0px"
	 width="800px" height="220px" viewBox="0 0 800 220" enable-background="new 0 0 800 220" xml:space="preserve">
<g>
	<path fill-rule="evenodd" clip-rule="evenodd" fill="#F8F8F8" d="M440.49,131.234c0.001-10.318-0.054-20.637,0.021-30.955
		c0.052-7.348,2.559-9.752,10.009-9.781c7.655-0.031,15.312-0.102,22.966,0.044c14.799,0.28,23.013,8.556,23.379,23.362
		c0.375,15.132-7.905,24.546-22.643,25.471c-5.141,0.322-10.318,0.322-15.469,0.15c-2.722-0.091-3.357,0.863-3.293,3.406
		c0.161,6.32,0.077,12.646,0.046,18.971c-0.036,7.231-2.529,10.664-7.631,10.603c-5.089-0.061-7.36-3.348-7.379-10.815
		C440.47,151.538,440.489,141.386,440.49,131.234z M463.481,102.396c-0.006,0.065-0.013,0.13-0.019,0.195
		c-0.998,0-2.024,0.152-2.989-0.026c-4.306-0.799-5.312,1.1-5.053,5.143c0.363,5.633,0.174,11.309,0.05,16.962
		c-0.046,2.104,0.476,2.978,2.749,2.861c4.475-0.229,8.968,0.171,13.419-0.783c6.66-1.426,9.847-5.123,9.863-11.721
		c0.017-7.072-2.977-10.663-10.102-11.851C468.789,102.742,466.122,102.646,463.481,102.396z"/>
	<path fill-rule="evenodd" clip-rule="evenodd" fill="#F8F8F8" d="M689.312,133.499c0,10.776,0.009,20.021-0.006,29.264
		c-0.004,2.157,0.116,4.327-0.672,6.418c-0.782,2.076-2.107,3.317-4.434,3.334c-2.581,0.017-3.995-1.431-4.622-3.732
		c-0.302-1.11-0.412-2.305-0.415-3.461c-0.026-14.493-0.02-28.986-0.013-43.479c0-0.665,0.078-1.329,0.124-1.993
		c0.219-3.139,1.649-5.456,4.79-6.236c3.246-0.806,5.373,0.929,6.964,3.578c6.164,10.261,12.341,20.514,18.52,30.766
		c0.686,1.138,1.419,2.246,2.452,3.875c1.106-3.742,0.521-7.143,0.569-10.462c0.103-6.995-0.035-13.993,0.063-20.989
		c0.047-3.263,0.428-6.753,4.783-6.816c4.648-0.067,5.042,3.449,5.044,6.99c0.007,14.66-0.006,29.32,0.009,43.979
		c0.004,3.293-0.202,6.65-3.955,7.774c-4,1.197-6.704-1.121-8.624-4.343c-6.124-10.279-12.172-20.604-18.257-30.906
		C691.176,136.285,690.654,135.551,689.312,133.499z"/>
	<path fill-rule="evenodd" clip-rule="evenodd" fill="#F8F8F8" d="M104.566,68.676c0.526-4.493,3.431-6.25,7.561-6.269
		c13.66-0.061,27.321-0.081,40.982,0.002c5.311,0.032,7.974,2.716,8.134,7.996c0.125,4.162,0.127,8.333-0.004,12.494
		c-0.161,5.105-2.719,7.797-7.716,7.833c-13.827,0.1-27.656,0.093-41.483,0c-5.061-0.034-7.623-2.653-7.744-7.748
		c-0.095-3.987,0.119-7.983,0.196-11.976C104.516,70.231,104.541,69.453,104.566,68.676z"/>
	<path fill-rule="evenodd" clip-rule="evenodd" fill="#F8F8F8" d="M258.089,142.545c0-7.157-0.053-14.315,0.019-21.473
		c0.048-4.734,2.447-6.881,7.289-6.633c4.485,0.229,8.991,0.037,13.487,0.051c11.856,0.038,18.754,5.005,21.904,16.389
		c2.639,9.539,2.477,19.151-1.462,28.361c-3.396,7.939-9.647,12.087-18.344,12.252c-5.327,0.101-10.663-0.119-15.986,0.061
		c-4.682,0.158-6.797-2.065-6.82-6.537c-0.04-7.49-0.011-14.979-0.011-22.47C258.139,142.546,258.114,142.546,258.089,142.545z
		 M268.675,142.522c0,5.332,0.228,10.677-0.082,15.99c-0.201,3.452,1.083,4.395,4.23,4.011c1.642-0.2,3.329-0.011,4.994-0.039
		c6.517-0.112,10.239-2.702,12.212-8.93c2.217-6.999,2.244-14.163,0.18-21.162c-1.284-4.354-4.145-7.385-9.058-8.268
		c-2.978-0.536-5.924-0.408-8.876-0.657c-2.795-0.237-3.793,0.656-3.665,3.563C268.838,132.186,268.675,137.357,268.675,142.522z"/>
	<path fill-rule="evenodd" clip-rule="evenodd" fill="#F8F8F8" d="M619.627,142.623c-0.254-3.531,0.396-6.992,1.235-10.36
		c2.878-11.536,11.498-18.568,22.717-18.774c13.245-0.243,21.744,5.704,25.237,18.024c2.617,9.23,2.315,18.47-1.631,27.288
		c-4.477,10.006-12.756,14.416-24.768,13.705c-9.803-0.581-17.709-6.844-20.815-16.641
		C620.242,151.574,619.387,147.17,619.627,142.623z M630.425,142.648c-0.142,4.39,0.562,8.639,2.438,12.61
		c2.39,5.056,6.347,8.169,12.052,8.17c5.667,0,9.858-2.959,12.114-8.052c3.612-8.153,3.57-16.581,0.111-24.729
		c-2.251-5.303-6.729-8.216-12.603-8.079c-5.702,0.133-9.639,3.271-11.887,8.416C631.037,134.679,630.324,138.604,630.425,142.648z"
		/>
	<path fill-rule="evenodd" clip-rule="evenodd" fill="#DDDEE4" d="M165.86,170.997c26.872-29.21,34.315-62.094,18.779-98.708
		c-7.897-18.612-21.726-32.219-39.901-41.071c-36.568-17.812-80.358-8-105.398,24.396c-25.342,32.786-23.851,77.093,2.831,108.239
		c26.166,30.544,73.437,41.762,114.979,13.874c1.453,2.611-0.937,3.14-2.298,4.029c-11.49,7.507-24.114,11.801-37.727,13.437
		c-40.859,4.908-79.713-19.37-93.122-58.279C7.052,87.729,35.495,35.231,85.967,22.709c9.292-2.305,18.643-2.539,28.284-1.526
		c7.226,0.759,14.424,1.229,21.237,3.706c29.133,10.596,48.751,30.629,56.235,60.774c7.589,30.568,1.148,58.434-20.299,82.23
		c-1.212,1.345-2.063,3.015-3.082,4.532C167.514,171.949,166.687,171.474,165.86,170.997z"/>
	<path fill-rule="evenodd" clip-rule="evenodd" fill="#F8F8F8" d="M547.972,172.513c-10.45-0.021-17.032-4.075-19.833-11.851
		c-0.635-1.764-0.941-3.548-0.793-5.378c0.179-2.195,1.344-3.788,3.538-4.317c2.239-0.54,3.918,0.44,4.937,2.431
		c0.906,1.77,1.587,3.655,2.507,5.416c3.284,6.284,11.752,7.715,16.955,2.905c4.337-4.008,3.107-10.567-2.694-12.898
		c-4.295-1.726-8.889-2.692-13.248-4.277c-5.607-2.04-9.874-5.514-10.852-11.853c-1.421-9.22,2.973-15.93,12.049-18.361
		c5.095-1.366,10.24-1.42,15.227,0.361c5.135,1.835,8.889,5.192,10.145,10.752c0.691,3.06,0.045,5.792-3.08,7.045
		c-3.283,1.317-4.784-1.065-6.089-3.544c-3.241-6.155-6.541-8.407-11.434-7.342c-3.282,0.715-6.521,1.928-7.017,6.009
		c-0.511,4.216,2.371,5.894,5.66,7.044c4.849,1.696,9.849,2.997,14.603,4.917c6.72,2.713,10.03,7.919,9.848,15.239
		c-0.182,7.337-3.396,12.712-10.208,15.74C554.802,172.058,551.261,172.797,547.972,172.513z"/>
	<path fill-rule="evenodd" clip-rule="evenodd" fill="#F8F8F8" d="M209.914,142.883c-0.001-6.996-0.11-13.993,0.033-20.985
		c0.12-5.812,1.82-7.379,7.542-7.4c8.328-0.033,16.656,0.069,24.982-0.046c3.499-0.049,6.685,0.336,6.615,4.683
		c-0.064,3.994-3.045,4.488-6.386,4.416c-6.16-0.134-12.329,0.106-18.484-0.102c-2.873-0.098-3.586,0.822-3.616,3.639
		c-0.111,10.402-0.226,10.401,10.28,10.401c3.664,0,7.332,0.098,10.992-0.03c2.935-0.103,5.146,0.913,5.176,3.973
		c0.031,3.019-2.06,4.169-5.053,4.113c-5.994-0.111-11.994,0.081-17.985-0.085c-2.581-0.071-3.559,0.651-3.388,3.34
		c0.222,3.483,0.234,7.004-0.002,10.485c-0.19,2.801,1.013,3.3,3.473,3.25c6.659-0.135,13.325,0.045,19.984-0.084
		c3.316-0.064,5.824,0.936,5.876,4.497c0.052,3.579-2.426,4.634-5.753,4.598c-8.993-0.098-17.988-0.005-26.981-0.044
		c-5.43-0.024-7.13-1.571-7.262-7.135C209.787,157.209,209.914,150.044,209.914,142.883z"/>
	<path fill-rule="evenodd" clip-rule="evenodd" fill="#F8F8F8" d="M378.427,167.028c-0.347,2.679-1.487,4.803-4.338,5.395
		c-2.703,0.562-4.453-0.808-5.458-3.244c-0.508-1.229-0.984-2.474-1.439-3.724c-2.888-7.942-2.885-7.943-11.597-7.943
		c-0.167,0-0.333,0-0.5,0c-10.801,0-10.818-0.007-14.584,9.912c-1.187,3.125-2.546,6.283-6.676,4.811
		c-3.745-1.335-4.112-4.756-2.997-7.948c5.364-15.364,10.882-30.676,16.462-45.964c1.092-2.991,3.22-4.886,6.786-4.881
		c3.525,0.005,5.809,1.82,6.91,4.773c5.805,15.566,11.437,31.199,17.106,46.816C378.324,165.644,378.321,166.339,378.427,167.028z
		 M346.686,149.245c5.12,0,9.841,0,14.93,0c-2.509-7.653-4.907-14.971-7.618-23.239
		C351.331,134.477,349.017,141.836,346.686,149.245z"/>
	<path fill-rule="evenodd" clip-rule="evenodd" fill="#F8F8F8" d="M588.6,146.449c0-5.999-0.221-12.009,0.086-17.992
		c0.176-3.438-1.067-4.294-4.195-3.993c-2.477,0.237-4.995,0.06-7.494,0.042c-3.312-0.024-4.981-2.002-4.974-5.021
		c0.008-3.025,1.71-4.987,5.01-4.99c11.331-0.011,22.662-0.015,33.993,0.003c3.314,0.005,4.97,2.021,4.952,5.038
		c-0.018,3.024-1.719,4.963-5.024,4.973c-0.5,0.002-1-0.004-1.5,0.004c-10.053,0.159-10.054,0.16-10.054,9.99
		c0,9.331,0.003,18.662-0.003,27.994c-0.001,1.332,0.063,2.677-0.088,3.995c-0.37,3.213-1.453,6.002-5.332,5.981
		c-3.872-0.021-5.172-2.84-5.27-6.031c-0.205-6.659-0.062-13.328-0.062-19.993C588.63,146.449,588.615,146.449,588.6,146.449z"/>
	<path fill-rule="evenodd" clip-rule="evenodd" fill="#F8F8F8" d="M311.501,142.996c0-7.493-0.021-14.985,0.01-22.478
		c0.015-3.603,0.779-6.947,5.25-6.96c4.479-0.013,5.344,3.491,5.369,6.964c0.109,14.984,0.118,29.971-0.007,44.955
		c-0.029,3.436-0.87,6.989-5.37,6.965c-4.471-0.024-5.228-3.369-5.242-6.969C311.48,157.98,311.501,150.488,311.501,142.996z"/>
	<path fill-rule="evenodd" clip-rule="evenodd" fill="#F8F8F8" d="M507.501,142.511c0-7.326-0.021-14.652,0.01-21.979
		c0.015-3.599,0.766-6.949,5.235-6.974c4.48-0.024,5.357,3.476,5.383,6.95c0.11,14.984,0.119,29.97-0.005,44.954
		c-0.029,3.435-0.859,6.992-5.357,6.979c-4.471-0.012-5.241-3.352-5.256-6.955C507.48,157.829,507.502,150.17,507.501,142.511z"/>
	<path fill-rule="evenodd" clip-rule="evenodd" fill="#F8F8F8" d="M167.683,187.479c0.087,1.365,0.191,2.955-1.673,2.976
		c-2.065,0.022-2.021-1.909-2.261-3.305c-2.086-12.103-4.123-24.213-6.169-36.321c-2.909-17.209-5.813-34.417-8.716-51.627
		c-0.166-0.982-0.338-1.966-0.44-2.956c-0.117-1.122,0.368-2.077,1.451-2.293c1.103-0.221,1.938,0.528,2.183,1.6
		c0.407,1.778,0.68,3.589,0.985,5.39c4.777,28.188,9.55,56.375,14.323,84.562C167.478,186.161,167.575,186.818,167.683,187.479z"/>
	<path fill-rule="evenodd" clip-rule="evenodd" fill="#F8F8F8" d="M99.836,186.712c3.018-17.901,6.033-35.803,9.053-53.704
		c1.996-11.823,3.958-23.653,6.046-35.461c0.281-1.589-0.18-4.42,2.502-4.049c2.767,0.383,1.458,2.889,1.188,4.505
		c-4.931,29.401-9.914,58.795-14.901,88.187c-0.264,1.557-0.012,3.751-2.44,3.606C99.525,189.691,99.548,188.104,99.836,186.712z"/>
	<path fill-rule="evenodd" clip-rule="evenodd" fill="#F8F8F8" d="M144.459,61.367c-5.829-0.173-10.598-5.239-10.454-11.108
		c0.145-5.905,5.129-10.705,10.958-10.553c5.838,0.153,10.61,5.193,10.469,11.058C155.292,56.612,150.196,61.536,144.459,61.367z"/>
	<path fill-rule="evenodd" clip-rule="evenodd" fill="#F8F8F8" d="M131.473,50.697c-0.099,5.847-5.146,10.784-10.905,10.667
		c-5.815-0.118-10.611-5.156-10.508-11.04c0.103-5.915,5.042-10.733,10.882-10.617C126.784,39.823,131.573,44.82,131.473,50.697z"/>
	<path fill-rule="evenodd" clip-rule="evenodd" fill="#F8F8F8" d="M174.184,66.505c0,7.376,0,14.463,0,22.913
		c-3.436-4.209-10.678-1.014-10.89-8.369C162.968,69.762,163.006,69.761,174.184,66.505z"/>
	<path fill-rule="evenodd" clip-rule="evenodd" fill="#F8F8F8" d="M132.26,128.98c0-10.632-0.016-21.265,0.018-31.896
		c0.005-1.548-0.675-3.899,1.723-3.952c2.447-0.054,1.813,2.322,1.815,3.856c0.032,21.763,0.031,43.526,0.009,65.289
		c-0.001,1.54,0.563,3.811-1.956,3.684c-2.056-0.104-1.593-2.168-1.596-3.588C132.25,151.242,132.26,140.111,132.26,128.98z"/>
	<path fill-rule="evenodd" clip-rule="evenodd" fill="#F8F8F8" d="M237.868,100.053c-2.759,3.876-5.564,7.434-9.572,9.816
		c-1.449,0.861-3.415,1.307-4.617,0.074c-0.957-0.98,0.362-2.438,0.902-3.598C228.057,98.879,228.651,98.598,237.868,100.053z"/>
	<path fill-rule="evenodd" clip-rule="evenodd" fill="#F8F8F8" d="M104.566,68.676c-0.024,0.777-0.049,1.556-0.074,2.333
		c-1.208,0.432-2.385,1.008-3.629,1.269c-5.321,1.115-8.008-2.021-6.399-7.237c0.743-2.407,2.613-1.559,4.089-1.605
		c1.875-0.06,4.119-0.644,4.733,2.249C103.506,66.726,102.463,68.414,104.566,68.676z"/>
</g>
</svg>
