<svg id="Calque_1" data-name="Calque 1" xmlns="http://www.w3.org/2000/svg" viewBox="0 0 801.19 221.35">
  <defs>
    <style>
      .cls-1, .cls-4 {
        fill: #050936;
      }

      .cls-2 {
        fill: #f8f8f8;
      }

      .cls-2, .cls-3, .cls-4 {
        fill-rule: evenodd;
      }

      .cls-3 {
        fill: #dddee4;
      }
    </style>
  </defs>
  <title>mediapiston</title>
  <g>
    <path class="cls-1" d="M801.5,1.5q0,107.75.1,215.5c0,3.75-.85,4.59-4.6,4.59q-397.75-.15-795.5-0.09,0-107-.12-214c0-5,1.2-6.12,6.16-6.12Q404.52,1.59,801.5,1.5ZM104.49,71c-0.08,4-.29,8-0.2,12,0.12,5.09,2.68,7.71,7.74,7.75q20.74,0.14,41.48,0c5,0,7.55-2.73,7.72-7.83q0.2-6.24,0-12.49c-0.16-5.28-2.82-8-8.13-8q-20.49-.12-41,0c-4.13,0-7,1.78-7.56,6.27-2.1-.26-1.06-2-1.28-3-0.61-2.89-2.86-2.31-4.73-2.25-1.48,0-3.35-.8-4.09,1.61-1.61,5.22,1.08,8.35,6.4,7.24A28.49,28.49,0,0,0,104.49,71Zm336,60.23c0,10.15,0,20.3,0,30.46,0,7.47,2.29,10.75,7.38,10.82s7.59-3.37,7.63-10.6c0-6.32.12-12.65,0-19-0.06-2.54.57-3.5,3.29-3.41,5.15,0.17,10.33.17,15.47-.15,14.74-.92,23-10.34,22.64-25.47-0.37-14.81-8.58-23.08-23.38-23.36-7.65-.15-15.31-0.08-23,0-7.45,0-10,2.43-10,9.78C440.44,110.6,440.49,120.92,440.49,131.23Zm248.82,2.26c1.34,2.05,1.86,2.79,2.32,3.56,6.08,10.3,12.13,20.63,18.26,30.91,1.92,3.22,4.62,5.54,8.62,4.34,3.75-1.12,4-4.48,4-7.77q0-22,0-44c0-3.54-.4-7.06-5-7-4.36.06-4.74,3.55-4.78,6.82-0.1,7,0,14-.06,21,0,3.32.54,6.72-.57,10.46-1-1.63-1.77-2.74-2.45-3.87q-9.27-15.38-18.52-30.77c-1.59-2.65-3.72-4.38-7-3.58s-4.57,3.1-4.79,6.24c0,0.66-.12,1.33-0.12,2q0,21.74,0,43.48a13.46,13.46,0,0,0,.41,3.46c0.63,2.3,2,3.75,4.62,3.73,2.33,0,3.65-1.26,4.43-3.33a17.79,17.79,0,0,0,.67-6.42C689.32,153.52,689.31,144.28,689.31,133.5Zm-431.22,9h0.08c0,7.49,0,15,0,22.47,0,4.47,2.14,6.7,6.82,6.54,5.32-.18,10.66,0,16-0.06,8.7-.17,14.95-4.31,18.34-12.25,3.94-9.21,4.1-18.82,1.46-28.36-3.15-11.38-10-16.35-21.9-16.39-4.5,0-9,.18-13.49-0.05-4.84-.25-7.24,1.9-7.29,6.63C258,128.23,258.09,135.39,258.09,142.54Zm361.53,0.08a37.27,37.27,0,0,0,2,13.25c3.11,9.8,11,16.06,20.82,16.64,12,0.71,20.29-3.7,24.77-13.71,3.95-8.82,4.25-18.06,1.63-27.29-3.49-12.32-12-18.27-25.24-18-11.22.21-19.84,7.24-22.72,18.77A33.15,33.15,0,0,0,619.62,142.62ZM165.86,171l2.48,1.43a39,39,0,0,1,3.08-4.53c21.45-23.8,27.89-51.66,20.3-82.23-7.48-30.15-27.1-50.18-56.23-60.77-6.81-2.48-14-2.95-21.24-3.71A80.9,80.9,0,0,0,86,22.71a87.81,87.81,0,0,0,31.16,172.48,86.81,86.81,0,0,0,37.73-13.44c1.36-.89,3.75-1.42,2.3-4-41.54,27.89-88.81,16.67-115-13.87C15.49,132.71,14,88.4,39.34,55.61a85.39,85.39,0,0,1,105.4-24.4c18.18,8.85,32,22.46,39.9,41.07C200.17,108.9,192.73,141.79,165.86,171ZM548,172.51a21.05,21.05,0,0,0,10.22-2c6.81-3,10-8.4,10.21-15.74s-3.13-12.53-9.85-15.24c-4.75-1.92-9.75-3.22-14.6-4.92-3.29-1.15-6.17-2.83-5.66-7s3.73-5.29,7-6c4.89-1.07,8.19,1.19,11.43,7.34,1.3,2.48,2.81,4.86,6.09,3.54,3.12-1.25,3.77-4,3.08-7-1.26-5.56-5-8.92-10.14-10.75a25.15,25.15,0,0,0-15.23-.36c-9.08,2.43-13.47,9.14-12,18.36,1,6.34,5.24,9.81,10.85,11.85,4.36,1.58,9,2.55,13.25,4.28,5.8,2.33,7,8.89,2.69,12.9a10.87,10.87,0,0,1-17-2.91c-0.92-1.76-1.6-3.65-2.51-5.42a4.12,4.12,0,0,0-4.94-2.43,4.46,4.46,0,0,0-3.54,4.32,12.7,12.7,0,0,0,.79,5.38C530.94,168.44,537.52,172.49,548,172.51ZM209.91,142.88c0,7.16-.13,14.33,0,21.48,0.13,5.56,1.83,7.11,7.26,7.13,9,0,18-.05,27,0,3.33,0,5.81-1,5.75-4.6s-2.56-4.56-5.88-4.5c-6.66.13-13.33-.05-20,0.08-2.46,0-3.66-.45-3.47-3.25a80,80,0,0,0,0-10.49c-0.17-2.69.81-3.41,3.39-3.34,6,0.17,12,0,18,.08,3,0.06,5.08-1.09,5.05-4.11s-2.24-4.08-5.18-4c-3.66.13-7.33,0-11,0-10.51,0-10.39,0-10.28-10.4,0-2.82.74-3.74,3.62-3.64,6.16,0.21,12.32,0,18.48.1,3.34,0.07,6.32-.42,6.39-4.42,0.07-4.35-3.12-4.73-6.61-4.68-8.33.12-16.65,0-25,0-5.72,0-7.42,1.59-7.54,7.4C209.8,128.89,209.91,135.89,209.91,142.88ZM378.43,167a10.84,10.84,0,0,0-.32-2c-5.67-15.62-11.3-31.25-17.11-46.82a6.89,6.89,0,0,0-6.91-4.77,6.73,6.73,0,0,0-6.79,4.88q-8.37,22.93-16.46,46c-1.12,3.19-.75,6.61,3,7.95,4.13,1.47,5.49-1.69,6.68-4.81,3.77-9.92,3.78-9.91,14.58-9.91h0.5c8.71,0,8.71,0,11.6,7.94,0.46,1.25.93,2.49,1.44,3.72,1,2.44,2.75,3.81,5.46,3.24S378.08,169.71,378.43,167ZM588.6,146.45h0c0,6.67-.14,13.33.06,20,0.1,3.19,1.4,6,5.27,6s5-2.77,5.33-6a35.35,35.35,0,0,0,.09-4q0-14,0-28c0-9.83,0-9.83,10.05-10H611c3.31,0,5-1.95,5-5s-1.64-5-5-5q-17,0-34,0c-3.3,0-5,2-5,5s1.66,5,5,5a73.49,73.49,0,0,0,7.49,0c3.13-.3,4.37.56,4.2,4C588.38,134.44,588.6,140.45,588.6,146.45ZM311.5,143c0,7.49,0,15,0,22.48,0,3.6.77,6.94,5.24,7s5.34-3.53,5.37-7q0.19-22.48,0-45c0-3.47-.89-7-5.37-7s-5.24,3.36-5.25,7C311.48,128,311.5,135.5,311.5,143Zm196-.49c0,7.66,0,15.32,0,23,0,3.6.79,6.94,5.26,7s5.33-3.54,5.36-7q0.19-22.48,0-45c0-3.47-.9-7-5.38-7s-5.22,3.37-5.24,7C507.48,127.86,507.5,135.18,507.5,142.51Zm-339.82,45c-0.1-.66-0.2-1.31-0.31-2q-7.16-42.28-14.32-84.56c-0.31-1.8-.58-3.61-1-5.39a1.87,1.87,0,0,0-2.18-1.6,1.92,1.92,0,0,0-1.45,2.29c0.1,1,.27,2,0.44,3q4.35,25.81,8.72,51.63,3.07,18.16,6.17,36.32c0.24,1.4.2,3.33,2.26,3.3C167.87,190.43,167.77,188.84,167.68,187.48Zm-67.84-.76c-0.29,1.39-.31,3,1.45,3.08,2.43,0.14,2.18-2,2.44-3.61q7.48-44.09,14.9-88.19c0.27-1.62,1.58-4.12-1.19-4.5s-2.22,2.46-2.5,4c-2.09,11.81-4.05,23.64-6,35.46Q104.36,159.86,99.84,186.71ZM144.46,61.37a10.83,10.83,0,0,0,.5-21.66A10.83,10.83,0,0,0,144.46,61.37Zm-13-10.67a10.71,10.71,0,1,0-10.9,10.67A10.88,10.88,0,0,0,131.47,50.7ZM174.18,66.5C163,69.76,163,69.76,163.29,81c0.21,7.36,7.45,4.16,10.89,8.37V66.5ZM132.26,129q0,16.7,0,33.39c0,1.42-.46,3.48,1.6,3.59,2.52,0.13,2-2.14,2-3.68q0-32.64,0-65.29c0-1.53.63-3.91-1.81-3.86s-1.72,2.4-1.72,4C132.24,107.72,132.26,118.35,132.26,129Zm105.61-28.93c-9.22-1.45-9.81-1.17-13.29,6.29-0.54,1.16-1.86,2.62-.9,3.6,1.2,1.23,3.17.79,4.62-.07C232.3,107.49,235.11,103.93,237.87,100.05Z" transform="translate(-0.4 -0.24)"/>
    <path class="cls-2" d="M801.5,1.5q-397,0-794-.11c-5,0-6.18,1.08-6.16,6.12q0.28,107,.12,214c-1.6.34-1-.89-1-1.5Q0.49,111.5.44,3C0.44,0.85.85,0.05,3,.48a10.47,10.47,0,0,0,2,0q396,0,792,.06C798.46,0.56,800.39-.59,801.5,1.5Z" transform="translate(-0.4 -0.24)"/>
    <path class="cls-2" d="M440.49,131.23c0-10.32-.05-20.64,0-31,0.05-7.35,2.56-9.75,10-9.78,7.66,0,15.31-.1,23,0,14.8,0.28,23,8.56,23.38,23.36,0.38,15.13-7.91,24.55-22.64,25.47-5.14.32-10.32,0.32-15.47,0.15-2.72-.09-3.36.86-3.29,3.41,0.16,6.32.08,12.65,0,19,0,7.23-2.53,10.66-7.63,10.6s-7.36-3.35-7.38-10.82C440.47,151.54,440.49,141.39,440.49,131.23Zm23-28.84,0,0.2a16.67,16.67,0,0,1-3,0c-4.31-.8-5.31,1.1-5.05,5.14,0.36,5.63.17,11.31,0,17,0,2.1.48,3,2.75,2.86,4.47-.23,9,0.17,13.42-0.78,6.66-1.43,9.85-5.12,9.86-11.72,0-7.07-3-10.66-10.1-11.85C468.79,102.74,466.12,102.65,463.48,102.4Z" transform="translate(-0.4 -0.24)"/>
    <path class="cls-2" d="M689.31,133.5c0,10.78,0,20,0,29.26a17.79,17.79,0,0,1-.67,6.42c-0.78,2.08-2.11,3.32-4.43,3.33-2.58,0-4-1.43-4.62-3.73a13.46,13.46,0,0,1-.41-3.46q0-21.74,0-43.48c0-.67.08-1.33,0.12-2,0.22-3.14,1.65-5.46,4.79-6.24s5.37,0.93,7,3.58q9.25,15.39,18.52,30.77c0.69,1.14,1.42,2.25,2.45,3.87,1.11-3.74.52-7.14,0.57-10.46,0.1-7,0-14,.06-21,0-3.26.43-6.75,4.78-6.82,4.65-.07,5,3.45,5,7q0,22,0,44c0,3.29-.2,6.65-4,7.77-4,1.2-6.7-1.12-8.62-4.34-6.12-10.28-12.17-20.6-18.26-30.91C691.18,136.29,690.65,135.55,689.31,133.5Z" transform="translate(-0.4 -0.24)"/>
    <path class="cls-2" d="M104.57,68.68c0.53-4.49,3.43-6.25,7.56-6.27q20.49-.09,41,0c5.31,0,8,2.72,8.13,8q0.19,6.24,0,12.49c-0.16,5.11-2.72,7.8-7.72,7.83q-20.74.15-41.48,0c-5.06,0-7.62-2.65-7.74-7.75-0.09-4,.12-8,0.2-12Q104.53,69.84,104.57,68.68Z" transform="translate(-0.4 -0.24)"/>
    <path class="cls-2" d="M258.09,142.54c0-7.16-.05-14.32,0-21.47,0-4.73,2.45-6.88,7.29-6.63,4.48,0.23,9,0,13.49.05,11.86,0,18.75,5,21.9,16.39,2.64,9.54,2.48,19.15-1.46,28.36-3.4,7.94-9.65,12.09-18.34,12.25-5.33.1-10.66-.12-16,0.06-4.68.16-6.8-2.07-6.82-6.54,0-7.49,0-15,0-22.47h-0.08Zm10.59,0c0,5.33.23,10.68-.08,16-0.2,3.45,1.08,4.39,4.23,4a48.35,48.35,0,0,1,5,0c6.52-.11,10.24-2.7,12.21-8.93a35.68,35.68,0,0,0,.18-21.16,10.94,10.94,0,0,0-9.06-8.27c-3-.54-5.92-0.41-8.88-0.66-2.8-.24-3.79.66-3.67,3.56C268.84,132.19,268.67,137.36,268.67,142.52Z" transform="translate(-0.4 -0.24)"/>
    <path class="cls-2" d="M619.63,142.62a33,33,0,0,1,1.24-10.36c2.88-11.54,11.5-18.57,22.72-18.77,13.25-.24,21.74,5.7,25.24,18,2.62,9.23,2.32,18.47-1.63,27.29-4.48,10-12.76,14.42-24.77,13.71-9.8-.58-17.71-6.84-20.82-16.64A37.17,37.17,0,0,1,619.63,142.62Zm10.8,0a27.08,27.08,0,0,0,2.44,12.61c2.39,5.06,6.35,8.17,12.05,8.17s9.86-3,12.11-8.05a30.15,30.15,0,0,0,.11-24.73,12.66,12.66,0,0,0-12.6-8.08c-5.7.13-9.64,3.27-11.89,8.42A27.18,27.18,0,0,0,630.42,142.65Z" transform="translate(-0.4 -0.24)"/>
    <path class="cls-3" d="M165.86,171c26.87-29.21,34.32-62.09,18.78-98.71-7.9-18.61-21.73-32.22-39.9-41.07a85.39,85.39,0,0,0-105.4,24.4C14,88.4,15.49,132.71,42.17,163.85c26.17,30.54,73.44,41.76,115,13.87,1.45,2.61-.94,3.14-2.3,4A88.2,88.2,0,0,1,24,136.91,87.72,87.72,0,0,1,86,22.71a80.9,80.9,0,0,1,28.28-1.53c7.23,0.76,14.42,1.23,21.24,3.71,29.13,10.6,48.75,30.63,56.23,60.77,7.59,30.57,1.15,58.43-20.3,82.23a39,39,0,0,0-3.08,4.53Z" transform="translate(-0.4 -0.24)"/>
    <path class="cls-2" d="M548,172.51c-10.45,0-17-4.08-19.83-11.85a12.7,12.7,0,0,1-.79-5.38,4.46,4.46,0,0,1,3.54-4.32,4.12,4.12,0,0,1,4.94,2.43c0.91,1.77,1.59,3.66,2.51,5.42a10.87,10.87,0,0,0,17,2.91c4.34-4,3.11-10.57-2.69-12.9-4.29-1.73-8.89-2.69-13.25-4.28-5.61-2-9.87-5.51-10.85-11.85-1.42-9.22,3-15.93,12-18.36a25.15,25.15,0,0,1,15.23.36c5.13,1.84,8.89,5.19,10.14,10.75,0.69,3.06,0,5.79-3.08,7-3.28,1.32-4.78-1.07-6.09-3.54-3.24-6.16-6.54-8.41-11.43-7.34-3.28.71-6.52,1.93-7,6s2.37,5.89,5.66,7c4.85,1.7,9.85,3,14.6,4.92,6.72,2.71,10,7.92,9.85,15.24s-3.4,12.71-10.21,15.74A21.05,21.05,0,0,1,548,172.51Z" transform="translate(-0.4 -0.24)"/>
    <path class="cls-2" d="M209.91,142.88c0-7-.11-14,0-21,0.12-5.81,1.82-7.38,7.54-7.4,8.33,0,16.66.07,25,0,3.5,0,6.68.34,6.61,4.68-0.06,4-3,4.49-6.39,4.42-6.16-.13-12.33.11-18.48-0.1-2.87-.1-3.59.82-3.62,3.64-0.11,10.4-.23,10.4,10.28,10.4,3.66,0,7.33.1,11,0,2.93-.1,5.15.91,5.18,4S245,145.6,242,145.54c-6-.11-12,0.08-18-0.08-2.58-.07-3.56.65-3.39,3.34a80,80,0,0,1,0,10.49c-0.19,2.8,1,3.3,3.47,3.25,6.66-.13,13.33,0,20-0.08,3.32-.06,5.82.94,5.88,4.5s-2.43,4.63-5.75,4.6c-9-.1-18,0-27,0-5.43,0-7.13-1.57-7.26-7.13C209.79,157.21,209.91,150,209.91,142.88Z" transform="translate(-0.4 -0.24)"/>
    <path class="cls-2" d="M378.43,167c-0.35,2.68-1.49,4.8-4.34,5.39s-4.45-.81-5.46-3.24c-0.51-1.23-1-2.47-1.44-3.72-2.89-7.94-2.88-7.94-11.6-7.94h-0.5c-10.8,0-10.82,0-14.58,9.91-1.19,3.12-2.55,6.28-6.68,4.81-3.75-1.33-4.11-4.76-3-7.95q8-23,16.46-46a6.73,6.73,0,0,1,6.79-4.88,6.89,6.89,0,0,1,6.91,4.77c5.8,15.57,11.44,31.2,17.11,46.82A10.84,10.84,0,0,1,378.43,167Zm-31.74-17.78h14.93L354,126Z" transform="translate(-0.4 -0.24)"/>
    <path class="cls-2" d="M588.6,146.45c0-6-.22-12,0.09-18,0.18-3.44-1.07-4.29-4.2-4a73.49,73.49,0,0,1-7.49,0c-3.31,0-5-2-5-5s1.71-5,5-5q17,0,34,0c3.31,0,5,2,5,5s-1.72,5-5,5h-1.5c-10.05.16-10.05,0.16-10.05,10q0,14,0,28a35.35,35.35,0,0,1-.09,4c-0.37,3.21-1.45,6-5.33,6s-5.17-2.84-5.27-6c-0.21-6.66-.06-13.33-0.06-20h0Z" transform="translate(-0.4 -0.24)"/>
    <path class="cls-2" d="M311.5,143c0-7.49,0-15,0-22.48,0-3.6.78-6.95,5.25-7s5.34,3.49,5.37,7q0.16,22.48,0,45c0,3.44-.87,7-5.37,7s-5.23-3.37-5.24-7C311.48,158,311.5,150.49,311.5,143Z" transform="translate(-0.4 -0.24)"/>
    <path class="cls-2" d="M507.5,142.51c0-7.33,0-14.65,0-22,0-3.6.77-6.95,5.24-7s5.36,3.48,5.38,7q0.17,22.48,0,45c0,3.43-.86,7-5.36,7s-5.24-3.35-5.26-7C507.48,157.83,507.5,150.17,507.5,142.51Z" transform="translate(-0.4 -0.24)"/>
    <path class="cls-3" d="M167.68,187.48c0.09,1.37.19,3-1.67,3-2.07,0-2-1.91-2.26-3.3q-3.13-18.15-6.17-36.32Q153.22,125,148.86,99.2c-0.17-1-.34-2-0.44-3A1.92,1.92,0,0,1,149.87,94a1.87,1.87,0,0,1,2.18,1.6c0.41,1.78.68,3.59,1,5.39q7.17,42.28,14.32,84.56C167.48,186.16,167.58,186.82,167.68,187.48Z" transform="translate(-0.4 -0.24)"/>
    <path class="cls-3" d="M99.84,186.71q4.53-26.85,9.05-53.7c2-11.82,4-23.65,6-35.46,0.28-1.59-.18-4.42,2.5-4s1.46,2.89,1.19,4.5q-7.4,44.1-14.9,88.19c-0.26,1.56,0,3.75-2.44,3.61C99.52,189.69,99.55,188.1,99.84,186.71Z" transform="translate(-0.4 -0.24)"/>
    <path class="cls-2" d="M144.46,61.37a10.83,10.83,0,1,1,11-10.6A10.94,10.94,0,0,1,144.46,61.37Z" transform="translate(-0.4 -0.24)"/>
    <path class="cls-2" d="M131.47,50.7a10.71,10.71,0,1,1-21.41-.37A10.71,10.71,0,1,1,131.47,50.7Z" transform="translate(-0.4 -0.24)"/>
    <path class="cls-2" d="M174.18,66.5V89.42c-3.44-4.21-10.68-1-10.89-8.37C163,69.76,163,69.76,174.18,66.5Z" transform="translate(-0.4 -0.24)"/>
    <path class="cls-2" d="M132.26,129c0-10.63,0-21.26,0-31.9,0-1.55-.68-3.9,1.72-4s1.81,2.32,1.81,3.86q0,32.64,0,65.29c0,1.54.56,3.81-2,3.68-2.06-.1-1.59-2.17-1.6-3.59Q132.24,145.68,132.26,129Z" transform="translate(-0.4 -0.24)"/>
    <path class="cls-2" d="M237.87,100.05c-2.76,3.88-5.56,7.43-9.57,9.82-1.45.86-3.41,1.31-4.62,0.07-1-1,.36-2.44.9-3.6C228.06,98.88,228.65,98.6,237.87,100.05Z" transform="translate(-0.4 -0.24)"/>
    <path class="cls-3" d="M104.57,68.68q0,1.17-.07,2.33a28.49,28.49,0,0,1-3.63,1.27c-5.32,1.12-8-2-6.4-7.24,0.74-2.41,2.61-1.56,4.09-1.61,1.88-.06,4.12-0.64,4.73,2.25C103.51,66.73,102.46,68.41,104.57,68.68Z" transform="translate(-0.4 -0.24)"/>
    <path class="cls-4" d="M463.48,102.4c2.64,0.25,5.31.35,7.92,0.78,7.12,1.19,10.12,4.78,10.1,11.85,0,6.6-3.2,10.29-9.86,11.72-4.45,1-8.94.55-13.42,0.78-2.27.12-2.79-.76-2.75-2.86,0.12-5.65.31-11.33,0-17-0.26-4,.75-5.94,5.05-5.14a16.67,16.67,0,0,0,3,0Z" transform="translate(-0.4 -0.24)"/>
    <path class="cls-4" d="M268.67,142.52c0-5.17.16-10.34-.06-15.49-0.13-2.91.87-3.8,3.67-3.56,3,0.25,5.9.12,8.88,0.66a10.94,10.94,0,0,1,9.06,8.27,35.68,35.68,0,0,1-.18,21.16c-2,6.23-5.69,8.82-12.21,8.93a48.35,48.35,0,0,0-5,0c-3.15.38-4.43-.56-4.23-4C268.9,153.2,268.67,147.85,268.67,142.52Z" transform="translate(-0.4 -0.24)"/>
    <path class="cls-4" d="M630.42,142.65A27.29,27.29,0,0,1,632.65,131c2.25-5.15,6.18-8.28,11.89-8.42a12.66,12.66,0,0,1,12.6,8.08,30.15,30.15,0,0,1-.11,24.73c-2.26,5.09-6.45,8.05-12.11,8.05s-9.66-3.11-12.05-8.17A27.16,27.16,0,0,1,630.42,142.65Z" transform="translate(-0.4 -0.24)"/>
    <path class="cls-4" d="M346.69,149.25L354,126l7.62,23.24H346.69Z" transform="translate(-0.4 -0.24)"/>
  </g>
</svg>
