<?xml version="1.0" encoding="utf-8"?>
<!-- Generator: Adobe Illustrator 21.0.0, SVG Export Plug-In . SVG Version: 6.00 Build 0)  -->
<svg version="1.1" id="Calque_1" xmlns="http://www.w3.org/2000/svg" xmlns:xlink="http://www.w3.org/1999/xlink" x="0px" y="0px"
	 viewBox="0 0 493 220" style="enable-background:new 0 0 493 220;" xml:space="preserve">
<style type="text/css">
	.st0{fill:#FBFBFB;}
	.st1{fill:#D8D9E0;}
	.st2{fill:#FDFDFD;}
	.st3{fill:#F5F5F6;}
	.st4{fill:#F7F7F9;}
</style>
<g>
	<path class="st0" d="M228.3,147.9c0,7.5,0,15,0,22.5c0,1,0,2,0,3c-0.4,6.3-2.6,9.2-6.9,9.1c-4.3-0.1-6.4-3.1-6.4-9.5
		c0-20,0-40,0-60c0-7.4,2.2-9.5,9.5-9.5c7.3,0,14.7,0,22,0c11.9,0,19.3,5.7,21.3,16.1c2.3,12-2.4,20.9-13.3,25.3
		c-0.6,0.2-1.2,0.5-2.1,0.8c7.9,7.2,12.5,16.3,16,26c1.9,5.3,0.8,8.8-2.8,10.3c-3.6,1.6-6.7,0.1-9.4-5c-3.9-7.3-7.6-14.8-11.5-22.1
		C241.1,148.5,235.6,146.4,228.3,147.9z M228.5,136.8c6.3-0.4,12.3-0.4,18.1-1.2c5.7-0.8,7.8-3.9,7.8-9.7c0-5.8-2.2-9-7.7-9.7
		c-6-0.8-12-0.7-18.3-1C228.5,122.7,228.5,129.2,228.5,136.8z"/>
	<path class="st0" d="M293.7,115.5c0,6.6,0,12.4,0,19c8.8,0,17.5-0.2,26.2,0.1c2,0.1,4.8,1,5.9,2.6c3,3.9-0.1,9.2-5.2,9.3
		c-8.8,0.1-17.6,0-26.7,0c0,7.7,0,15.1,0,23c9.6,0,19.2,0,28.8,0c5.5,0,7.8,1.8,7.6,6.2c-0.2,4.8-3.2,5.9-7.5,5.9
		c-11.3-0.1-22.6,0-34,0c-6.4,0-8.8-2.2-8.8-8.7c-0.1-20.3-0.1-40.6,0-60.9c0-6.1,2.5-8.4,8.6-8.4c11,0,22,0,33,0
		c5.6,0,7.8,1.8,7.7,6.1c-0.2,4.8-3.2,6-7.5,5.9C312.6,115.4,303.3,115.5,293.7,115.5z"/>
	<path class="st1" d="M123.1,23.5c47.2,0,82.9,35.9,82.9,83.4c0,47.1-36.1,82.7-83.6,82.7C75.6,189.5,40,153.4,40,106.1
		C40,59.2,76,23.5,123.1,23.5z M123.1,26c-44.5,0-80.5,35.9-80.5,80.4c0,44.5,35.9,80.5,80.4,80.5c44.5,0,80.5-35.9,80.5-80.4
		C203.5,62.1,167.6,26.1,123.1,26z"/>
	<path class="st2" d="M369,116.5c0,19,0,37.3,0,55.6c0,7.2-2,10.4-6.5,10.4c-4.5,0-6.7-3.1-6.7-10.3c0-16.8,0-33.6,0-50.4
		c0-1.6,0-3.2,0-5.3c-5.1,0-9.7,0.1-14.3,0c-4.6-0.1-7-2.5-6.8-6.7c0.2-4.2,2.5-6.3,6.8-6.3c14,0,28,0,42,0c4.2,0,6.5,2,6.7,6.3
		c0.1,4.4-2.1,6.6-6.8,6.7C378.8,116.6,374.1,116.5,369,116.5z"/>
	<path class="st3" d="M318.7,96.7c-9.7,3.5-11.3-4.4-15.4-9.1c-4.3,4.1-5.7,13-15.4,9.1c3-4.6,5.3-10,9.3-13.3
		c2.4-2,8.9-2.3,11.2-0.5C312.7,86.3,315.3,91.9,318.7,96.7z"/>
	<path id="SD_card" class="st4" d="M187.9,85.4c-7.5,2-7.4,2.3-7.6,13.5c-0.1,5.2,2,7.8,7.6,8.2c0,7.4,0.2,14.7-0.1,21.9
		c-0.2,4-3.2,5.3-7.1,5.3c-13.8-0.1-27.7,0-41.5,0c-1.8,0-3.7,0-6.2,0c0,6.8,0,13.6,0,20.4c0,5.2,0.1,10.3-0.1,15.5
		c-0.3,6.6-4.4,11.1-9.8,11.3c-5.4,0.2-9.2-3.4-10.4-10c-0.4-2.1-0.5-4.3-0.5-6.5c0-31,0-62,0-93c0-2.3,0.2-4.7,0.6-6.9
		c1.2-6.2,4.6-9.5,11-9.5c16.2-0.1,32.3-0.1,48.5,0.1c6.1,0.1,15.5,9.9,15.6,16C188,76.2,187.9,80.7,187.9,85.4z M128.5,111.8
		c0,2.8,0,5.3,0,7.7c0.1,4.3,2.6,6.5,6.6,6.6c12.5,0.1,24.9,0.1,37.4,0c3.4,0,5.8-1.7,6.2-5.2c0.3-3,0.1-6.2,0.1-9.1
		C161.7,111.8,145.4,111.8,128.5,111.8z M147.2,72.9c0-2.8,0.4-5.7-0.2-8.4c-0.3-1.5-2.2-2.8-3.3-4.1c-1.2,1.3-3.3,2.6-3.4,4
		c-0.4,5.6-0.4,11.3,0,16.9c0.1,1.3,2.3,2.5,3.6,3.8c1.1-1.2,3-2.3,3.2-3.7C147.5,78.6,147.2,75.8,147.2,72.9z M133,72.4
		c0-2.7,0.4-5.4-0.2-7.9c-0.4-1.5-2.2-2.7-3.4-4.1c-1.2,1.4-3.3,2.7-3.4,4.1c-0.4,5.4-0.4,11,0,16.4c0.1,1.4,2.2,2.7,3.4,4.1
		c1.2-1.4,3.1-2.6,3.4-4.1C133.4,78.1,133,75.2,133,72.4z M160.1,73.1c0-3,0.3-6-0.1-8.9c-0.1-1.1-1.9-2.6-2.9-2.7c-1,0-3,1.6-3,2.5
		c-0.3,5.8-0.3,11.6,0,17.4c0.1,1.2,2.1,2.3,3.2,3.4c1-1.3,2.5-2.4,2.8-3.8C160.4,78.5,160.1,75.8,160.1,73.1z"/>
</g>
</svg>
