<?xml version="1.0" encoding="utf-8"?>
<!-- Generator: Adobe Illustrator 16.0.0, SVG Export Plug-In . SVG Version: 6.00 Build 0)  -->
<!DOCTYPE svg PUBLIC "-//W3C//DTD SVG 1.1//EN" "http://www.w3.org/Graphics/SVG/1.1/DTD/svg11.dtd">
<svg version="1.1" id="Calque_1" xmlns="http://www.w3.org/2000/svg" xmlns:xlink="http://www.w3.org/1999/xlink" x="0px" y="0px"
	 width="493px" height="220px" viewBox="0 0 493 220" enable-background="new 0 0 493 220" xml:space="preserve">
<g>
	<path fill-rule="evenodd" clip-rule="evenodd" fill="#FBFBFB" d="M228.348,147.923c0,7.523,0,14.992,0,22.461
		c0,1,0.039,2.002-0.018,2.999c-0.355,6.285-2.596,9.223-6.927,9.12c-4.265-0.101-6.385-3.146-6.396-9.491
		c-0.033-19.992-0.038-39.985,0.001-59.979c0.015-7.412,2.166-9.521,9.46-9.535c7.331-0.016,14.662-0.021,21.993,0.001
		c11.892,0.035,19.324,5.67,21.314,16.125c2.276,11.954-2.433,20.888-13.334,25.294c-0.613,0.247-1.233,0.476-2.137,0.823
		c7.887,7.233,12.542,16.265,15.955,26.004c1.85,5.274,0.777,8.758-2.829,10.341c-3.622,1.591-6.739,0.062-9.45-5.007
		c-3.917-7.326-7.592-14.782-11.499-22.115C241.063,148.549,235.627,146.417,228.348,147.923z M228.51,136.827
		c6.335-0.372,12.292-0.36,18.134-1.171c5.652-0.784,7.82-3.947,7.794-9.676c-0.026-5.75-2.205-9.04-7.673-9.749
		c-5.961-0.774-12.035-0.674-18.255-0.963C228.51,122.662,228.51,129.236,228.51,136.827z"/>
	<path fill-rule="evenodd" clip-rule="evenodd" fill="#FBFBFB" d="M293.651,115.506c0,6.591,0,12.412,0,18.988
		c8.773,0,17.504-0.158,26.221,0.117c2.043,0.064,4.751,1.047,5.919,2.561c3.036,3.932-0.053,9.231-5.239,9.301
		c-8.798,0.117-17.599,0.032-26.683,0.032c0,7.696,0,15.089,0,22.989c9.575,0,19.191-0.016,28.807,0.006
		c5.542,0.014,7.801,1.818,7.648,6.155c-0.171,4.842-3.23,5.929-7.462,5.888c-11.319-0.109-22.64-0.014-33.96-0.047
		c-6.354-0.019-8.789-2.239-8.821-8.673c-0.104-20.309-0.107-40.618,0.013-60.927c0.036-6.11,2.544-8.367,8.597-8.391
		c10.986-0.041,21.974-0.026,32.961-0.006c5.551,0.011,7.828,1.815,7.661,6.146c-0.185,4.8-3.189,5.963-7.454,5.901
		C312.569,115.413,303.277,115.506,293.651,115.506z"/>
	<path fill-rule="evenodd" clip-rule="evenodd" fill="#D8D9E0" d="M123.113,23.484c47.225,0.011,82.931,35.921,82.903,83.378
		c-0.028,47.105-36.052,82.71-83.627,82.652c-46.793-0.057-82.431-36.115-82.403-83.377C40.013,59.239,75.983,23.475,123.113,23.484
		z M123.068,26.045c-44.482-0.04-80.487,35.902-80.527,80.388c-0.041,44.478,35.906,80.482,80.392,80.522
		c44.482,0.039,80.487-35.903,80.527-80.388C203.5,62.09,167.553,26.085,123.068,26.045z"/>
	<path fill-rule="evenodd" clip-rule="evenodd" fill="#FDFDFD" d="M369.001,116.501c0,18.959,0.009,37.26-0.004,55.56
		c-0.006,7.209-2.008,10.4-6.473,10.438c-4.529,0.04-6.657-3.137-6.673-10.269c-0.037-16.813-0.012-33.627-0.013-50.441
		c0-1.624,0.001-3.248,0.001-5.288c-5.068,0-9.689,0.069-14.309-0.021c-4.569-0.088-7.015-2.499-6.771-6.715
		c0.24-4.16,2.474-6.293,6.764-6.281c13.983,0.04,27.967,0.021,41.951,0.012c4.229-0.004,6.548,1.999,6.674,6.295
		c0.128,4.359-2.081,6.599-6.756,6.689C378.764,116.571,374.133,116.501,369.001,116.501z"/>
	<path fill-rule="evenodd" clip-rule="evenodd" fill="#F5F5F6" d="M318.701,96.713c-9.695,3.532-11.275-4.362-15.403-9.12
		c-4.269,4.09-5.728,12.979-15.375,9.107c3.05-4.597,5.307-10.008,9.31-13.282c2.434-1.99,8.882-2.341,11.197-0.499
		C312.718,86.328,315.296,91.887,318.701,96.713z"/>
	<path fill-rule="evenodd" clip-rule="evenodd" fill="#F7F7F9" d="M187.884,85.393c-7.491,2.045-7.444,2.301-7.613,13.521
		c-0.078,5.185,2.044,7.805,7.588,8.226c0,7.38,0.247,14.666-0.097,21.923c-0.192,4.047-3.239,5.321-7.085,5.299
		c-13.825-0.078-27.652-0.03-41.478-0.03c-1.831,0-3.662,0-6.189,0c0,6.843,0.012,13.599-0.004,20.354
		c-0.012,5.164,0.129,10.337-0.138,15.488c-0.344,6.622-4.395,11.1-9.774,11.283c-5.446,0.187-9.219-3.367-10.407-10.019
		c-0.378-2.115-0.508-4.3-0.51-6.453c-0.031-30.983-0.034-61.967,0.005-92.951c0.003-2.317,0.179-4.67,0.603-6.944
		c1.153-6.18,4.638-9.45,10.979-9.508c16.154-0.146,32.313-0.093,48.467,0.114c6.122,0.078,15.465,9.911,15.629,16.044
		C187.98,76.228,187.884,80.722,187.884,85.393z M128.46,111.776c0,2.85-0.044,5.296,0.01,7.74c0.094,4.272,2.585,6.507,6.593,6.554
		c12.454,0.146,24.912,0.073,37.368,0.021c3.415-0.014,5.845-1.702,6.229-5.181c0.336-3.044,0.07-6.154,0.07-9.134
		C161.733,111.776,145.367,111.776,128.46,111.776z M147.155,72.939c0-2.812,0.397-5.707-0.154-8.407
		c-0.313-1.533-2.179-2.75-3.345-4.109c-1.203,1.324-3.343,2.581-3.444,3.985c-0.405,5.597-0.412,11.256-0.01,16.852
		c0.096,1.339,2.336,2.524,3.59,3.779c1.121-1.221,2.951-2.308,3.212-3.69C147.516,78.633,147.155,75.752,147.155,72.939z
		 M133.019,72.421c0-2.655,0.419-5.407-0.155-7.933c-0.35-1.539-2.229-2.731-3.42-4.08c-1.175,1.358-3.259,2.65-3.364,4.088
		c-0.398,5.448-0.396,10.962,0.009,16.41c0.106,1.431,2.202,2.713,3.384,4.063c1.182-1.361,3.072-2.575,3.39-4.115
		C133.423,78.148,133.02,75.243,133.019,72.421z M160.127,73.144c0-2.982,0.268-6.002-0.141-8.927
		c-0.149-1.067-1.897-2.634-2.938-2.652c-1.047-0.018-2.994,1.562-3.043,2.52c-0.295,5.784-0.347,11.601-0.013,17.38
		c0.068,1.19,2.112,2.267,3.245,3.396c0.96-1.255,2.514-2.406,2.753-3.786C160.436,78.501,160.118,75.795,160.127,73.144z"/>
</g>
</svg>
