<svg id="Calque_1" data-name="Calque 1" xmlns="http://www.w3.org/2000/svg" viewBox="0 0 493 222.94">
  <defs>
    <style>
      .cls-1 {
        fill: #040836;
      }

      .cls-2 {
        fill: #fefefe;
      }

      .cls-10, .cls-11, .cls-12, .cls-13, .cls-2, .cls-3, .cls-4, .cls-5, .cls-6, .cls-7, .cls-8, .cls-9 {
        fill-rule: evenodd;
      }

      .cls-3 {
        fill: #fbfbfb;
      }

      .cls-4 {
        fill: #d8d9e0;
      }

      .cls-5 {
        fill: #fdfdfd;
      }

      .cls-6 {
        fill: #f5f5f6;
      }

      .cls-7 {
        fill: #090d39;
      }

      .cls-8 {
        fill: #060a37;
      }

      .cls-9 {
        fill: #f7f7f9;
      }

      .cls-10 {
        fill: #10133e;
      }

      .cls-11 {
        fill: #12143b;
      }

      .cls-12 {
        fill: #13153b;
      }

      .cls-13 {
        fill: #02032d;
      }
    </style>
  </defs>
  <title>prêt</title>
  <g>
    <path class="cls-1" d="M494,1.5V223.44H1V1.5H494ZM228.35,147.92c7.28-1.51,12.71.63,16.13,7,3.91,7.33,7.58,14.79,11.5,22.12,2.71,5.07,5.83,6.6,9.45,5s4.68-5.07,2.83-10.34c-3.41-9.74-8.07-18.77-16-26,0.9-.35,1.52-0.58,2.14-0.82,10.9-4.41,15.61-13.34,13.33-25.29-2-10.46-9.42-16.09-21.31-16.12q-11,0-22,0c-7.29,0-9.45,2.12-9.46,9.54q-0.06,30,0,60c0,6.35,2.13,9.39,6.4,9.49s6.57-2.83,6.93-9.12c0.06-1,0-2,0-3C228.35,162.92,228.35,155.45,228.35,147.92Zm65.3-32.42c9.63,0,18.92-.09,28.21,0,4.26,0.06,7.27-1.1,7.45-5.9,0.17-4.33-2.11-6.13-7.66-6.15q-16.48,0-33,0c-6.05,0-8.56,2.28-8.6,8.39q-0.18,30.46,0,60.93c0,6.43,2.47,8.65,8.82,8.67,11.32,0,22.64-.06,34,0,4.23,0,7.29-1,7.46-5.89,0.15-4.34-2.11-6.14-7.65-6.16-9.62,0-19.23,0-28.81,0v-23c9.08,0,17.88.08,26.68,0,5.19-.07,8.28-5.37,5.24-9.3-1.17-1.51-3.88-2.5-5.92-2.56-8.72-.28-17.45-0.12-26.22-0.12v-19Zm-170.54-92C76,23.47,40,59.24,40,106.14c0,47.26,35.61,83.32,82.4,83.38C170,189.57,206,154,206,106.86,206,59.41,170.34,23.5,123.11,23.48ZM369,116.5c5.13,0,9.76.07,14.39,0s6.88-2.33,6.76-6.69-2.45-6.3-6.67-6.29q-21,0-42,0c-4.29,0-6.52,2.12-6.76,6.28s2.2,6.63,6.77,6.71,9.24,0,14.31,0c0,2,0,3.66,0,5.29,0,16.81,0,33.63,0,50.44,0,7.13,2.14,10.31,6.67,10.27s6.47-3.23,6.47-10.44C369,153.76,369,135.46,369,116.5ZM318.7,96.71c-3.41-4.83-6-10.38-10.27-13.79-2.32-1.84-8.76-1.49-11.2.5-4,3.27-6.26,8.69-9.31,13.28,9.65,3.87,11.11-5,15.37-9.11C307.43,92.35,309,100.25,318.7,96.71Z" transform="translate(-1 -0.5)"/>
    <path class="cls-2" d="M494,1.5H1a17.56,17.56,0,0,1,4-1q40.75-.09,81.5,0,201.5,0,403,0A21.79,21.79,0,0,1,494,1.5Z" transform="translate(-1 -0.5)"/>
    <path class="cls-3" d="M228.35,147.92c0,7.52,0,15,0,22.46,0,1,0,2,0,3-0.35,6.29-2.6,9.22-6.93,9.12S215,179.36,215,173q0-30,0-60c0-7.41,2.17-9.52,9.46-9.54s14.66,0,22,0c11.89,0,19.32,5.67,21.31,16.13,2.28,12-2.43,20.89-13.33,25.29-0.61.25-1.23,0.48-2.14,0.82,7.89,7.23,12.54,16.26,16,26,1.85,5.27.78,8.76-2.83,10.34s-6.74.06-9.45-5c-3.92-7.33-7.59-14.78-11.5-22.12C241.06,148.55,235.63,146.42,228.35,147.92Zm0.16-11.1c6.33-.37,12.29-0.36,18.13-1.17,5.65-.78,7.82-3.95,7.79-9.68s-2.21-9-7.67-9.75c-6-.77-12-0.67-18.26-1v21.56Z" transform="translate(-1 -0.5)"/>
    <path class="cls-3" d="M293.65,115.51v19c8.77,0,17.5-.16,26.22.12,2,0.06,4.75,1,5.92,2.56,3,3.93-.05,9.23-5.24,9.3-8.8.12-17.6,0-26.68,0v23c9.58,0,19.19,0,28.81,0,5.54,0,7.8,1.82,7.65,6.16-0.17,4.84-3.23,5.93-7.46,5.89-11.32-.11-22.64,0-34,0-6.35,0-8.79-2.24-8.82-8.67q-0.16-30.46,0-60.93c0-6.11,2.54-8.37,8.6-8.39q16.48-.06,33,0c5.55,0,7.83,1.82,7.66,6.15-0.18,4.8-3.19,6-7.45,5.9C312.57,115.41,303.28,115.51,293.65,115.51Z" transform="translate(-1 -0.5)"/>
    <path class="cls-4" d="M123.11,23.48c47.23,0,82.93,35.92,82.9,83.38,0,47.11-36.05,82.71-83.63,82.65C75.59,189.46,40,153.4,40,106.14,40,59.24,76,23.47,123.11,23.48Zm0,2.56a80.46,80.46,0,1,0,80.39,80.52A80.4,80.4,0,0,0,123.07,26Z" transform="translate(-1 -0.5)"/>
    <path class="cls-5" d="M369,116.5c0,19,0,37.26,0,55.56,0,7.21-2,10.4-6.47,10.44s-6.66-3.14-6.67-10.27c0-16.81,0-33.63,0-50.44,0-1.62,0-3.25,0-5.29-5.07,0-9.69.07-14.31,0s-7-2.5-6.77-6.71,2.47-6.29,6.76-6.28q21,0.06,42,0c4.23,0,6.55,2,6.67,6.29s-2.08,6.6-6.76,6.69S374.13,116.5,369,116.5Z" transform="translate(-1 -0.5)"/>
    <path class="cls-6" d="M318.7,96.71c-9.7,3.53-11.28-4.36-15.4-9.12-4.27,4.09-5.73,13-15.37,9.11,3-4.6,5.31-10,9.31-13.28,2.43-2,8.88-2.34,11.2-.5C312.72,86.33,315.3,91.89,318.7,96.71Z" transform="translate(-1 -0.5)"/>
    <path class="cls-7" d="M228.51,136.83V115.27c6.22,0.29,12.29.19,18.26,1,5.47,0.71,7.65,4,7.67,9.75s-2.14,8.89-7.79,9.68C240.8,136.47,234.85,136.46,228.51,136.83Z" transform="translate(-1 -0.5)"/>
    <path class="cls-8" d="M123.07,26a80.46,80.46,0,1,1-80.53,80.39A80.4,80.4,0,0,1,123.07,26Zm64.82,59.35c0-4.67.1-9.17,0-13.65-0.16-6.13-9.51-16-15.63-16q-24.23-.31-48.47-0.11c-6.34.06-9.83,3.33-11,9.51a38.33,38.33,0,0,0-.6,6.94q-0.06,46.48,0,93a37,37,0,0,0,.51,6.45c1.19,6.65,5,10.21,10.41,10s9.43-4.66,9.77-11.28c0.27-5.15.13-10.32,0.14-15.49,0-6.76,0-13.51,0-20.35h6.19c13.83,0,27.65,0,41.48,0,3.85,0,6.89-1.25,7.08-5.3,0.34-7.26.1-14.54,0.1-21.92-5.54-.42-7.67-3-7.59-8.23C180.44,87.69,180.39,87.44,187.88,85.39Z" transform="translate(-1 -0.5)"/>
    <path class="cls-9" d="M187.88,85.39c-7.49,2-7.44,2.3-7.61,13.52-0.08,5.18,2,7.8,7.59,8.23,0,7.38.25,14.67-.1,21.92-0.19,4-3.24,5.32-7.08,5.3-13.83-.08-27.65,0-41.48,0H133c0,6.84,0,13.6,0,20.35,0,5.16.13,10.34-.14,15.49-0.34,6.62-4.39,11.1-9.77,11.28s-9.22-3.37-10.41-10a37,37,0,0,1-.51-6.45q0-46.48,0-93a38.33,38.33,0,0,1,.6-6.94c1.15-6.18,4.64-9.45,11-9.51q24.23-.22,48.47.11c6.12,0.08,15.46,9.91,15.63,16C188,76.23,187.88,80.72,187.88,85.39Zm-59.42,26.38c0,2.85,0,5.3,0,7.74,0.09,4.27,2.59,6.51,6.59,6.55,12.45,0.15,24.91.07,37.37,0,3.41,0,5.85-1.7,6.23-5.18a83,83,0,0,0,.07-9.13H128.46Zm18.69-38.84c0-2.81.4-5.71-.15-8.41-0.31-1.53-2.18-2.75-3.34-4.11-1.2,1.32-3.34,2.58-3.44,4a117.36,117.36,0,0,0,0,16.85c0.1,1.34,2.34,2.52,3.59,3.78,1.12-1.22,3-2.31,3.21-3.69C147.52,78.63,147.15,75.75,147.15,72.94ZM133,72.42c0-2.66.42-5.41-.16-7.93-0.35-1.54-2.23-2.73-3.42-4.08-1.18,1.36-3.26,2.65-3.36,4.09a111.91,111.91,0,0,0,0,16.41c0.11,1.43,2.2,2.71,3.38,4.06,1.18-1.36,3.07-2.58,3.39-4.12C133.42,78.15,133,75.24,133,72.42Zm27.11,0.72a64.87,64.87,0,0,0-.14-8.93A4.05,4.05,0,0,0,157,61.56c-1,0-3,1.56-3,2.52a160.35,160.35,0,0,0,0,17.38c0.07,1.19,2.11,2.27,3.25,3.4,1-1.25,2.51-2.41,2.75-3.79C160.44,78.5,160.12,75.79,160.13,73.14Z" transform="translate(-1 -0.5)"/>
    <path class="cls-10" d="M128.46,111.78h50.27a83,83,0,0,1-.07,9.13c-0.38,3.48-2.81,5.17-6.23,5.18-12.46.05-24.91,0.13-37.37,0-4,0-6.5-2.28-6.59-6.55C128.42,117.07,128.46,114.63,128.46,111.78Z" transform="translate(-1 -0.5)"/>
    <path class="cls-11" d="M147.15,72.94c0,2.81.36,5.69-.15,8.41-0.26,1.38-2.09,2.47-3.21,3.69-1.25-1.25-3.49-2.44-3.59-3.78a117.36,117.36,0,0,1,0-16.85c0.1-1.4,2.24-2.66,3.44-4,1.17,1.36,3,2.58,3.34,4.11C147.55,67.23,147.15,70.13,147.15,72.94Z" transform="translate(-1 -0.5)"/>
    <path class="cls-12" d="M133,72.42c0,2.82.4,5.73-.16,8.43-0.32,1.54-2.21,2.75-3.39,4.12-1.18-1.35-3.28-2.63-3.38-4.06a111.91,111.91,0,0,1,0-16.41c0.11-1.44,2.19-2.73,3.36-4.09,1.19,1.35,3.07,2.54,3.42,4.08C133.44,67,133,69.77,133,72.42Z" transform="translate(-1 -0.5)"/>
    <path class="cls-13" d="M160.12,73.14c0,2.65.31,5.36-.13,7.93-0.24,1.38-1.79,2.53-2.75,3.79-1.13-1.13-3.18-2.21-3.25-3.4a160.35,160.35,0,0,1,0-17.38c0-1,2-2.54,3-2.52A4.05,4.05,0,0,1,160,64.22,64.11,64.11,0,0,1,160.12,73.14Z" transform="translate(-1 -0.5)"/>
  </g>
</svg>
