<?xml version="1.0" encoding="utf-8"?>
<!-- Generator: Adobe Illustrator 19.2.1, SVG Export Plug-In . SVG Version: 6.00 Build 0)  -->
<svg version="1.1" xmlns="http://www.w3.org/2000/svg" xmlns:xlink="http://www.w3.org/1999/xlink" x="0px" y="0px"
	 viewBox="0 0 493 222.9" style="enable-background:new 0 0 493 222.9;" xml:space="preserve">
<style type="text/css">
	.st0{fill:#FFFFFF;}
	.st1{fill:#040836;}
	.st2{fill:#090D39;}
	.st3{fill:#060A37;}
	.st4{fill:#13153B;}
	.st5{fill:#10133E;}
</style>
<title>Prêt de matériel</title>
<g id="Calque_3">
	<rect x="3" y="4" class="st0" width="487" height="216"/>
</g>
<g id="Calque_1">
	<g>
		<path class="st1" d="M493,0v222.9H0V0H493z M227.4,146.4c7.3-1.5,12.7,0.6,16.1,7c3.9,7.3,7.6,14.8,11.5,22.1
			c2.7,5.1,5.8,6.6,9.5,5s4.7-5.1,2.8-10.3c-3.4-9.7-8.1-18.8-16-26c0.9-0.4,1.5-0.6,2.1-0.8c10.9-4.4,15.6-13.3,13.3-25.3
			c-2-10.5-9.4-16.1-21.3-16.1c-7.3,0-14.7,0-22,0c-7.3,0-9.4,2.1-9.5,9.5c0,20,0,40,0,60c0,6.4,2.1,9.4,6.4,9.5s6.6-2.8,6.9-9.1
			c0.1-1,0-2,0-3C227.4,161.4,227.4,153.9,227.4,146.4z M292.7,114c9.6,0,18.9-0.1,28.2,0c4.3,0.1,7.3-1.1,7.5-5.9
			c0.2-4.3-2.1-6.1-7.7-6.2c-11,0-22,0-33,0c-6,0-8.6,2.3-8.6,8.4c-0.1,20.3-0.1,40.6,0,60.9c0,6.4,2.5,8.6,8.8,8.7
			c11.3,0,22.6-0.1,34,0c4.2,0,7.3-1,7.5-5.9c0.1-4.3-2.1-6.1-7.6-6.2c-9.6,0-19.2,0-28.8,0v-23c9.1,0,17.9,0.1,26.7,0
			c5.2-0.1,8.3-5.4,5.2-9.3c-1.2-1.5-3.9-2.5-5.9-2.6c-8.7-0.3-17.5-0.1-26.2-0.1L292.7,114L292.7,114z M122.1,22
			C75,22,39,57.7,39,104.6c0,47.3,35.6,83.3,82.4,83.4c47.6,0.1,83.6-35.5,83.6-82.7C205,57.9,169.3,22,122.1,22L122.1,22z M368,115
			c5.1,0,9.8,0.1,14.4,0s6.9-2.3,6.8-6.7s-2.5-6.3-6.7-6.3c-14,0-28,0-42,0c-4.3,0-6.5,2.1-6.8,6.3s2.2,6.6,6.8,6.7s9.2,0,14.3,0
			c0,2,0,3.7,0,5.3c0,16.8,0,33.6,0,50.4c0,7.1,2.1,10.3,6.7,10.3s6.5-3.2,6.5-10.4C368,152.3,368,134,368,115z M317.7,95.2
			c-3.4-4.8-6-10.4-10.3-13.8c-2.3-1.8-8.8-1.5-11.2,0.5c-4,3.3-6.3,8.7-9.3,13.3c9.6,3.9,11.1-5,15.4-9.1
			C306.4,90.8,308,98.8,317.7,95.2z"/>
		<path class="st2" d="M227.5,136.3v-21.6c6.2,0.3,12.3,0.2,18.3,1c5.5,0.7,7.6,4,7.7,9.8c0,5.7-2.1,8.9-7.8,9.7
			C239.8,136,233.9,136,227.5,136.3z"/>
	</g>
</g>
<g id="Calque_2">
	<path class="st3" d="M122.4,24.1c44.4,0,80.7,36.9,80.7,81.3c0,44.4-36.6,80.2-81,80.2s-80.5-35.5-80.4-79.9
		C41.6,61.3,78,24.1,122.4,24.1C122.5,24.1,122.3,24.1,122.4,24.1z M187,84.5c0-4.7,0.1-9.2,0-13.7c-0.2-6.1-9.5-16-15.6-16
		c-16.2-0.2-32.3-0.2-48.5-0.1c-6.3,0.1-9.8,3.3-11,9.5c-0.4,2.3-0.6,4.6-0.6,6.9c0,31,0,62,0,93c0,2.2,0.2,4.3,0.5,6.4
		c1.2,6.6,5,10.2,10.4,10s9.4-4.7,9.8-11.3c0.3-5.1,0.1-10.3,0.1-15.5c0-6.8,0-13.5,0-20.4h6.2c13.8,0,27.6,0,41.5,0
		c3.9,0,6.9-1.3,7.1-5.3c0.3-7.3,0.1-14.5,0.1-21.9c-5.5-0.4-7.7-3-7.6-8.2C179.6,86.9,179.5,86.6,187,84.5L187,84.5z"/>
	<path class="st4" d="M132,71.9c0,2.8,0.4,5.7-0.2,8.4c-0.3,1.5-2.2,2.8-3.4,4.1c-1.2-1.3-3.3-2.6-3.4-4.1c-0.4-5.5-0.4-10.9,0-16.4
		c0.1-1.4,2.2-2.7,3.4-4.1c1.2,1.3,3.1,2.5,3.4,4.1C132.4,66.5,132,69.3,132,71.9z"/>
	<path class="st4" d="M146.1,72c0,2.8,0.4,5.7-0.2,8.4c-0.3,1.5-2.2,2.8-3.4,4.1c-1.2-1.3-3.3-2.6-3.4-4.1c-0.4-5.5-0.4-10.9,0-16.4
		c0.1-1.4,2.2-2.7,3.4-4.1c1.2,1.3,3.1,2.5,3.4,4.1C146.6,66.5,146.1,69.3,146.1,72z"/>
	<path class="st4" d="M159.9,72c0,2.8,0.4,5.7-0.2,8.4c-0.3,1.5-2.2,2.8-3.4,4.1c-1.2-1.3-3.3-2.6-3.4-4.1c-0.4-5.5-0.4-10.9,0-16.4
		c0.1-1.4,2.2-2.7,3.4-4.1c1.2,1.3,3.1,2.5,3.4,4.1C160.3,66.5,159.9,69.3,159.9,72z"/>
	<path class="st5" d="M127.5,111.3h50.3c0.1,3,0.1,6.1-0.1,9.1c-0.4,3.5-2.8,5.2-6.2,5.2c-12.5,0.1-24.9,0.1-37.4,0
		c-4,0-6.5-2.3-6.6-6.6C127.4,116.6,127.5,114.1,127.5,111.3z"/>
</g>
</svg>
